<svg width="24" height="25" viewBox="0 0 24 25" fill="none" xmlns="http://www.w3.org/2000/svg">
<g clip-path="url(#clip0_278_2183)">
<path d="M22.5629 1.93814C20.1889 -0.435855 16.6439 0.143144 11.9999 3.63814C7.35687 0.143144 3.81287 -0.436855 1.43687 1.93814C-0.939135 4.31314 -0.358135 7.85713 3.13687 12.5011C-0.358135 17.1441 -0.938135 20.6891 1.43687 23.0641C1.88216 23.5258 2.41726 23.8915 3.00921 24.1387C3.60117 24.3858 4.23744 24.5092 4.87887 24.5011C6.84987 24.5011 9.22987 23.4491 11.9999 21.3651C14.7689 23.4491 17.1489 24.5011 19.1209 24.5011C19.7623 24.5092 20.3986 24.3858 20.9905 24.1387C21.5825 23.8915 22.1176 23.5258 22.5629 23.0641C24.9379 20.6891 24.3629 17.1451 20.8629 12.5011C24.3579 7.85713 24.9379 4.31314 22.5629 1.93814ZM19.0849 2.52914C19.467 2.51763 19.8475 2.58435 20.2029 2.72518C20.5584 2.86602 20.8813 3.07801 21.1519 3.34814C22.8979 5.09514 21.6079 8.06113 19.5639 10.8871C18.7259 9.89913 17.7819 8.87213 16.7059 7.79514C15.6299 6.71814 14.5999 5.77414 13.6119 4.93514C15.5099 3.56214 17.4719 2.52914 19.0849 2.52914ZM18.3109 12.5011C17.2999 13.7211 16.2289 14.8621 15.2949 15.8011C14.3609 16.7401 13.2199 17.8011 11.9999 18.8121C10.7799 17.8011 9.63887 16.7301 8.70487 15.8011C7.77087 14.8721 6.69987 13.7211 5.68887 12.5011C6.69987 11.2811 7.77087 10.1391 8.70487 9.20613C9.63887 8.27313 10.7799 7.20114 11.9999 6.18914C13.2199 7.19914 14.3609 8.27213 15.2999 9.20613C16.2389 10.1401 17.2999 11.2811 18.3109 12.5011ZM2.84787 3.34914C3.11813 3.07854 3.44097 2.86618 3.79647 2.72515C4.15197 2.58412 4.53259 2.51741 4.91487 2.52914C6.52787 2.52914 8.48987 3.56214 10.3879 4.93514C9.39987 5.77414 8.37187 6.71814 7.29387 7.79514C6.21587 8.87213 5.27387 9.89513 4.43487 10.8871C2.39187 8.06113 1.09987 5.09514 2.84787 3.34914ZM2.84787 21.6491C1.10187 19.9031 2.39187 16.9361 4.43487 14.1111C5.27387 15.0991 6.21787 16.1261 7.29387 17.2031C8.36987 18.2801 9.39387 19.2261 10.3829 20.0641C7.55787 22.1101 4.59187 23.4011 2.84787 21.6531V21.6491ZM21.1479 21.6491C19.4029 23.3931 16.4379 22.1061 13.6129 20.0641C14.5989 19.2261 15.6269 18.2771 16.7019 17.2031C17.7769 16.1291 18.7219 15.1031 19.5599 14.1111C21.6079 16.9411 22.8999 19.9071 21.1519 21.6531L21.1479 21.6491Z" fill="#374957"/>
<path d="M11.9998 14.5C13.1043 14.5 13.9997 13.6046 13.9997 12.5C13.9997 11.3954 13.1043 10.5 11.9998 10.5C10.8952 10.5 9.99976 11.3954 9.99976 12.5C9.99976 13.6046 10.8952 14.5 11.9998 14.5Z" fill="#374957"/>
</g>
<defs>
<clipPath id="clip0_278_2183">
<rect width="24" height="24" fill="white" transform="translate(0 0.5)"/>
</clipPath>
</defs>
</svg>
