<svg width="24" height="17" viewBox="0 0 24 17" fill="none" xmlns="http://www.w3.org/2000/svg">
<path d="M21 0.5H3C2.20435 0.5 1.44129 0.816071 0.87868 1.37868C0.31607 1.94129 0 2.70435 0 3.5L0 16.5H24V3.5C24 2.70435 23.6839 1.94129 23.1213 1.37868C22.5587 0.816071 21.7956 0.5 21 0.5ZM22 14.5H2V3.5C2 3.23478 2.10536 2.98043 2.29289 2.79289C2.48043 2.60536 2.73478 2.5 3 2.5H21C21.2652 2.5 21.5196 2.60536 21.7071 2.79289C21.8946 2.98043 22 3.23478 22 3.5V14.5ZM12 4.5C11.2089 4.5 10.4355 4.7346 9.77772 5.17412C9.11992 5.61365 8.60723 6.23836 8.30448 6.96927C8.00173 7.70017 7.92252 8.50444 8.07686 9.28036C8.2312 10.0563 8.61216 10.769 9.17157 11.3284C9.73098 11.8878 10.4437 12.2688 11.2196 12.4231C11.9956 12.5775 12.7998 12.4983 13.5307 12.1955C14.2616 11.8928 14.8864 11.3801 15.3259 10.7223C15.7654 10.0645 16 9.29113 16 8.5C16 7.43913 15.5786 6.42172 14.8284 5.67157C14.0783 4.92143 13.0609 4.5 12 4.5ZM12 10.5C11.6044 10.5 11.2178 10.3827 10.8889 10.1629C10.56 9.94318 10.3036 9.63082 10.1522 9.26537C10.0009 8.89991 9.96126 8.49778 10.0384 8.10982C10.1156 7.72186 10.3061 7.36549 10.5858 7.08579C10.8655 6.80608 11.2219 6.6156 11.6098 6.53843C11.9978 6.46126 12.3999 6.50087 12.7654 6.65224C13.1308 6.80362 13.4432 7.05996 13.6629 7.38886C13.8827 7.71776 14 8.10444 14 8.5C14 9.03043 13.7893 9.53914 13.4142 9.91421C13.0391 10.2893 12.5304 10.5 12 10.5ZM6 5.5C6 5.69778 5.94135 5.89112 5.83147 6.05557C5.72159 6.22002 5.56541 6.34819 5.38268 6.42388C5.19996 6.49957 4.99889 6.51937 4.80491 6.48079C4.61093 6.4422 4.43275 6.34696 4.29289 6.20711C4.15304 6.06725 4.0578 5.88907 4.01921 5.69509C3.98063 5.50111 4.00043 5.30004 4.07612 5.11732C4.15181 4.93459 4.27998 4.77841 4.44443 4.66853C4.60888 4.55865 4.80222 4.5 5 4.5C5.26522 4.5 5.51957 4.60536 5.70711 4.79289C5.89464 4.98043 6 5.23478 6 5.5ZM20 5.5C20 5.69778 19.9414 5.89112 19.8315 6.05557C19.7216 6.22002 19.5654 6.34819 19.3827 6.42388C19.2 6.49957 18.9989 6.51937 18.8049 6.48079C18.6109 6.4422 18.4327 6.34696 18.2929 6.20711C18.153 6.06725 18.0578 5.88907 18.0192 5.69509C17.9806 5.50111 18.0004 5.30004 18.0761 5.11732C18.1518 4.93459 18.28 4.77841 18.4444 4.66853C18.6089 4.55865 18.8022 4.5 19 4.5C19.2652 4.5 19.5196 4.60536 19.7071 4.79289C19.8946 4.98043 20 5.23478 20 5.5ZM6 11.5C6 11.6978 5.94135 11.8911 5.83147 12.0556C5.72159 12.22 5.56541 12.3482 5.38268 12.4239C5.19996 12.4996 4.99889 12.5194 4.80491 12.4808C4.61093 12.4422 4.43275 12.347 4.29289 12.2071C4.15304 12.0673 4.0578 11.8891 4.01921 11.6951C3.98063 11.5011 4.00043 11.3 4.07612 11.1173C4.15181 10.9346 4.27998 10.7784 4.44443 10.6685C4.60888 10.5586 4.80222 10.5 5 10.5C5.26522 10.5 5.51957 10.6054 5.70711 10.7929C5.89464 10.9804 6 11.2348 6 11.5ZM20 11.5C20 11.6978 19.9414 11.8911 19.8315 12.0556C19.7216 12.22 19.5654 12.3482 19.3827 12.4239C19.2 12.4996 18.9989 12.5194 18.8049 12.4808C18.6109 12.4422 18.4327 12.347 18.2929 12.2071C18.153 12.0673 18.0578 11.8891 18.0192 11.6951C17.9806 11.5011 18.0004 11.3 18.0761 11.1173C18.1518 10.9346 18.28 10.7784 18.4444 10.6685C18.6089 10.5586 18.8022 10.5 19 10.5C19.2652 10.5 19.5196 10.6054 19.7071 10.7929C19.8946 10.9804 20 11.2348 20 11.5Z" fill="#374957"/>
</svg>
