<svg width="24" height="25" viewBox="0 0 24 25" fill="none" xmlns="http://www.w3.org/2000/svg">
<path d="M16.5 17.5C15.806 17.5008 15.1279 17.7079 14.5519 18.095C13.9759 18.4821 13.5279 19.0317 13.265 19.674C12.4376 19.442 11.5624 19.442 10.735 19.674C10.4158 18.9 9.82922 18.2664 9.08215 17.8885C8.33508 17.5106 7.47714 17.4135 6.6645 17.6149C5.85187 17.8163 5.13856 18.3028 4.65442 18.9858C4.17028 19.6689 3.9475 20.503 4.02662 21.3365C4.10575 22.17 4.48152 22.9473 5.08554 23.5271C5.68956 24.1068 6.48167 24.4504 7.31768 24.4953C8.1537 24.5402 8.97804 24.2834 9.64065 23.7716C10.3033 23.2599 10.7601 22.5272 10.928 21.707C11.2724 21.5827 11.6341 21.5128 12 21.5C12.3659 21.5127 12.7276 21.5826 13.072 21.707C13.2057 22.3553 13.5205 22.9524 13.9799 23.429C14.4393 23.9056 15.0244 24.2421 15.6673 24.3996C16.3103 24.557 16.9847 24.5289 17.6123 24.3185C18.2399 24.1081 18.795 23.724 19.2131 23.2109C19.6313 22.6977 19.8953 22.0765 19.9746 21.4193C20.0539 20.7622 19.9453 20.096 19.6612 19.4981C19.3772 18.9002 18.9294 18.3951 18.3698 18.0414C17.8103 17.6878 17.1619 17.5 16.5 17.5ZM7.5 22.5C7.20333 22.5 6.91332 22.412 6.66664 22.2472C6.41997 22.0824 6.22771 21.8481 6.11418 21.574C6.00065 21.2999 5.97094 20.9983 6.02882 20.7074C6.0867 20.4164 6.22956 20.1491 6.43934 19.9393C6.64912 19.7296 6.91639 19.5867 7.20736 19.5288C7.49834 19.4709 7.79994 19.5007 8.07403 19.6142C8.34811 19.7277 8.58238 19.92 8.7472 20.1666C8.91203 20.4133 9 20.7033 9 21C9 21.3978 8.84196 21.7794 8.56066 22.0607C8.27936 22.342 7.89782 22.5 7.5 22.5ZM16.5 22.5C16.2033 22.5 15.9133 22.412 15.6666 22.2472C15.42 22.0824 15.2277 21.8481 15.1142 21.574C15.0006 21.2999 14.9709 20.9983 15.0288 20.7074C15.0867 20.4164 15.2296 20.1491 15.4393 19.9393C15.6491 19.7296 15.9164 19.5867 16.2074 19.5288C16.4983 19.4709 16.7999 19.5007 17.074 19.6142C17.3481 19.7277 17.5824 19.92 17.7472 20.1666C17.912 20.4133 18 20.7033 18 21C18 21.3978 17.842 21.7794 17.5607 22.0607C17.2794 22.342 16.8978 22.5 16.5 22.5ZM19.977 9.4C19.635 0.61 15.2 0.5 15 0.5C13.8743 0.550131 12.8064 1.01288 12 1.8C11.1937 1.01273 10.1258 0.549945 9 0.5C8.8 0.5 4.365 0.61 4.023 9.4C1.363 10.119 0 11.157 0 12.5C0 15.657 7.543 16.5 12 16.5C16.457 16.5 24 15.657 24 12.5C24 11.157 22.637 10.119 19.977 9.4ZM8.989 2.5C9.43788 2.53351 9.86995 2.68497 10.2415 2.93906C10.6131 3.19314 10.9109 3.54085 11.105 3.947L12 5.736L12.9 3.947C13.0909 3.54772 13.3818 3.20463 13.7446 2.95107C14.1073 2.69752 14.5294 2.54212 14.97 2.5C14.999 2.5 17.817 2.772 17.991 9.808C16.0378 10.326 14.0199 10.5591 12 10.5C9.97971 10.5575 7.96167 10.3238 6.008 9.806C6.183 2.771 9 2.5 8.989 2.5ZM12 14.5C5.956 14.5 2.273 13.171 1.994 12.542C2.059 12.378 2.66 11.842 4.465 11.351L4.553 11.395C4.643 11.439 6.823 12.5 12 12.5C17.177 12.5 19.356 11.439 19.447 11.395L19.535 11.351C20.4374 11.5105 21.2863 11.8908 22.006 12.458C21.727 13.171 18.044 14.5 12 14.5Z" fill="#374957"/>
</svg>
