<svg width="24" height="24" viewBox="0 0 24 24" fill="none" xmlns="http://www.w3.org/2000/svg">
<path d="M10.5084 19.8333H13.425V14.5833H15.175V9.21667C15.175 8.69167 14.8982 8.28839 14.3444 8.00683C13.7898 7.7245 12.9973 7.58333 11.9667 7.58333C10.9362 7.58333 10.144 7.7245 9.59022 8.00683C9.03566 8.28839 8.75838 8.69167 8.75838 9.21667V14.5833H10.5084V19.8333ZM11.9667 23.3333C10.3723 23.3333 8.86533 23.0269 7.44588 22.414C6.02644 21.8019 4.78705 20.9658 3.72772 19.9057C2.6676 18.8463 1.83149 17.6069 1.21938 16.1875C0.606493 14.7681 0.300049 13.2611 0.300049 11.6667C0.300049 10.0528 0.606493 8.54117 1.21938 7.13183C1.83149 5.72172 2.6676 4.487 3.72772 3.42767C4.78705 2.36756 6.02644 1.53106 7.44588 0.918167C8.86533 0.306056 10.3723 0 11.9667 0C13.5806 0 15.0922 0.306056 16.5016 0.918167C17.9117 1.53106 19.1464 2.36756 20.2057 3.42767C21.2658 4.487 22.1019 5.72172 22.7141 7.13183C23.3269 8.54117 23.6334 10.0528 23.6334 11.6667C23.6334 13.2611 23.3269 14.7681 22.7141 16.1875C22.1019 17.6069 21.2658 18.8463 20.2057 19.9057C19.1464 20.9658 17.9117 21.8019 16.5016 22.414C15.0922 23.0269 13.5806 23.3333 11.9667 23.3333ZM11.9667 21C14.5528 21 16.7551 20.0912 18.5735 18.2735C20.3912 16.4551 21.3001 14.2528 21.3001 11.6667C21.3001 9.08056 20.3912 6.87828 18.5735 5.05983C16.7551 3.24217 14.5528 2.33333 11.9667 2.33333C9.3806 2.33333 7.17872 3.24217 5.36105 5.05983C3.5426 6.87828 2.63338 9.08056 2.63338 11.6667C2.63338 14.2528 3.5426 16.4551 5.36105 18.2735C7.17872 20.0912 9.3806 21 11.9667 21ZM11.9667 7C12.4723 7 12.8903 6.83472 13.2209 6.50417C13.5514 6.17361 13.7167 5.75556 13.7167 5.25C13.7167 4.74444 13.5514 4.32639 13.2209 3.99583C12.8903 3.66528 12.4723 3.5 11.9667 3.5C11.4612 3.5 11.0431 3.66528 10.7126 3.99583C10.382 4.32639 10.2167 4.74444 10.2167 5.25C10.2167 5.75556 10.382 6.17361 10.7126 6.50417C11.0431 6.83472 11.4612 7 11.9667 7Z" fill="#F57721"/>
</svg>
