<svg width="24" height="24" viewBox="0 0 24 24" fill="none" xmlns="http://www.w3.org/2000/svg">
<path d="M6.47222 19.4167H8.41389V16.8278H11.0028V14.8861H8.41389V12.2972H6.47222V14.8861H3.88333V16.8278H6.47222V19.4167ZM12.9444 18.4458H19.4167V16.5042H12.9444V18.4458ZM12.9444 15.2097H19.4167V13.2681H12.9444V15.2097ZM14.3683 10.2908L16.1806 8.47861L17.9928 10.2908L19.3519 8.93167L17.5397 7.05472L19.3519 5.2425L17.9928 3.88333L16.1806 5.69556L14.3683 3.88333L13.0092 5.2425L14.8214 7.05472L13.0092 8.93167L14.3683 10.2908ZM4.20694 8.02556H10.6792V6.08389H4.20694V8.02556ZM2.58889 23.3C1.87694 23.3 1.26726 23.0467 0.759839 22.5402C0.253279 22.0327 0 21.4231 0 20.7111V2.58889C0 1.87694 0.253279 1.26726 0.759839 0.759839C1.26726 0.253279 1.87694 0 2.58889 0H20.7111C21.4231 0 22.0327 0.253279 22.5402 0.759839C23.0467 1.26726 23.3 1.87694 23.3 2.58889V20.7111C23.3 21.4231 23.0467 22.0327 22.5402 22.5402C22.0327 23.0467 21.4231 23.3 20.7111 23.3H2.58889ZM2.58889 20.7111H20.7111V2.58889H2.58889V20.7111Z" fill="#4189FE"/>
</svg>
