<svg width="24" height="23" viewBox="0 0 24 23" fill="none" xmlns="http://www.w3.org/2000/svg">
<path d="M2.96663 17.5V19.8333H21.6333V17.5H2.96663ZM6.46663 4.66667V2.33333C6.46663 1.69167 6.6953 1.14217 7.15263 0.684833C7.60919 0.228278 8.1583 0 8.79997 0H15.8C16.4416 0 16.9911 0.228278 17.4485 0.684833C17.905 1.14217 18.1333 1.69167 18.1333 2.33333V4.66667H21.6333C22.275 4.66667 22.8245 4.89533 23.2818 5.35267C23.7384 5.80922 23.9666 6.35833 23.9666 7V19.8333C23.9666 20.475 23.7384 21.0245 23.2818 21.4818C22.8245 21.9384 22.275 22.1667 21.6333 22.1667H2.96663C2.32497 22.1667 1.77586 21.9384 1.3193 21.4818C0.861968 21.0245 0.633301 20.475 0.633301 19.8333V7C0.633301 6.35833 0.861968 5.80922 1.3193 5.35267C1.77586 4.89533 2.32497 4.66667 2.96663 4.66667H6.46663ZM2.96663 14H21.6333V7H18.1333V9.33333H15.8V7H8.79997V9.33333H6.46663V7H2.96663V14ZM8.79997 4.66667H15.8V2.33333H8.79997V4.66667Z" fill="#93D500"/>
</svg>
