<svg width="24" height="24" viewBox="0 0 24 24" fill="none" xmlns="http://www.w3.org/2000/svg">
<path d="M13.6333 23.5492L12 21.9159L16.1416 17.7742L6.22495 7.85755L2.08328 11.9992L0.449951 10.3659L2.08328 8.67422L0.449951 7.04089L2.89995 4.59089L1.26662 2.89922L2.89995 1.26589L4.59162 2.89922L7.04162 0.449219L8.67495 2.08255L10.3666 0.449219L12 2.08255L7.85828 6.22422L17.775 16.1409L21.9166 11.9992L23.5499 13.6326L21.9166 15.3242L23.5499 16.9576L21.0999 19.4076L22.7333 21.0992L21.0999 22.7326L19.4083 21.0992L16.9583 23.5492L15.325 21.9159L13.6333 23.5492Z" fill="#000"/>
</svg>
