<svg width="26" height="20" viewBox="0 0 26 20" fill="none" xmlns="http://www.w3.org/2000/svg">
<path d="M0.166626 19.3327V14.666C0.166626 14.0049 0.395293 13.4507 0.852626 13.0035C1.30918 12.5563 1.85829 12.3327 2.49996 12.3327H6.32079C6.70968 12.3327 7.07913 12.4299 7.42913 12.6243C7.77913 12.8188 8.06107 13.0813 8.27496 13.4118C8.83885 14.1702 9.53418 14.7632 10.361 15.191C11.187 15.6188 12.0666 15.8327 13 15.8327C13.9527 15.8327 14.8425 15.6188 15.6693 15.191C16.4953 14.7632 17.1805 14.1702 17.725 13.4118C17.9777 13.0813 18.2741 12.8188 18.614 12.6243C18.9546 12.4299 19.3097 12.3327 19.6791 12.3327H23.5C24.1611 12.3327 24.7152 12.5563 25.1625 13.0035C25.6097 13.4507 25.8333 14.0049 25.8333 14.666V19.3327H17.6666V16.6785C16.9861 17.1646 16.2522 17.5341 15.4651 17.7868C14.6772 18.0396 13.8555 18.166 13 18.166C12.1638 18.166 11.3472 18.035 10.55 17.7728C9.75274 17.51 9.01385 17.1355 8.33329 16.6493V19.3327H0.166626ZM13 14.666C12.2611 14.666 11.5611 14.4957 10.9 14.155C10.2388 13.8151 9.68468 13.3438 9.23746 12.741C8.9069 12.2549 8.4939 11.8711 7.99846 11.5895C7.50224 11.3072 6.96246 11.166 6.37913 11.166C6.8069 10.4466 7.71107 9.87763 9.09163 9.45918C10.4722 9.04152 11.775 8.83268 13 8.83268C14.225 8.83268 15.5277 9.04152 16.9083 9.45918C18.2888 9.87763 19.193 10.4466 19.6208 11.166C19.0569 11.166 18.5222 11.3072 18.0166 11.5895C17.5111 11.8711 17.093 12.2549 16.7625 12.741C16.3347 13.3632 15.7902 13.8396 15.1291 14.1702C14.468 14.5007 13.7583 14.666 13 14.666ZM3.66663 11.166C2.6944 11.166 1.86801 10.8257 1.18746 10.1452C0.506904 9.46463 0.166626 8.63824 0.166626 7.66602C0.166626 6.67435 0.506904 5.8429 1.18746 5.17168C1.86801 4.50124 2.6944 4.16602 3.66663 4.16602C4.65829 4.16602 5.48974 4.50124 6.16096 5.17168C6.8314 5.8429 7.16663 6.67435 7.16663 7.66602C7.16663 8.63824 6.8314 9.46463 6.16096 10.1452C5.48974 10.8257 4.65829 11.166 3.66663 11.166ZM22.3333 11.166C21.3611 11.166 20.5347 10.8257 19.8541 10.1452C19.1736 9.46463 18.8333 8.63824 18.8333 7.66602C18.8333 6.67435 19.1736 5.8429 19.8541 5.17168C20.5347 4.50124 21.3611 4.16602 22.3333 4.16602C23.325 4.16602 24.1564 4.50124 24.8276 5.17168C25.4981 5.8429 25.8333 6.67435 25.8333 7.66602C25.8333 8.63824 25.4981 9.46463 24.8276 10.1452C24.1564 10.8257 23.325 11.166 22.3333 11.166ZM13 7.66602C12.0277 7.66602 11.2013 7.32574 10.5208 6.64518C9.84024 5.96463 9.49996 5.13824 9.49996 4.16602C9.49996 3.17435 9.84024 2.3429 10.5208 1.67168C11.2013 1.00124 12.0277 0.666016 13 0.666016C13.9916 0.666016 14.8227 1.00124 15.4931 1.67168C16.1643 2.3429 16.5 3.17435 16.5 4.16602C16.5 5.13824 16.1643 5.96463 15.4931 6.64518C14.8227 7.32574 13.9916 7.66602 13 7.66602Z" fill="#000"/>
</svg>
