<svg width="18" height="23" viewBox="0 0 18 23" fill="none" xmlns="http://www.w3.org/2000/svg">
<path d="M7.83337 22.5007C5.88893 22.5007 4.23615 21.8201 2.87504 20.459C1.51393 19.0979 0.833374 17.4451 0.833374 15.5007V8.50065L6.66671 14.334L5.03337 15.9965L3.16671 14.1298V15.5007C3.16671 16.784 3.62365 17.8826 4.53754 18.7965C5.45143 19.7104 6.55004 20.1673 7.83337 20.1673C9.11671 20.1673 10.2153 19.7104 11.1292 18.7965C12.0431 17.8826 12.5 16.784 12.5 15.5007V11.7965C11.8195 11.5437 11.2603 11.121 10.8224 10.5283C10.3853 9.93487 10.1667 9.25898 10.1667 8.50065C10.1667 7.74232 10.3853 7.06643 10.8224 6.47298C11.2603 5.88032 11.8195 5.4576 12.5 5.20482V0.333984H14.8334V5.20482C15.5139 5.4576 16.0732 5.88032 16.511 6.47298C16.9482 7.06643 17.1667 7.74232 17.1667 8.50065C17.1667 9.25898 16.9482 9.93954 16.511 10.5423C16.0732 11.1451 15.5139 11.5632 14.8334 11.7965V15.5007C14.8334 17.4451 14.1528 19.0979 12.7917 20.459C11.4306 21.8201 9.77782 22.5007 7.83337 22.5007Z" fill="#000"/>
</svg>
