<svg width="20" height="22" viewBox="0 0 20 22" fill="none" xmlns="http://www.w3.org/2000/svg">
<path d="M0.666626 21.5V0.5H2.99996V2.83333H5.33329V0.5H14.6666V2.83333H17V0.5H19.3333V21.5H17V19.1667H14.6666V21.5H5.33329V19.1667H2.99996V21.5H0.666626ZM2.99996 16.8333H5.33329V14.5H2.99996V16.8333ZM2.99996 12.1667H5.33329V9.83333H2.99996V12.1667ZM2.99996 7.5H5.33329V5.16667H2.99996V7.5ZM14.6666 16.8333H17V14.5H14.6666V16.8333ZM14.6666 12.1667H17V9.83333H14.6666V12.1667ZM14.6666 7.5H17V5.16667H14.6666V7.5Z" fill="#000"/>
</svg>
