<svg width="22" height="22" viewBox="0 0 22 22" fill="none" xmlns="http://www.w3.org/2000/svg">
<path d="M7.5 21.5H2.83333C2.19167 21.5 1.64217 21.2717 1.18483 20.8152C0.728278 20.3578 0.5 19.8083 0.5 19.1667V11C0.5 9.54167 0.776889 8.1755 1.33067 6.9015C1.88522 5.62828 2.63422 4.51994 3.57767 3.5765C4.52033 2.63383 5.62867 1.88522 6.90267 1.33067C8.17589 0.776889 9.54167 0.5 11 0.5C12.4583 0.5 13.8245 0.776889 15.0985 1.33067C16.3717 1.88522 17.4801 2.63383 18.4235 3.5765C19.3662 4.51994 20.1148 5.62828 20.6693 6.9015C21.2231 8.1755 21.5 9.54167 21.5 11V19.1667C21.5 19.8083 21.2717 20.3578 20.8152 20.8152C20.3578 21.2717 19.8083 21.5 19.1667 21.5H14.5V12.1667H19.1667V11C19.1667 8.725 18.3741 6.79494 16.789 5.20983C15.2047 3.6255 13.275 2.83333 11 2.83333C8.725 2.83333 6.79533 3.6255 5.211 5.20983C3.62589 6.79494 2.83333 8.725 2.83333 11V12.1667H7.5V21.5Z" fill="#000"/>
</svg>
