<svg width="22" height="26" viewBox="0 0 22 26" fill="none" xmlns="http://www.w3.org/2000/svg">
<path d="M11 25.2494C9.6 23.9271 7.99583 22.916 6.1875 22.216C4.37917 21.516 2.48333 21.166 0.5 21.166V8.33268C2.46389 8.33268 4.35 8.68735 6.15833 9.39668C7.96667 10.1068 9.58055 11.1327 11 12.4743C12.4194 11.1327 14.0333 10.1068 15.8417 9.39668C17.65 8.68735 19.5361 8.33268 21.5 8.33268V21.166C19.4972 21.166 17.5967 21.516 15.7985 22.216C13.9995 22.916 12.4 23.9271 11 25.2494ZM11 9.49935C9.71667 9.49935 8.61806 9.04241 7.70417 8.12852C6.79028 7.21463 6.33333 6.11602 6.33333 4.83268C6.33333 3.54935 6.79028 2.45074 7.70417 1.53685C8.61806 0.62296 9.71667 0.166016 11 0.166016C12.2833 0.166016 13.3819 0.62296 14.2958 1.53685C15.2097 2.45074 15.6667 3.54935 15.6667 4.83268C15.6667 6.11602 15.2097 7.21463 14.2958 8.12852C13.3819 9.04241 12.2833 9.49935 11 9.49935Z" fill="#000"/>
</svg>
