<svg width="22" height="25" viewBox="0 0 22 25" fill="none" xmlns="http://www.w3.org/2000/svg">
<path d="M2.83333 24.666C2.19167 24.666 1.64217 24.4377 1.18483 23.9812C0.728278 23.5238 0.5 22.9743 0.5 22.3327V8.33268C0.5 7.69102 0.728278 7.1419 1.18483 6.68535C1.64217 6.22802 2.19167 5.99935 2.83333 5.99935H5.16667C5.16667 4.38546 5.73561 3.00957 6.8735 1.87168C8.01061 0.734571 9.38611 0.166016 11 0.166016C12.6139 0.166016 13.9898 0.734571 15.1277 1.87168C16.2648 3.00957 16.8333 4.38546 16.8333 5.99935H19.1667C19.8083 5.99935 20.3578 6.22802 20.8152 6.68535C21.2717 7.1419 21.5 7.69102 21.5 8.33268V22.3327C21.5 22.9743 21.2717 23.5238 20.8152 23.9812C20.3578 24.4377 19.8083 24.666 19.1667 24.666H2.83333ZM11 15.3327C12.6139 15.3327 13.9898 14.7637 15.1277 13.6258C16.2648 12.4887 16.8333 11.1132 16.8333 9.49935H14.5C14.5 10.4716 14.1597 11.298 13.4792 11.9785C12.7986 12.6591 11.9722 12.9993 11 12.9993C10.0278 12.9993 9.20139 12.6591 8.52083 11.9785C7.84028 11.298 7.5 10.4716 7.5 9.49935H5.16667C5.16667 11.1132 5.73561 12.4887 6.8735 13.6258C8.01061 14.7637 9.38611 15.3327 11 15.3327ZM7.5 5.99935H14.5C14.5 5.02713 14.1597 4.20074 13.4792 3.52018C12.7986 2.83963 11.9722 2.49935 11 2.49935C10.0278 2.49935 9.20139 2.83963 8.52083 3.52018C7.84028 4.20074 7.5 5.02713 7.5 5.99935Z" fill="#000"/>
</svg>
