<svg width="24" height="20" viewBox="0 0 24 20" fill="none" xmlns="http://www.w3.org/2000/svg">
<path d="M2.66671 19.3327C2.02504 19.3327 1.47593 19.1044 1.01937 18.6478C0.562041 18.1905 0.333374 17.641 0.333374 16.9993V12.3327C0.975041 12.3327 1.52454 12.104 1.98187 11.6467C2.43843 11.1901 2.66671 10.641 2.66671 9.99935C2.66671 9.35768 2.43843 8.80818 1.98187 8.35085C1.52454 7.89429 0.975041 7.66602 0.333374 7.66602V2.99935C0.333374 2.35768 0.562041 1.80857 1.01937 1.35202C1.47593 0.894682 2.02504 0.666016 2.66671 0.666016H21.3334C21.975 0.666016 22.5245 0.894682 22.9819 1.35202C23.4384 1.80857 23.6667 2.35768 23.6667 2.99935V16.9993C23.6667 17.641 23.4384 18.1905 22.9819 18.6478C22.5245 19.1044 21.975 19.3327 21.3334 19.3327H2.66671ZM8.32504 14.2577L18.7084 11.516C19 11.4382 19.2186 11.2582 19.364 10.9758C19.5103 10.6943 19.5445 10.4077 19.4667 10.116C19.3889 9.82435 19.2186 9.6054 18.9557 9.45918C18.6936 9.31374 18.4167 9.2799 18.125 9.35768L15.2667 10.116L10.6 5.74102L8.96671 6.14935L11.7667 11.0493L8.96671 11.7493L7.50837 10.641L6.40004 10.9327L8.32504 14.2577Z" fill="#000"/>
</svg>
