<svg width="24" height="22" viewBox="0 0 24 22" fill="none" xmlns="http://www.w3.org/2000/svg">
<path d="M9.08337 15.0833L17.25 9.83333L9.08337 4.58333V15.0833ZM7.33337 21.5V19.1667H2.66671C2.02504 19.1667 1.47593 18.9384 1.01937 18.4818C0.562041 18.0245 0.333374 17.475 0.333374 16.8333V2.83333C0.333374 2.19167 0.562041 1.64217 1.01937 1.18483C1.47593 0.728278 2.02504 0.5 2.66671 0.5H21.3334C21.975 0.5 22.5245 0.728278 22.9819 1.18483C23.4384 1.64217 23.6667 2.19167 23.6667 2.83333V16.8333C23.6667 17.475 23.4384 18.0245 22.9819 18.4818C22.5245 18.9384 21.975 19.1667 21.3334 19.1667H16.6667V21.5H7.33337Z" fill="#000"/>
</svg>
