<svg width="20" height="20" viewBox="0 0 20 20" fill="none" xmlns="http://www.w3.org/2000/svg">
<g clip-path="url(#clip0_360_5739)">
<path d="M10 0C8.02219 0 6.08879 0.58649 4.4443 1.6853C2.79981 2.78412 1.51809 4.3459 0.761209 6.17317C0.00433286 8.00043 -0.193701 10.0111 0.192152 11.9509C0.578004 13.8907 1.53041 15.6725 2.92894 17.0711C4.32746 18.4696 6.10929 19.422 8.0491 19.8079C9.98891 20.1937 11.9996 19.9957 13.8268 19.2388C15.6541 18.4819 17.2159 17.2002 18.3147 15.5557C19.4135 13.9112 20 11.9778 20 10C19.9971 7.34872 18.9426 4.80684 17.0679 2.9321C15.1932 1.05736 12.6513 0.00286757 10 0V0ZM10 18.3333C8.35183 18.3333 6.74066 17.8446 5.37025 16.9289C3.99984 16.0132 2.93174 14.7117 2.30101 13.189C1.67028 11.6663 1.50525 9.99076 1.82679 8.37425C2.14834 6.75774 2.94201 5.27288 4.10745 4.10744C5.27289 2.94201 6.75774 2.14833 8.37425 1.82679C9.99076 1.50525 11.6663 1.67027 13.189 2.301C14.7118 2.93173 16.0132 3.99984 16.9289 5.37025C17.8446 6.74066 18.3333 8.35182 18.3333 10C18.3309 12.2094 17.4522 14.3276 15.8899 15.8899C14.3276 17.4522 12.2094 18.3309 10 18.3333Z" fill="#727272"/>
<path d="M10.0001 4.16602C9.77907 4.16602 9.56711 4.25381 9.41083 4.41009C9.25455 4.56637 9.16675 4.77834 9.16675 4.99935V11.666C9.16675 11.887 9.25455 12.099 9.41083 12.2553C9.56711 12.4116 9.77907 12.4993 10.0001 12.4993C10.2211 12.4993 10.4331 12.4116 10.5893 12.2553C10.7456 12.099 10.8334 11.887 10.8334 11.666V4.99935C10.8334 4.77834 10.7456 4.56637 10.5893 4.41009C10.4331 4.25381 10.2211 4.16602 10.0001 4.16602Z" fill="#727272"/>
<path d="M10.8334 14.9994C10.8334 14.5391 10.4603 14.166 10.0001 14.166C9.53985 14.166 9.16675 14.5391 9.16675 14.9994C9.16675 15.4596 9.53985 15.8327 10.0001 15.8327C10.4603 15.8327 10.8334 15.4596 10.8334 14.9994Z" fill="#727272"/>
</g>
<defs>
<clipPath id="clip0_360_5739">
<rect width="20" height="20" fill="white"/>
</clipPath>
</defs>
</svg>
