<svg width="18" height="18" viewBox="0 0 18 18" fill="none" xmlns="http://www.w3.org/2000/svg">
<g clip-path="url(#clip0_360_5731)">
<path d="M17.9849 1.51634V4.51634C17.9849 4.71525 17.9059 4.90601 17.7652 5.04667C17.6246 5.18732 17.4338 5.26634 17.2349 5.26634C17.036 5.26634 16.8452 5.18732 16.7046 5.04667C16.5639 4.90601 16.4849 4.71525 16.4849 4.51634V2.59409L12.5099 6.54809C12.3681 6.68436 12.1784 6.75946 11.9817 6.75722C11.785 6.75498 11.5971 6.67557 11.4584 6.5361C11.3198 6.39663 11.2414 6.20826 11.2403 6.01158C11.2392 5.8149 11.3153 5.62564 11.4524 5.48459L15.4424 1.51634H13.4849C13.286 1.51634 13.0952 1.43732 12.9546 1.29667C12.8139 1.15601 12.7349 0.965249 12.7349 0.766336C12.7349 0.567424 12.8139 0.376658 12.9546 0.236006C13.0952 0.0953539 13.286 0.0163363 13.4849 0.0163363H16.4849C16.8827 0.0163363 17.2643 0.174372 17.5456 0.455676C17.8269 0.736981 17.9849 1.11851 17.9849 1.51634ZM17.3062 12.5706C17.7408 13.0064 17.9849 13.5968 17.9849 14.2123C17.9849 14.8279 17.7408 15.4183 17.3062 15.8541L16.6222 16.6416C10.4789 22.5201 -4.46785 7.57784 1.32215 1.41659L2.1839 0.666586C2.62047 0.244164 3.20566 0.010382 3.81311 0.0157143C4.42057 0.0210465 5.00156 0.265066 5.43065 0.695086C5.45315 0.718336 6.8429 2.52434 6.8429 2.52434C7.25515 2.95742 7.4847 3.53269 7.48387 4.13061C7.48303 4.72854 7.25186 5.30316 6.8384 5.73509L5.96915 6.82784C6.44979 7.99567 7.15645 9.05702 8.04853 9.95091C8.94061 10.8448 10.0005 11.5536 11.1674 12.0366L12.2661 11.1628C12.698 10.7496 13.2725 10.5186 13.8702 10.5177C14.468 10.5169 15.0431 10.7463 15.4761 11.1583C15.4761 11.1583 17.2829 12.5481 17.3062 12.5706ZM16.2749 13.6611C16.2749 13.6611 14.4801 12.2796 14.4569 12.2571C14.3024 12.1039 14.0936 12.0179 13.876 12.0179C13.6584 12.0179 13.4497 12.1039 13.2951 12.2571C13.2749 12.2766 11.7621 13.4826 11.7621 13.4826C11.6602 13.5637 11.5389 13.6169 11.4101 13.6369C11.2814 13.6569 11.1496 13.643 11.0279 13.5966C9.51531 13.0341 8.14144 12.1528 6.99954 11.0124C5.85764 9.87208 4.97444 8.49941 4.4099 6.98759C4.36051 6.86468 4.34456 6.73088 4.36366 6.5998C4.38276 6.46872 4.43624 6.34504 4.51865 6.24134C4.51865 6.24134 5.7239 4.72859 5.74415 4.70834C5.89735 4.55383 5.98331 4.34505 5.98331 4.12746C5.98331 3.90987 5.89735 3.7011 5.74415 3.54659C5.72165 3.52409 4.34015 1.72859 4.34015 1.72859C4.18342 1.58787 3.9788 1.51243 3.76823 1.51773C3.55767 1.52303 3.3571 1.60866 3.20765 1.75709L2.3459 2.50709C-1.8871 7.59359 11.0676 19.8306 15.5249 15.6186L16.2089 14.8311C16.3702 14.6831 16.4673 14.478 16.4796 14.2595C16.4919 14.041 16.4185 13.8263 16.2749 13.6611Z" fill="#727272"/>
</g>
<defs>
<clipPath id="clip0_360_5731">
<rect width="18" height="18" fill="white"/>
</clipPath>
</defs>
</svg>
