<svg width="24" height="24" viewBox="0 0 24 24" fill="none" xmlns="http://www.w3.org/2000/svg">
<mask id="mask0_276_1791" style="mask-type:alpha" maskUnits="userSpaceOnUse" x="0" y="0" width="24" height="24">
<rect width="24" height="24" fill="#D9D9D9"/>
</mask>
<g mask="url(#mask0_276_1791)">
<path d="M20.95 9.95V5C20.95 4.46338 20.7597 4.00507 20.3777 3.62239C19.995 3.24034 19.5366 3.05 19 3.05H14.85H14.8133L14.8023 3.01499C14.6224 2.44262 14.2753 1.97209 13.759 1.60271C13.2424 1.2343 12.6566 1.05 12 1.05C11.3773 1.05 10.8039 1.23397 10.2788 1.60289L20.95 9.95ZM20.95 9.95H19.05V5V4.95H19H17H16.95V5V7.95H7.05V5V4.95H7H5H4.95V5V19V19.05H5H9.95V20.95H5C4.46338 20.95 4.00507 20.7597 3.62239 20.3777C3.24034 19.995 3.05 19.5366 3.05 19V5C3.05 4.46335 3.24034 4.00503 3.62239 3.62233C4.00507 3.24032 4.46338 3.05 5 3.05H9.175H9.2117L9.2227 3.01499C9.40251 2.44287 9.75377 1.97237 10.2787 1.60291L20.95 9.95ZM20.2646 18.9354L22.9293 21.6L21.6 22.9293L18.9354 20.2646L18.9079 20.2372L18.8746 20.257C18.5112 20.4717 18.1314 20.6408 17.7351 20.7643L17.7351 20.7643C17.3401 20.8881 16.9284 20.95 16.5 20.95C15.2631 20.95 14.2132 20.5178 13.3473 19.6526C12.4822 18.7868 12.05 17.7369 12.05 16.5C12.05 15.2631 12.4822 14.2132 13.3474 13.3473C14.2132 12.4822 15.2631 12.05 16.5 12.05C17.7369 12.05 18.7868 12.4822 19.6527 13.3474C20.5178 14.2132 20.95 15.2631 20.95 16.5C20.95 16.9284 20.8881 17.3401 20.7643 17.7351L20.7643 17.7351C20.6408 18.1314 20.4717 18.5112 20.257 18.8746L20.2372 18.9079L20.2646 18.9354ZM12.7484 3.25171L12.7483 3.25158C12.5465 3.05045 12.2959 2.95 12 2.95C11.7041 2.95 11.4538 3.05045 11.2526 3.25164C11.0508 3.45347 10.95 3.70405 10.95 4C10.95 4.29592 11.0508 4.54619 11.2526 4.74736C11.4538 4.94919 11.7041 5.05 12 5.05C12.296 5.05 12.5465 4.94918 12.7484 4.74736C12.9495 4.54616 13.05 4.2959 13.05 4C13.05 3.7041 12.9496 3.45354 12.7484 3.25171ZM16.5 19.05C17.2129 19.05 17.8174 18.8033 18.3104 18.3104C18.8033 17.8174 19.05 17.2129 19.05 16.5C19.05 15.7871 18.8033 15.1826 18.3104 14.6896C17.8174 14.1967 17.2129 13.95 16.5 13.95C15.7871 13.95 15.1826 14.1967 14.6896 14.6896C14.1967 15.1826 13.95 15.7871 13.95 16.5C13.95 17.2129 14.1967 17.8174 14.6896 18.3104C15.1826 18.8033 15.7871 19.05 16.5 19.05Z" fill="#727272" stroke="white" stroke-width="0.1"/>
</g>
</svg>
