<svg width="20" height="20" viewBox="0 0 20 20" fill="none" xmlns="http://www.w3.org/2000/svg">
<path d="M11.9 12.85C12.1692 12.85 12.4029 12.7512 12.6011 12.5536C12.7987 12.3554 12.8975 12.1217 12.8975 11.8525C12.8975 11.5833 12.7987 11.3496 12.6011 11.1514C12.4029 10.9538 12.1692 10.855 11.9 10.855C11.6308 10.855 11.3974 10.9538 11.1998 11.1514C11.0016 11.3496 10.9025 11.5833 10.9025 11.8525C10.9025 12.1217 11.0016 12.3554 11.1998 12.5536C11.3974 12.7512 11.6308 12.85 11.9 12.85ZM11.1875 9.81H12.6125C12.6125 9.35083 12.66 9.01422 12.755 8.80015C12.85 8.58672 13.0717 8.30583 13.42 7.9575C13.895 7.4825 14.2117 7.09838 14.37 6.80515C14.5283 6.51255 14.6075 6.16833 14.6075 5.7725C14.6075 5.06 14.358 4.47828 13.8589 4.02735C13.3605 3.57578 12.7075 3.35 11.9 3.35C11.2508 3.35 10.6849 3.53208 10.2024 3.89625C9.71912 4.26042 9.3825 4.74333 9.1925 5.345L10.475 5.8675C10.6175 5.47167 10.8116 5.17463 11.0574 4.9764C11.3025 4.7788 11.5833 4.68 11.9 4.68C12.28 4.68 12.5887 4.78672 12.8263 5.00015C13.0638 5.21422 13.1825 5.50333 13.1825 5.8675C13.1825 6.08917 13.1192 6.2988 12.9925 6.4964C12.8658 6.69463 12.6442 6.94417 12.3275 7.245C11.805 7.70417 11.4845 8.06422 11.3661 8.32515C11.247 8.58672 11.1875 9.08167 11.1875 9.81ZM6.2 15.7C5.6775 15.7 5.23037 15.5141 4.8586 15.1424C4.4862 14.7699 4.3 14.3225 4.3 13.8V2.4C4.3 1.8775 4.4862 1.43005 4.8586 1.05765C5.23037 0.685883 5.6775 0.5 6.2 0.5H17.6C18.1225 0.5 18.57 0.685883 18.9424 1.05765C19.3141 1.43005 19.5 1.8775 19.5 2.4V13.8C19.5 14.3225 19.3141 14.7699 18.9424 15.1424C18.57 15.5141 18.1225 15.7 17.6 15.7H6.2ZM6.2 13.8H17.6V2.4H6.2V13.8ZM2.4 19.5C1.8775 19.5 1.43037 19.3141 1.0586 18.9424C0.6862 18.57 0.5 18.1225 0.5 17.6V4.3H2.4V17.6H15.7V19.5H2.4Z" fill="#727272"/>
</svg>
