<svg width="22" height="22" viewBox="0 0 22 22" fill="none" xmlns="http://www.w3.org/2000/svg">
<g clip-path="url(#clip0_276_1802)">
<path d="M16.7584 2.37271L11.2765 0.544836C11.097 0.485055 10.903 0.485055 10.7235 0.544836L5.24163 2.37271C4.37004 2.66223 3.61186 3.21906 3.07481 3.96408C2.53776 4.7091 2.24916 5.60442 2.25 6.52284V11.0002C2.25 17.6178 10.3 21.2727 10.6448 21.425C10.7566 21.4746 10.8776 21.5003 11 21.5003C11.1224 21.5003 11.2434 21.4746 11.3553 21.425C11.7 21.2727 19.75 17.6178 19.75 11.0002V6.52284C19.7508 5.60442 19.4622 4.7091 18.9252 3.96408C18.3881 3.21906 17.63 2.66223 16.7584 2.37271ZM18 11.0002C18 15.7733 12.4709 18.9041 11 19.6531C9.52738 18.9067 4 15.7856 4 11.0002V6.52284C4.00005 5.97183 4.17349 5.43481 4.49575 4.98786C4.818 4.54091 5.27273 4.2067 5.7955 4.03259L11 2.29746L16.2045 4.03259C16.7273 4.2067 17.182 4.54091 17.5043 4.98786C17.8265 5.43481 18 5.97183 18 6.52284V11.0002Z" fill="#727272"/>
<path d="M13.8874 7.76244L10.2229 11.4375L8.25944 9.38995C8.18064 9.30379 8.0854 9.23428 7.97932 9.1855C7.87324 9.13672 7.75847 9.10967 7.64177 9.10593C7.52508 9.1022 7.40881 9.12185 7.29983 9.16374C7.19085 9.20563 7.09135 9.26891 7.0072 9.34985C6.92305 9.43079 6.85595 9.52775 6.80986 9.63502C6.76376 9.74229 6.7396 9.8577 6.73879 9.97445C6.73799 10.0912 6.76056 10.2069 6.80517 10.3148C6.84978 10.4227 6.91554 10.5206 6.99857 10.6027L9.01632 12.7027C9.16679 12.8652 9.34867 12.9956 9.55096 13.0858C9.75324 13.176 9.97172 13.2243 10.1932 13.2277H10.2221C10.4391 13.2284 10.6541 13.186 10.8547 13.103C11.0552 13.0199 11.2372 12.8978 11.3902 12.7438L15.1282 9.00582C15.2098 8.92435 15.2746 8.8276 15.3189 8.72109C15.3631 8.61458 15.386 8.5004 15.3861 8.38506C15.3862 8.26972 15.3636 8.15549 15.3196 8.04889C15.2756 7.94229 15.211 7.8454 15.1295 7.76376C15.048 7.68212 14.9513 7.61732 14.8448 7.57307C14.7383 7.52882 14.6241 7.50598 14.5087 7.50586C14.3934 7.50574 14.2792 7.52833 14.1726 7.57236C14.066 7.61638 13.9691 7.68098 13.8874 7.76244Z" fill="#727272"/>
</g>
<defs>
<clipPath id="clip0_276_1802">
<rect width="21" height="21" fill="white" transform="translate(0.5 0.5)"/>
</clipPath>
</defs>
</svg>
