<svg width="20" height="20" viewBox="0 0 20 20" fill="none" xmlns="http://www.w3.org/2000/svg">
<g clip-path="url(#clip0_360_5751)">
<path d="M12.4999 3.20759C12.5025 3.37331 12.5535 3.53465 12.6467 3.67175C12.7398 3.80885 12.871 3.91574 13.0241 3.97925C14.3926 4.5814 15.5499 5.57884 16.3474 6.8435C17.1449 8.10817 17.5463 9.58234 17.4999 11.0768C17.4676 13.0659 16.6465 14.9607 15.2172 16.3444C13.7878 17.7281 11.8674 18.4874 9.87823 18.4551C7.88911 18.4228 5.99428 17.6017 4.61057 16.1724C3.22686 14.743 2.46763 12.8225 2.4999 10.8334C2.50183 9.38027 2.92586 7.95898 3.72045 6.74232C4.51503 5.52566 5.64596 4.56603 6.97574 3.98009C7.12889 3.91619 7.26007 3.80898 7.35318 3.67161C7.44629 3.53424 7.49728 3.37268 7.4999 3.20675C7.50012 3.07026 7.4668 2.9358 7.40288 2.8152C7.33897 2.6946 7.2464 2.59155 7.13333 2.5151C7.02026 2.43865 6.89014 2.39114 6.75441 2.37675C6.61868 2.36236 6.48149 2.38154 6.3549 2.43259C4.42097 3.27104 2.83509 4.75037 1.86437 6.62141C0.893657 8.49245 0.597426 10.6409 1.02558 12.7048C1.45373 14.7687 2.5801 16.622 4.21496 17.9526C5.84983 19.2831 7.89329 20.0095 10.0012 20.0095C12.109 20.0095 14.1525 19.2831 15.7873 17.9526C17.4222 16.622 18.5486 14.7687 18.9767 12.7048C19.4049 10.6409 19.1086 8.49245 18.1379 6.62141C17.1672 4.75037 15.5813 3.27104 13.6474 2.43259C13.5206 2.38098 13.3831 2.3614 13.2469 2.37557C13.1108 2.38974 12.9803 2.43723 12.8668 2.51384C12.7534 2.59045 12.6606 2.69382 12.5966 2.81482C12.5326 2.93581 12.4994 3.07071 12.4999 3.20759Z" fill="#727272"/>
<path d="M10.8334 0.833333C10.8334 0.373096 10.4603 0 10.0001 0C9.53985 0 9.16675 0.373096 9.16675 0.833333V5.83333C9.16675 6.29357 9.53985 6.66667 10.0001 6.66667C10.4603 6.66667 10.8334 6.29357 10.8334 5.83333V0.833333Z" fill="#727272"/>
</g>
<defs>
<clipPath id="clip0_360_5751">
<rect width="20" height="20" fill="white"/>
</clipPath>
</defs>
</svg>
