<svg width="22" height="22" viewBox="0 0 22 22" fill="none" xmlns="http://www.w3.org/2000/svg">
<g clip-path="url(#clip0_360_5735)">
<path d="M5.7255 19.9975C5.53424 19.9974 5.34826 19.9347 5.19604 19.8189C5.04381 19.7031 4.93371 19.5406 4.8826 19.3563C4.83149 19.172 4.84217 18.976 4.91302 18.7984C4.98386 18.6207 5.11096 18.4712 5.27487 18.3726C8.375 16.5106 8.375 12.5118 8.375 10.1231C8.375 9.4269 8.65156 8.75922 9.14384 8.26694C9.63613 7.77465 10.3038 7.49809 11 7.49809C11.6962 7.49809 12.3639 7.77465 12.8562 8.26694C13.3484 8.75922 13.625 9.4269 13.625 10.1231C13.625 10.3552 13.5328 10.5777 13.3687 10.7418C13.2046 10.9059 12.9821 10.9981 12.75 10.9981C12.5179 10.9981 12.2954 10.9059 12.1313 10.7418C11.9672 10.5777 11.875 10.3552 11.875 10.1231C11.875 9.89103 11.7828 9.66847 11.6187 9.50437C11.4546 9.34028 11.2321 9.24809 11 9.24809C10.7679 9.24809 10.5454 9.34028 10.3813 9.50437C10.2172 9.66847 10.125 9.89103 10.125 10.1231C10.125 12.7017 10.125 17.5028 6.17525 19.8732C6.03934 19.9546 5.8839 19.9975 5.7255 19.9975ZM10.0681 21.2408C12.0649 19.2283 13.2312 16.3986 13.534 12.8225C13.5442 12.7078 13.5317 12.5921 13.4971 12.4823C13.4625 12.3724 13.4066 12.2705 13.3326 12.1823C13.2585 12.0941 13.1678 12.0214 13.0655 11.9683C12.9633 11.9152 12.8516 11.8829 12.7369 11.8731C12.6221 11.8613 12.506 11.8728 12.3957 11.9068C12.2854 11.9408 12.1831 11.9966 12.0949 12.071C12.0066 12.1454 11.9342 12.2368 11.882 12.3397C11.8298 12.4427 11.7989 12.5551 11.791 12.6702C11.5189 15.8701 10.5494 18.2702 8.8265 20.0036C8.66289 20.1682 8.5714 20.3911 8.57214 20.6233C8.57287 20.8554 8.66579 21.0777 8.83044 21.2413C8.99509 21.4049 9.21799 21.4964 9.4501 21.4956C9.68221 21.4949 9.90452 21.402 10.0681 21.2373V21.2408ZM14.6181 21.0781C15.1489 20.1962 15.5909 19.2638 15.9376 18.2947C16.0101 18.078 15.9949 17.8415 15.8953 17.6358C15.7957 17.4301 15.6195 17.2715 15.4045 17.194C15.1895 17.1165 14.9527 17.1262 14.7448 17.2211C14.5368 17.3159 14.3742 17.4883 14.2917 17.7015C13.9837 18.5608 13.5915 19.3876 13.121 20.1698C13.0614 20.2681 13.0217 20.3772 13.0042 20.4909C12.9867 20.6045 12.9918 20.7205 13.0191 20.8322C13.0465 20.9438 13.0955 21.049 13.1635 21.1418C13.2315 21.2345 13.3171 21.3129 13.4154 21.3725C13.614 21.493 13.8522 21.5296 14.0778 21.4744C14.1894 21.4471 14.2946 21.398 14.3874 21.33C14.4801 21.262 14.5585 21.1764 14.6181 21.0781ZM16.6875 15.5402C17.0117 13.7534 17.1582 11.9388 17.125 10.1231C17.1242 8.88348 16.7472 7.67329 16.044 6.65246C15.3408 5.63162 14.3443 4.84819 13.1864 4.4057C12.0284 3.96321 10.7635 3.88249 9.55866 4.17419C8.35386 4.4659 7.26592 5.11631 6.43863 6.03947C6.35805 6.12434 6.29533 6.22452 6.25416 6.33407C6.21299 6.44362 6.19422 6.56032 6.19895 6.67725C6.20368 6.79418 6.23182 6.90898 6.2817 7.01484C6.33159 7.12071 6.4022 7.21549 6.48937 7.29358C6.57653 7.37168 6.67848 7.43149 6.78917 7.46948C6.89986 7.50747 7.01704 7.52288 7.13379 7.51478C7.25054 7.50668 7.36448 7.47524 7.46886 7.42233C7.57325 7.36941 7.66595 7.2961 7.7415 7.20672C8.33237 6.54721 9.10945 6.08252 9.97004 5.87406C10.8306 5.6656 11.7342 5.72319 12.5614 6.03921C13.3886 6.35523 14.1004 6.9148 14.6027 7.64398C15.1051 8.37316 15.3744 9.23761 15.375 10.1231C15.4073 11.8265 15.2719 13.529 14.9707 15.206C14.9266 15.4336 14.9745 15.6695 15.1042 15.8618C15.2338 16.054 15.4344 16.187 15.662 16.2315C15.7176 16.2426 15.7742 16.2482 15.8309 16.2481C16.0335 16.2476 16.2298 16.1767 16.386 16.0476C16.5422 15.9185 16.6488 15.7392 16.6875 15.5402ZM6.625 10.1231C6.62475 9.87887 6.64494 9.63507 6.68537 9.39422C6.7115 9.27827 6.71373 9.15822 6.69193 9.04138C6.67013 8.92454 6.62476 8.81337 6.55858 8.71464C6.49239 8.61592 6.40679 8.53171 6.30699 8.46716C6.2072 8.40261 6.09529 8.35907 5.97811 8.33919C5.86093 8.31932 5.74093 8.32352 5.62543 8.35155C5.50993 8.37958 5.40135 8.43085 5.30631 8.50222C5.21127 8.5736 5.13178 8.66359 5.07266 8.7667C5.01355 8.86982 4.97607 8.98389 4.9625 9.10197C4.90474 9.43929 4.87547 9.78087 4.875 10.1231C4.875 14.1875 3.69725 16.2481 1.375 16.2481C1.14294 16.2481 0.920376 16.3403 0.756282 16.5044C0.592187 16.6685 0.5 16.891 0.5 17.1231C0.5 17.3552 0.592187 17.5777 0.756282 17.7418C0.920376 17.9059 1.14294 17.9981 1.375 17.9981C4.76038 17.9981 6.625 15.1981 6.625 10.1231ZM18.6125 20.9853C20.0525 17.5502 20.7388 13.8461 20.625 10.1231C20.629 8.66965 20.2998 7.23463 19.6625 5.92834C19.6122 5.82493 19.5421 5.73242 19.4561 5.65612C19.37 5.57981 19.2698 5.5212 19.1612 5.48362C19.0525 5.44604 18.9375 5.43023 18.8227 5.4371C18.7079 5.44397 18.5956 5.47338 18.4922 5.52365C18.3888 5.57393 18.2963 5.64407 18.22 5.7301C18.1437 5.81612 18.085 5.91632 18.0475 6.025C18.0099 6.13367 17.9941 6.24868 18.0009 6.36346C18.0078 6.47825 18.0372 6.59055 18.0875 6.69397C18.6082 7.76197 18.8775 8.93494 18.875 10.1231C18.9851 13.5958 18.353 17.052 17.0209 20.2608C16.9734 20.3656 16.9471 20.4787 16.9435 20.5937C16.9398 20.7086 16.9588 20.8232 16.9994 20.9308C17.0401 21.0384 17.1015 21.1369 17.1803 21.2208C17.259 21.3046 17.3535 21.3721 17.4584 21.4193C17.5717 21.4715 17.695 21.4983 17.8197 21.4981C17.9871 21.4974 18.1507 21.4487 18.2912 21.3578C18.4317 21.2669 18.5432 21.1377 18.6125 20.9853ZM3.125 12.7481V10.1231C3.12732 8.03522 3.95774 6.03353 5.43409 4.55718C6.91044 3.08084 8.91213 2.25041 11 2.24809C12.7048 2.24241 14.3645 2.79565 15.725 3.82309C15.9107 3.96233 16.144 4.02212 16.3737 3.9893C16.6035 3.95648 16.8108 3.83374 16.95 3.64809C17.0892 3.46244 17.149 3.22908 17.1162 2.99935C17.0834 2.76962 16.9607 2.56233 16.775 2.42309C15.112 1.16784 13.0836 0.491716 11 0.498092C8.44822 0.501102 6.00181 1.51613 4.19742 3.32051C2.39304 5.1249 1.37801 7.57131 1.375 10.1231V12.7481C1.375 12.9802 1.46719 13.2027 1.63128 13.3668C1.79538 13.5309 2.01794 13.6231 2.25 13.6231C2.48206 13.6231 2.70462 13.5309 2.86872 13.3668C3.03281 13.2027 3.125 12.9802 3.125 12.7481Z" fill="#727272"/>
</g>
<defs>
<clipPath id="clip0_360_5735">
<rect width="21" height="21" fill="white" transform="translate(0.5 0.5)"/>
</clipPath>
</defs>
</svg>
