<svg width="24" height="24" viewBox="0 0 24 24" fill="none" xmlns="http://www.w3.org/2000/svg">
<mask id="mask0_276_1796" style="mask-type:alpha" maskUnits="userSpaceOnUse" x="0" y="0" width="24" height="24">
<rect width="24" height="24" fill="#D9D9D9"/>
</mask>
<g mask="url(#mask0_276_1796)">
<path d="M20.413 21.413L20.3777 21.3776C19.995 21.7597 19.5366 21.95 19 21.95H5C4.46338 21.95 4.00507 21.7597 3.62239 21.3777C3.24034 20.995 3.05 20.5366 3.05 20V6C3.05 5.46335 3.24034 5.00503 3.62239 4.62233C4.00507 4.24032 4.46338 4.05 5 4.05H9.2H9.2351L9.24703 4.01698C9.46034 3.42628 9.81689 2.95123 10.3172 2.59056L10.3173 2.59054C10.8166 2.2301 11.377 2.05 12 2.05C12.623 2.05 13.1837 2.2301 13.6838 2.59056C14.1834 2.95122 14.5397 3.42627 14.753 4.01698L14.7649 4.05H14.8H19C19.5366 4.05 19.995 4.24034 20.3777 4.62239C20.7597 5.00507 20.95 5.46338 20.95 6V20C20.95 20.5366 20.7597 20.995 20.3776 21.3777L20.413 21.413ZM20.413 21.413C20.8043 21.021 21 20.55 21 20V6C21 5.45 20.8043 4.979 20.413 4.587H3.587C3.19567 4.979 3 5.45 3 6V20C3 20.55 3.19567 21.021 3.587 21.413C3.979 21.8043 4.45 22 5 22H19C19.55 22 20.021 21.8043 20.413 21.413ZM4.95 20V20.05H5H19H19.05V20V6V5.95H19H5H4.95V6V20ZM12.5734 3.92673L12.5733 3.92656C12.4211 3.7751 12.2287 3.7 12 3.7C11.7713 3.7 11.5792 3.7751 11.4276 3.92664C11.2755 4.07881 11.2 4.27123 11.2 4.5C11.2 4.72869 11.2754 4.92077 11.4276 5.07227C11.5791 5.22452 11.7712 5.3 12 5.3C12.2288 5.3 12.4212 5.22452 12.5734 5.07236C12.7249 4.92081 12.8 4.7287 12.8 4.5C12.8 4.2713 12.7249 4.07891 12.5734 3.92673ZM13.95 16.05V17.95H7.05V16.05H13.95ZM16.95 13.95H7.05V12.05H16.95V13.95ZM16.95 9.95H7.05V8.05H16.95V9.95Z" fill="#727272" stroke="white" stroke-width="0.1"/>
</g>
</svg>
