<svg width="22" height="22" viewBox="0 0 22 22" fill="none" xmlns="http://www.w3.org/2000/svg">
<g clip-path="url(#clip0_360_5743)">
<path d="M11 13.6256C10.7679 13.6256 10.5454 13.5334 10.3813 13.3694C10.2172 13.2053 10.125 12.9827 10.125 12.7506C10.1575 12.1789 10.3314 11.6241 10.6312 11.1362C10.931 10.6483 11.3473 10.2424 11.8426 9.95501C12.1663 9.77761 12.4254 9.50213 12.5826 9.16818C12.7399 8.83423 12.7871 8.45902 12.7176 8.09651C12.6502 7.75026 12.481 7.43203 12.2315 7.1826C11.9821 6.93317 11.6639 6.76391 11.3176 6.69651C11.0649 6.64986 10.8049 6.65946 10.5563 6.72463C10.3077 6.7898 10.0764 6.90893 9.87906 7.07357C9.68168 7.23821 9.52299 7.4443 9.41427 7.67721C9.30554 7.91011 9.24946 8.16411 9.25 8.42114C9.25 8.6532 9.15782 8.87576 8.99372 9.03985C8.82963 9.20395 8.60707 9.29614 8.375 9.29614C8.14294 9.29614 7.92038 9.20395 7.75629 9.03985C7.59219 8.87576 7.5 8.6532 7.5 8.42114C7.49991 7.90992 7.61181 7.40489 7.82783 6.94156C8.04385 6.47823 8.35875 6.06784 8.75038 5.73926C9.12466 5.42636 9.56022 5.19517 10.0291 5.06051C10.498 4.92585 10.9899 4.8907 11.4731 4.95731C11.9564 5.02393 12.4204 5.19083 12.8354 5.44733C13.2504 5.70382 13.6072 6.04423 13.8828 6.44672C14.1585 6.8492 14.347 7.30487 14.4362 7.78449C14.5254 8.26411 14.5134 8.75708 14.4009 9.23178C14.2883 9.70647 14.0778 10.1524 13.7828 10.5409C13.4878 10.9295 13.1149 11.2521 12.6879 11.488C12.4666 11.6243 12.2788 11.8085 12.1381 12.027C11.9974 12.2455 11.9075 12.4928 11.875 12.7506C11.875 12.9827 11.7828 13.2053 11.6187 13.3694C11.4546 13.5334 11.2321 13.6256 11 13.6256ZM11.6939 21.2906C13.5839 20.5311 19.75 17.5448 19.75 11.0383V6.51364C19.751 5.59402 19.4617 4.69755 18.9235 3.95191C18.3852 3.20627 17.6254 2.6495 16.7523 2.36089L11.2756 0.54526C11.0968 0.484913 10.9032 0.484913 10.7244 0.54526L5.24775 2.36089C4.3746 2.6495 3.61478 3.20627 3.07653 3.95191C2.53827 4.69755 2.24903 5.59402 2.25 6.51364V11.0383C2.25 16.78 8.37938 20.2923 10.2589 21.232C10.4861 21.3689 10.7378 21.4601 11 21.5006C11.2423 21.4744 11.4776 21.4031 11.6939 21.2906ZM16.201 4.02164C16.7247 4.19525 17.1804 4.52947 17.5034 4.97682C17.8263 5.42416 18.0001 5.9619 18 6.51364V11.0383C18 16.4484 12.6739 19.0104 11.0411 19.6666C9.38913 18.8406 4 15.7773 4 11.0383V6.51364C3.99993 5.9619 4.17371 5.42416 4.49665 4.97682C4.8196 4.52947 5.27529 4.19525 5.799 4.02164L11 2.29789L16.201 4.02164ZM11 15.3756C10.8269 15.3756 10.6578 15.427 10.5139 15.5231C10.37 15.6192 10.2578 15.7559 10.1916 15.9158C10.1254 16.0757 10.1081 16.2516 10.1418 16.4213C10.1756 16.5911 10.2589 16.747 10.3813 16.8694C10.5037 16.9917 10.6596 17.0751 10.8293 17.1088C10.999 17.1426 11.175 17.1253 11.3349 17.059C11.4947 16.9928 11.6314 16.8807 11.7275 16.7368C11.8237 16.5929 11.875 16.4237 11.875 16.2506C11.875 16.0186 11.7828 15.796 11.6187 15.6319C11.4546 15.4678 11.2321 15.3756 11 15.3756Z" fill="#727272"/>
</g>
<defs>
<clipPath id="clip0_360_5743">
<rect width="21" height="21" fill="white" transform="translate(0.5 0.5)"/>
</clipPath>
</defs>
</svg>
