<svg width="20" height="20" viewBox="0 0 20 20" fill="none" xmlns="http://www.w3.org/2000/svg">
<g clip-path="url(#clip0_360_5747)">
<path d="M16.4999 3.68189C15.5229 2.35806 14.2047 1.32444 12.6861 0.691413C11.1674 0.0583877 9.50537 -0.15027 7.87737 0.0877211C6.29391 0.312846 4.79691 0.948354 3.53508 1.93111C2.27325 2.91387 1.29052 4.20968 0.684497 5.68981C0.0784781 7.16993 -0.12973 8.78286 0.0805569 10.3684C0.290844 11.9539 0.912306 13.4567 1.88321 14.7277C2.2966 15.2975 2.51308 15.9864 2.49987 16.6902V17.4994C2.49987 18.1624 2.76327 18.7983 3.23211 19.2672C3.70095 19.736 4.33683 19.9994 4.99987 19.9994H10.8332C11.4962 19.9994 12.1321 19.736 12.601 19.2672C13.0698 18.7983 13.3332 18.1624 13.3332 17.4994H13.7449C14.7547 17.4969 15.7295 17.1288 16.4889 16.4632C17.2483 15.7975 17.741 14.8794 17.8757 13.8786L18.0582 12.4994H18.3332C18.5534 12.504 18.7722 12.4641 18.9765 12.382C19.1808 12.2999 19.3664 12.1773 19.5221 12.0216C19.6778 11.8659 19.8004 11.6803 19.8825 11.476C19.9646 11.2717 20.0045 11.0529 19.9999 10.8327C19.9999 9.64939 17.5565 4.98689 16.4999 3.68189ZM17.3274 10.8327C17.1253 10.8328 16.9302 10.9063 16.7783 11.0395C16.6264 11.1727 16.528 11.3566 16.5015 11.5569L16.2232 13.6611C16.1423 14.2614 15.8466 14.8121 15.391 15.2113C14.9354 15.6106 14.3506 15.8313 13.7449 15.8327H12.4999C12.2789 15.8327 12.0669 15.9205 11.9106 16.0768C11.7543 16.2331 11.6665 16.445 11.6665 16.6661V17.4994C11.6665 17.7204 11.5787 17.9324 11.4225 18.0886C11.2662 18.2449 11.0542 18.3327 10.8332 18.3327H4.99987C4.77886 18.3327 4.5669 18.2449 4.41062 18.0886C4.25434 17.9324 4.16654 17.7204 4.16654 17.4994V16.6902C4.17913 15.6203 3.84238 14.5755 3.20737 13.7144C2.41392 12.675 1.906 11.4463 1.73398 10.15C1.56197 8.85379 1.73185 7.5351 2.22676 6.32477C2.72167 5.11444 3.52442 4.05453 4.55538 3.25019C5.58634 2.44585 6.80968 1.92503 8.10404 1.73939C8.45747 1.69032 8.81388 1.66582 9.17071 1.66605C10.3417 1.66448 11.4965 1.93891 12.5416 2.46709C13.5866 2.99527 14.4925 3.76233 15.1857 4.70605C16.5018 6.59971 17.5603 8.66 18.3332 10.8327H17.3274ZM13.4999 6.67522C13.4454 6.58024 13.3727 6.49694 13.2859 6.43008C13.1992 6.36321 13.1002 6.3141 12.9944 6.28554C12.8887 6.25698 12.7784 6.24954 12.6698 6.26364C12.5612 6.27774 12.4565 6.31311 12.3615 6.36772L11.5432 6.83772C11.1188 6.40754 10.5853 6.10102 9.99987 5.95105V4.99939C9.99987 4.77837 9.91208 4.56641 9.7558 4.41013C9.59951 4.25385 9.38755 4.16605 9.16654 4.16605C8.94553 4.16605 8.73356 4.25385 8.57728 4.41013C8.421 4.56641 8.33321 4.77837 8.33321 4.99939V5.95105C7.74691 6.10061 7.21248 6.40715 6.78737 6.83772L5.96904 6.36772C5.87416 6.313 5.76943 6.27751 5.66083 6.26327C5.55224 6.24902 5.4419 6.25631 5.33612 6.28471C5.23034 6.31311 5.13118 6.36206 5.04432 6.42878C4.95746 6.4955 4.88459 6.57867 4.82987 6.67355C4.77516 6.76843 4.73966 6.87316 4.72542 6.98176C4.71118 7.09036 4.71846 7.2007 4.74686 7.30648C4.77526 7.41226 4.82422 7.51141 4.89093 7.59827C4.95765 7.68513 5.04083 7.758 5.13571 7.81272L5.96321 8.28855C5.88036 8.57382 5.83662 8.86902 5.83321 9.16605C5.83744 9.4632 5.88201 9.7584 5.96571 10.0436L5.13821 10.5194C4.94659 10.6299 4.80672 10.812 4.74936 11.0256C4.69201 11.2393 4.72187 11.4669 4.83237 11.6586C4.94288 11.8502 5.12498 11.99 5.33862 12.0474C5.55225 12.1048 5.77992 12.0749 5.97154 11.9644L6.78987 11.4944C7.21429 11.9246 7.74781 12.2311 8.33321 12.3811V13.3327C8.33321 13.5537 8.421 13.7657 8.57728 13.922C8.73356 14.0783 8.94553 14.1661 9.16654 14.1661C9.38755 14.1661 9.59951 14.0783 9.7558 13.922C9.91208 13.7657 9.99987 13.5537 9.99987 13.3327V12.3811C10.5862 12.2315 11.1206 11.925 11.5457 11.4944L12.364 11.9644C12.4589 12.0191 12.5636 12.0546 12.6722 12.0688C12.7808 12.0831 12.8912 12.0758 12.997 12.0474C13.1027 12.019 13.2019 11.97 13.2888 11.9033C13.3756 11.8366 13.4485 11.7534 13.5032 11.6586C13.5579 11.5637 13.5934 11.4589 13.6077 11.3503C13.6219 11.2418 13.6146 11.1314 13.5862 11.0256C13.5578 10.9198 13.5089 10.8207 13.4421 10.7338C13.3754 10.647 13.2923 10.5741 13.1974 10.5194L12.3699 10.0436C12.4527 9.75829 12.4965 9.46309 12.4999 9.16605C12.4956 8.8689 12.4511 8.5737 12.3674 8.28855L13.1949 7.81272C13.386 7.70221 13.5255 7.52035 13.5827 7.30708C13.6399 7.0938 13.6101 6.86654 13.4999 6.67522ZM9.16654 10.8327C8.8369 10.8327 8.51467 10.735 8.24059 10.5518C7.96651 10.3687 7.75289 10.1084 7.62674 9.80386C7.50059 9.49932 7.46759 9.16421 7.5319 8.8409C7.59621 8.5176 7.75494 8.22063 7.98803 7.98754C8.22112 7.75446 8.51809 7.59572 8.84139 7.53141C9.16469 7.4671 9.4998 7.50011 9.80435 7.62626C10.1089 7.7524 10.3692 7.96602 10.5523 8.2401C10.7355 8.51419 10.8332 8.83642 10.8332 9.16605C10.8332 9.60808 10.6576 10.032 10.3451 10.3446C10.0325 10.6571 9.60857 10.8327 9.16654 10.8327Z" fill="#727272"/>
</g>
<defs>
<clipPath id="clip0_360_5747">
<rect width="20" height="20" fill="white"/>
</clipPath>
</defs>
</svg>
