<svg width="20" height="20" viewBox="0 0 20 20" fill="none" xmlns="http://www.w3.org/2000/svg">
<g clip-path="url(#clip0_276_1826)">
<path d="M18.7083 9.20833H15.4783C15.4167 8.77216 15.3026 8.34501 15.1387 7.93612L17.9309 6.31796C18.0242 6.26774 18.1065 6.1993 18.1729 6.11669C18.2393 6.03408 18.2884 5.93898 18.3173 5.83703C18.3463 5.73509 18.3545 5.62837 18.3414 5.52321C18.3283 5.41804 18.2943 5.31657 18.2413 5.22481C18.1882 5.13305 18.1174 5.05287 18.0328 4.98901C17.9482 4.92516 17.8517 4.87893 17.7489 4.85308C17.6461 4.82723 17.5392 4.82227 17.4345 4.8385C17.3298 4.85474 17.2294 4.89183 17.1392 4.94758L14.3447 6.56813C14.0775 6.23065 13.7723 5.92515 13.435 5.65771L15.0548 2.86233C15.1523 2.68108 15.1754 2.46897 15.1192 2.27097C15.063 2.07296 14.9319 1.90464 14.7537 1.80168C14.5754 1.69872 14.3641 1.66922 14.1645 1.71943C13.9649 1.76965 13.7927 1.89563 13.6844 2.07067L12.0639 4.86129C11.6551 4.6972 11.2279 4.58316 10.7917 4.52167V1.29167C10.7917 1.0817 10.7083 0.88034 10.5598 0.731874C10.4113 0.583408 10.21 0.5 10 0.5C9.79004 0.5 9.58867 0.583408 9.44021 0.731874C9.29174 0.88034 9.20833 1.0817 9.20833 1.29167V4.52167C8.77212 4.58316 8.34495 4.6972 7.93612 4.86129L6.31796 2.06908C6.20967 1.89404 6.03746 1.76806 5.83786 1.71785C5.63825 1.66763 5.42693 1.69713 5.2487 1.80009C5.07048 1.90305 4.93936 2.07138 4.88314 2.26938C4.82693 2.46739 4.85004 2.6795 4.94758 2.86075L6.56733 5.65771C6.23009 5.92515 5.92486 6.23065 5.65771 6.56813L2.86313 4.94758C2.773 4.89183 2.67261 4.85474 2.56788 4.8385C2.46316 4.82227 2.35625 4.82723 2.25348 4.85308C2.15071 4.87893 2.05417 4.92516 1.9696 4.98901C1.88502 5.05287 1.81413 5.13305 1.76112 5.22481C1.70811 5.31657 1.67406 5.41804 1.66099 5.52321C1.64792 5.62837 1.6561 5.73509 1.68504 5.83703C1.71399 5.93898 1.7631 6.03408 1.82948 6.11669C1.89585 6.1993 1.97814 6.26774 2.07146 6.31796L4.86129 7.93612C4.69737 8.34501 4.58334 8.77216 4.52167 9.20833H1.29167C1.0817 9.20833 0.88034 9.29174 0.731874 9.44021C0.583408 9.58867 0.5 9.79004 0.5 10C0.5 10.21 0.583408 10.4113 0.731874 10.5598C0.88034 10.7083 1.0817 10.7917 1.29167 10.7917H4.52167C4.58334 11.2278 4.69737 11.655 4.86129 12.0639L2.06908 13.682C1.97576 13.7323 1.89348 13.8007 1.8271 13.8833C1.76073 13.9659 1.71161 14.061 1.68267 14.163C1.65373 14.2649 1.64555 14.3716 1.65862 14.4768C1.67168 14.582 1.70573 14.6834 1.75874 14.7752C1.81175 14.8669 1.88265 14.9471 1.96722 15.011C2.0518 15.0748 2.14833 15.1211 2.2511 15.1469C2.35387 15.1728 2.46079 15.1777 2.56551 15.1615C2.67023 15.1453 2.77063 15.1082 2.86075 15.0524L5.65533 13.4319C5.92249 13.7694 6.22772 14.0748 6.56496 14.3423L4.94758 17.1377C4.85004 17.3189 4.82693 17.531 4.88314 17.729C4.93936 17.927 5.07048 18.0954 5.2487 18.1983C5.42693 18.3013 5.63825 18.3308 5.83786 18.2806C6.03746 18.2304 6.20967 18.1044 6.31796 17.9293L7.93612 15.1371C8.34499 15.3014 8.77213 15.416 9.20833 15.4783V18.7083C9.20833 18.9183 9.29174 19.1197 9.44021 19.2681C9.58867 19.4166 9.79004 19.5 10 19.5C10.21 19.5 10.4113 19.4166 10.5598 19.2681C10.7083 19.1197 10.7917 18.9183 10.7917 18.7083V15.4783C11.2278 15.4165 11.6549 15.3025 12.0639 15.1387L13.682 17.9309C13.7903 18.106 13.9625 18.2319 14.1621 18.2822C14.3618 18.3324 14.5731 18.3029 14.7513 18.1999C14.9295 18.0969 15.0606 17.9286 15.1169 17.7306C15.1731 17.5326 15.15 17.3205 15.0524 17.1392L13.4327 14.3439C13.7699 14.0764 14.0751 13.7709 14.3423 13.4335L17.1369 15.054C17.227 15.1098 17.3274 15.1468 17.4321 15.1631C17.5368 15.1793 17.6438 15.1744 17.7465 15.1485C17.8493 15.1226 17.9458 15.0764 18.0304 15.0126C18.115 14.9487 18.1859 14.8685 18.2389 14.7768C18.2919 14.685 18.3259 14.5835 18.339 14.4784C18.3521 14.3732 18.3439 14.2665 18.315 14.1645C18.286 14.0626 18.2369 13.9675 18.1705 13.8849C18.1041 13.8023 18.0219 13.7338 17.9285 13.6836L15.1363 12.0655C15.3012 11.6562 15.416 11.2285 15.4783 10.7917H18.7083C18.9183 10.7917 19.1197 10.7083 19.2681 10.5598C19.4166 10.4113 19.5 10.21 19.5 10C19.5 9.79004 19.4166 9.58867 19.2681 9.44021C19.1197 9.29174 18.9183 9.20833 18.7083 9.20833ZM10 13.9583C4.76867 13.7921 4.77025 6.20713 10 6.04167C15.2313 6.20792 15.2298 13.7929 10 13.9583Z" fill="#727272"/>
</g>
<defs>
<clipPath id="clip0_276_1826">
<rect width="19" height="19" fill="white" transform="translate(0.5 0.5)"/>
</clipPath>
</defs>
</svg>
