<svg width="20" height="20" viewBox="0 0 20 20" fill="none" xmlns="http://www.w3.org/2000/svg">
<g clip-path="url(#clip0_276_1822)">
<path d="M18.3007 9.18899L10.0001 14.1702L1.69948 9.18899C1.51943 9.08097 1.30385 9.04889 1.10015 9.09981C0.896459 9.15074 0.721336 9.28049 0.61331 9.46053C0.505284 9.64058 0.473204 9.85616 0.524128 10.0599C0.575052 10.2636 0.704808 10.4387 0.884851 10.5467L9.59319 15.7717C9.71632 15.8457 9.85725 15.8848 10.0009 15.8848C10.1445 15.8848 10.2855 15.8457 10.4086 15.7717L19.1169 10.5467C19.297 10.4387 19.4267 10.2636 19.4777 10.0599C19.5286 9.85616 19.4965 9.64058 19.3885 9.46053C19.2805 9.28049 19.1053 9.15074 18.9016 9.09981C18.6979 9.04889 18.4824 9.08097 18.3023 9.18899H18.3007Z" fill="#727272"/>
<path d="M18.3007 12.8042L10.0001 17.7846L1.69947 12.8042C1.61033 12.7507 1.51151 12.7153 1.40868 12.7C1.30585 12.6847 1.20101 12.6898 1.10015 12.715C0.999293 12.7403 0.904387 12.7851 0.820854 12.847C0.737321 12.9089 0.666796 12.9866 0.613307 13.0758C0.559818 13.1649 0.524412 13.2637 0.50911 13.3666C0.493808 13.4694 0.498911 13.5742 0.524126 13.6751C0.57505 13.8788 0.704806 14.0539 0.884849 14.1619L9.59318 19.387C9.71631 19.4609 9.85725 19.5 10.0009 19.5C10.1445 19.5 10.2855 19.4609 10.4086 19.387L19.1169 14.1619C19.297 14.0539 19.4267 13.8788 19.4777 13.6751C19.5286 13.4714 19.4965 13.2558 19.3885 13.0758C19.2805 12.8957 19.1053 12.766 18.9016 12.715C18.6979 12.6641 18.4824 12.6962 18.3023 12.8042H18.3007Z" fill="#727272"/>
<path d="M9.99999 12.1949C9.57295 12.1947 9.15401 12.0784 8.78795 11.8584L0.883952 7.11556C0.766902 7.04517 0.670052 6.94571 0.602816 6.82682C0.53558 6.70794 0.500244 6.57368 0.500244 6.4371C0.500244 6.30052 0.53558 6.16626 0.602816 6.04737C0.670052 5.92849 0.766902 5.82902 0.883952 5.75864L8.78795 1.01576C9.154 0.795861 9.57297 0.679688 9.99999 0.679688C10.427 0.679688 10.846 0.795861 11.212 1.01576L19.116 5.75864C19.2331 5.82902 19.3299 5.92849 19.3972 6.04737C19.4644 6.16626 19.4997 6.30052 19.4997 6.4371C19.4997 6.57368 19.4644 6.70794 19.3972 6.82682C19.3299 6.94571 19.2331 7.04517 19.116 7.11556L11.212 11.8584C10.846 12.0784 10.427 12.1947 9.99999 12.1949ZM2.83066 6.4371L9.60416 10.5007C9.72379 10.5723 9.86059 10.6101 9.99999 10.6101C10.1394 10.6101 10.2762 10.5723 10.3958 10.5007L17.1693 6.4371L10.3958 2.37347C10.2762 2.30191 10.1394 2.26412 9.99999 2.26412C9.86059 2.26412 9.72379 2.30191 9.60416 2.37347L2.83066 6.4371Z" fill="#727272"/>
</g>
<defs>
<clipPath id="clip0_276_1822">
<rect width="19" height="19" fill="white" transform="translate(0.5 0.5)"/>
</clipPath>
</defs>
</svg>
