<svg width="22" height="22" viewBox="0 0 22 22" fill="none" xmlns="http://www.w3.org/2000/svg">
<g clip-path="url(#clip0_276_1806)">
<path d="M14.5 0.5H7.5C6.3401 0.501389 5.22811 0.962772 4.40794 1.78294C3.58777 2.60311 3.12639 3.7151 3.125 4.875V20.625C3.12512 20.7842 3.16865 20.9403 3.2509 21.0765C3.33314 21.2128 3.45099 21.324 3.59176 21.3983C3.73252 21.4725 3.89088 21.507 4.04977 21.4979C4.20866 21.4889 4.36208 21.4366 4.4935 21.3469L6.33625 20.0878L8.179 21.3469C8.32459 21.4466 8.49692 21.4999 8.67337 21.4999C8.84983 21.4999 9.02216 21.4466 9.16775 21.3469L11.0052 20.0878L12.8427 21.3469C12.9884 21.4468 13.1609 21.5002 13.3376 21.5002C13.5142 21.5002 13.6867 21.4468 13.8324 21.3469L15.6699 20.0886L17.5074 21.346C17.6387 21.4355 17.792 21.4875 17.9507 21.4965C18.1093 21.5054 18.2675 21.471 18.4081 21.3969C18.5487 21.3228 18.6664 21.2117 18.7487 21.0758C18.8309 20.9398 18.8746 20.7839 18.875 20.625V4.875C18.8736 3.7151 18.4122 2.60311 17.5921 1.78294C16.7719 0.962772 15.6599 0.501389 14.5 0.5V0.5ZM17.125 18.9625L16.1625 18.3045C16.0167 18.2044 15.8441 18.1509 15.6672 18.1509C15.4904 18.1509 15.3178 18.2044 15.172 18.3045L13.3345 19.5636L11.497 18.3045C11.3513 18.2046 11.1788 18.1512 11.0022 18.1512C10.8256 18.1512 10.6531 18.2046 10.5074 18.3045L8.66987 19.5636L6.83237 18.3045C6.68687 18.205 6.51471 18.1518 6.33844 18.1518C6.16216 18.1518 5.99 18.205 5.8445 18.3045L4.875 18.9625V4.875C4.875 4.17881 5.15156 3.51113 5.64384 3.01884C6.13613 2.52656 6.80381 2.25 7.5 2.25H14.5C15.1962 2.25 15.8639 2.52656 16.3562 3.01884C16.8484 3.51113 17.125 4.17881 17.125 4.875V18.9625Z" fill="#727272"/>
<path d="M14.4998 7.5H7.49976C7.01651 7.5 6.62476 7.89175 6.62476 8.375C6.62476 8.85825 7.01651 9.25 7.49976 9.25H14.4998C14.983 9.25 15.3748 8.85825 15.3748 8.375C15.3748 7.89175 14.983 7.5 14.4998 7.5Z" fill="#727272"/>
<path d="M12.7497 11H7.49975C7.01651 11 6.62476 11.3918 6.62476 11.875C6.62476 12.3583 7.01651 12.75 7.49975 12.75H12.7497C13.233 12.75 13.6247 12.3583 13.6247 11.875C13.6247 11.3918 13.233 11 12.7497 11Z" fill="#727272"/>
</g>
<defs>
<clipPath id="clip0_276_1806">
<rect width="21" height="21" fill="white" transform="translate(0.5 0.5)"/>
</clipPath>
</defs>
</svg>
