<svg width="22" height="22" viewBox="0 0 22 22" fill="none" xmlns="http://www.w3.org/2000/svg">
<g clip-path="url(#clip0_276_1818)">
<path d="M16.4947 2.09568C15.3758 1.0961 14.0056 0.420551 12.5314 0.141744C11.0571 -0.137062 9.5348 -0.00857176 8.12817 0.513387C6.72154 1.03535 5.48388 1.93101 4.54838 3.10399C3.61288 4.27697 3.01496 5.68286 2.81897 7.17035C2.64295 8.47463 2.78372 9.80211 3.22938 11.0405C3.67503 12.2788 4.41245 13.3916 5.37922 14.2846C5.97707 14.8089 6.45949 15.4516 6.79591 16.1721C7.13233 16.8926 7.31541 17.6751 7.33355 18.4701V18.6177C7.33452 19.5145 7.6912 20.3743 8.32534 21.0084C8.95947 21.6425 9.81926 21.9992 10.7161 22.0002H11.2844C12.1812 21.9992 13.041 21.6425 13.6751 21.0084C14.3092 20.3743 14.6659 19.5145 14.6669 18.6177V18.1144C14.6806 17.4118 14.846 16.7204 15.1516 16.0875C15.4573 15.4547 15.896 14.8953 16.4379 14.4478C17.3166 13.6782 18.0217 12.7306 18.5066 11.668C18.9915 10.6053 19.245 9.45168 19.2504 8.28362C19.2557 7.11555 19.0128 5.95968 18.5378 4.89258C18.0627 3.82547 17.3663 2.8715 16.4947 2.09385V2.09568ZM11.2844 20.1668H10.7161C10.3053 20.1664 9.91158 20.003 9.62116 19.7126C9.33074 19.4221 9.16737 19.0284 9.16689 18.6177C9.16689 18.6177 9.16047 18.3793 9.15955 18.3335H12.8336V18.6177C12.8331 19.0284 12.6697 19.4221 12.3793 19.7126C12.0889 20.003 11.6951 20.1664 11.2844 20.1668ZM15.2261 13.0709C14.1824 13.9762 13.4286 15.169 13.0591 16.5002H11.9169V9.91485C12.4512 9.72594 12.9141 9.37655 13.2423 8.91449C13.5705 8.45243 13.7479 7.90025 13.7502 7.33352C13.7502 7.0904 13.6536 6.85724 13.4817 6.68533C13.3098 6.51343 13.0767 6.41685 12.8336 6.41685C12.5904 6.41685 12.3573 6.51343 12.1854 6.68533C12.0135 6.85724 11.9169 7.0904 11.9169 7.33352C11.9169 7.57663 11.8203 7.80979 11.6484 7.9817C11.4765 8.1536 11.2433 8.25018 11.0002 8.25018C10.7571 8.25018 10.5239 8.1536 10.352 7.9817C10.1801 7.80979 10.0836 7.57663 10.0836 7.33352C10.0836 7.0904 9.98698 6.85724 9.81507 6.68533C9.64316 6.51343 9.41 6.41685 9.16689 6.41685C8.92377 6.41685 8.69061 6.51343 8.5187 6.68533C8.3468 6.85724 8.25022 7.0904 8.25022 7.33352C8.25257 7.90025 8.42996 8.45243 8.75813 8.91449C9.0863 9.37655 9.54922 9.72594 10.0836 9.91485V16.5002H8.87172C8.45829 15.1336 7.68291 13.9044 6.62772 12.9426C5.73209 12.1081 5.09388 11.0347 4.7884 9.84929C4.48292 8.66385 4.52291 7.41576 4.90366 6.2523C5.28441 5.08885 5.99003 4.05859 6.93725 3.2831C7.88446 2.50761 9.03375 2.01926 10.2495 1.87568C10.5015 1.84755 10.7549 1.83347 11.0085 1.83352C12.5829 1.82884 14.1028 2.40975 15.2728 3.46335C15.9509 4.06798 16.4926 4.80983 16.8623 5.63972C17.2319 6.46961 17.4209 7.36859 17.4167 8.27706C17.4125 9.18553 17.2153 10.0827 16.8381 10.9092C16.4609 11.7357 15.9124 12.4725 15.2288 13.0709H15.2261Z" fill="#727272"/>
</g>
<defs>
<clipPath id="clip0_276_1818">
<rect width="22" height="22" fill="white"/>
</clipPath>
</defs>
</svg>
