<svg width="20" height="20" viewBox="0 0 20 20" fill="none" xmlns="http://www.w3.org/2000/svg">
<g clip-path="url(#clip0_276_1810)">
<path d="M15.0002 20H5.00016C3.8955 19.9987 2.83646 19.5593 2.05535 18.7782C1.27423 17.997 0.834819 16.938 0.833496 15.8333V4.16667C0.834819 3.062 1.27423 2.00296 2.05535 1.22185C2.83646 0.440735 3.8955 0.00132321 5.00016 0L15.0002 0C16.1048 0.00132321 17.1639 0.440735 17.945 1.22185C18.7261 2.00296 19.1655 3.062 19.1668 4.16667V15.8333C19.1655 16.938 18.7261 17.997 17.945 18.7782C17.1639 19.5593 16.1048 19.9987 15.0002 20V20ZM5.00016 1.66667C4.33712 1.66667 3.70124 1.93006 3.2324 2.3989C2.76355 2.86774 2.50016 3.50363 2.50016 4.16667V15.8333C2.50016 16.4964 2.76355 17.1323 3.2324 17.6011C3.70124 18.0699 4.33712 18.3333 5.00016 18.3333H15.0002C15.6632 18.3333 16.2991 18.0699 16.7679 17.6011C17.2368 17.1323 17.5002 16.4964 17.5002 15.8333V4.16667C17.5002 3.50363 17.2368 2.86774 16.7679 2.3989C16.2991 1.93006 15.6632 1.66667 15.0002 1.66667H5.00016ZM13.3335 8.33333H6.66683C6.00379 8.33333 5.3679 8.06994 4.89906 7.6011C4.43022 7.13226 4.16683 6.49637 4.16683 5.83333C4.16683 5.17029 4.43022 4.53441 4.89906 4.06557C5.3679 3.59673 6.00379 3.33333 6.66683 3.33333H13.3335C13.9965 3.33333 14.6324 3.59673 15.1013 4.06557C15.5701 4.53441 15.8335 5.17029 15.8335 5.83333C15.8335 6.49637 15.5701 7.13226 15.1013 7.6011C14.6324 8.06994 13.9965 8.33333 13.3335 8.33333V8.33333ZM6.66683 5C6.44582 5 6.23385 5.0878 6.07757 5.24408C5.92129 5.40036 5.8335 5.61232 5.8335 5.83333C5.8335 6.05435 5.92129 6.26631 6.07757 6.42259C6.23385 6.57887 6.44582 6.66667 6.66683 6.66667H13.3335C13.5545 6.66667 13.7665 6.57887 13.9228 6.42259C14.079 6.26631 14.1668 6.05435 14.1668 5.83333C14.1668 5.61232 14.079 5.40036 13.9228 5.24408C13.7665 5.0878 13.5545 5 13.3335 5H6.66683ZM5.00016 10.8333C4.83534 10.8333 4.67423 10.8822 4.53719 10.9738C4.40015 11.0653 4.29334 11.1955 4.23026 11.3478C4.16719 11.5 4.15069 11.6676 4.18284 11.8292C4.215 11.9909 4.29436 12.1394 4.41091 12.2559C4.52745 12.3725 4.67594 12.4518 4.83759 12.484C4.99924 12.5161 5.16679 12.4996 5.31907 12.4366C5.47134 12.3735 5.60149 12.2667 5.69305 12.1296C5.78462 11.9926 5.8335 11.8315 5.8335 11.6667C5.8335 11.4457 5.7457 11.2337 5.58942 11.0774C5.43314 10.9211 5.22118 10.8333 5.00016 10.8333ZM8.3335 10.8333C8.16868 10.8333 8.00756 10.8822 7.87052 10.9738C7.73348 11.0653 7.62667 11.1955 7.5636 11.3478C7.50052 11.5 7.48402 11.6676 7.51617 11.8292C7.54833 11.9909 7.6277 12.1394 7.74424 12.2559C7.86078 12.3725 8.00927 12.4518 8.17092 12.484C8.33257 12.5161 8.50013 12.4996 8.6524 12.4366C8.80467 12.3735 8.93482 12.2667 9.02639 12.1296C9.11795 11.9926 9.16683 11.8315 9.16683 11.6667C9.16683 11.4457 9.07903 11.2337 8.92275 11.0774C8.76647 10.9211 8.55451 10.8333 8.3335 10.8333ZM11.6668 10.8333C11.502 10.8333 11.3409 10.8822 11.2039 10.9738C11.0668 11.0653 10.96 11.1955 10.8969 11.3478C10.8339 11.5 10.8174 11.6676 10.8495 11.8292C10.8817 11.9909 10.961 12.1394 11.0776 12.2559C11.1941 12.3725 11.3426 12.4518 11.5043 12.484C11.6659 12.5161 11.8335 12.4996 11.9857 12.4366C12.138 12.3735 12.2682 12.2667 12.3597 12.1296C12.4513 11.9926 12.5002 11.8315 12.5002 11.6667C12.5002 11.4457 12.4124 11.2337 12.2561 11.0774C12.0998 10.9211 11.8878 10.8333 11.6668 10.8333ZM5.00016 14.1667C4.83534 14.1667 4.67423 14.2155 4.53719 14.3071C4.40015 14.3987 4.29334 14.5288 4.23026 14.6811C4.16719 14.8334 4.15069 15.0009 4.18284 15.1626C4.215 15.3242 4.29436 15.4727 4.41091 15.5893C4.52745 15.7058 4.67594 15.7852 4.83759 15.8173C4.99924 15.8495 5.16679 15.833 5.31907 15.7699C5.47134 15.7068 5.60149 15.6 5.69305 15.463C5.78462 15.3259 5.8335 15.1648 5.8335 15C5.8335 14.779 5.7457 14.567 5.58942 14.4107C5.43314 14.2545 5.22118 14.1667 5.00016 14.1667ZM8.3335 14.1667C8.16868 14.1667 8.00756 14.2155 7.87052 14.3071C7.73348 14.3987 7.62667 14.5288 7.5636 14.6811C7.50052 14.8334 7.48402 15.0009 7.51617 15.1626C7.54833 15.3242 7.6277 15.4727 7.74424 15.5893C7.86078 15.7058 8.00927 15.7852 8.17092 15.8173C8.33257 15.8495 8.50013 15.833 8.6524 15.7699C8.80467 15.7068 8.93482 15.6 9.02639 15.463C9.11795 15.3259 9.16683 15.1648 9.16683 15C9.16683 14.779 9.07903 14.567 8.92275 14.4107C8.76647 14.2545 8.55451 14.1667 8.3335 14.1667ZM15.0002 10.8333C14.8353 10.8333 14.6742 10.8822 14.5372 10.9738C14.4001 11.0653 14.2933 11.1955 14.2303 11.3478C14.1672 11.5 14.1507 11.6676 14.1828 11.8292C14.215 11.9909 14.2944 12.1394 14.4109 12.2559C14.5274 12.3725 14.6759 12.4518 14.8376 12.484C14.9992 12.5161 15.1668 12.4996 15.3191 12.4366C15.4713 12.3735 15.6015 12.2667 15.6931 12.1296C15.7846 11.9926 15.8335 11.8315 15.8335 11.6667C15.8335 11.4457 15.7457 11.2337 15.5894 11.0774C15.4331 10.9211 15.2212 10.8333 15.0002 10.8333ZM15.8335 15C15.8335 14.779 15.7457 14.567 15.5894 14.4107C15.4331 14.2545 15.2212 14.1667 15.0002 14.1667H11.6668C11.4458 14.1667 11.2339 14.2545 11.0776 14.4107C10.9213 14.567 10.8335 14.779 10.8335 15C10.8335 15.221 10.9213 15.433 11.0776 15.5893C11.2339 15.7455 11.4458 15.8333 11.6668 15.8333H15.0002C15.2212 15.8333 15.4331 15.7455 15.5894 15.5893C15.7457 15.433 15.8335 15.221 15.8335 15Z" fill="#727272"/>
</g>
<defs>
<clipPath id="clip0_276_1810">
<rect width="20" height="20" fill="white"/>
</clipPath>
</defs>
</svg>
