<svg width="24" height="24" viewBox="0 0 24 24" fill="none" xmlns="http://www.w3.org/2000/svg">
<path d="M9 17.8788V6.70682C9.00004 6.50907 9.05871 6.31577 9.1686 6.15136C9.27848 5.98695 9.43465 5.85881 9.61734 5.78314C9.80004 5.70747 10.0011 5.68767 10.195 5.72623C10.389 5.7648 10.5671 5.86001 10.707 5.99982L16.293 11.5858C16.4805 11.7733 16.5858 12.0277 16.5858 12.2928C16.5858 12.558 16.4805 12.8123 16.293 12.9998L10.707 18.5858C10.5671 18.7256 10.389 18.8208 10.195 18.8594C10.0011 18.898 9.80004 18.8782 9.61734 18.8025C9.43465 18.7268 9.27848 18.5987 9.1686 18.4343C9.05871 18.2699 9.00004 18.0766 9 17.8788Z" fill="#2A2076"/>
</svg>
