<svg width="20" height="20" viewBox="0 0 20 20" fill="none" xmlns="http://www.w3.org/2000/svg">
<path d="M4.28571 6.42857H15.7143V4.28571H4.28571V6.42857ZM4.28571 15.7143H12.8571V13.5714H4.28571V15.7143ZM4.28571 11.0714H15.7143V8.92857H4.28571V11.0714ZM2.14286 20C1.54762 20 1.0419 19.7914 0.625714 19.3743C0.208571 18.9581 0 18.4524 0 17.8571V2.14286C0 1.54762 0.208571 1.0419 0.625714 0.625714C1.0419 0.208571 1.54762 0 2.14286 0H17.8571C18.4524 0 18.9581 0.208571 19.3743 0.625714C19.7914 1.0419 20 1.54762 20 2.14286V17.8571C20 18.4524 19.7914 18.9581 19.3743 19.3743C18.9581 19.7914 18.4524 20 17.8571 20H2.14286ZM2.14286 17.8571H17.8571V2.14286H2.14286V17.8571Z" fill="#727272"/>
</svg>
