<svg width="78" height="40" viewBox="0 0 78 40" fill="none" xmlns="http://www.w3.org/2000/svg">
<path d="M39.0003 40.0032C60.4103 40.0032 77.7666 38.9899 77.7666 37.7399C77.7666 36.4899 60.4103 35.4766 39.0003 35.4766C17.5902 35.4766 0.233887 36.4899 0.233887 37.7399C0.233887 38.9899 17.5902 40.0032 39.0003 40.0032Z" fill="#F5F5F5"/>
<path d="M26.8701 30.2109L27.8478 32.4583C28.0322 32.8831 28.3367 33.2447 28.7239 33.4987C29.1111 33.7527 29.5641 33.8879 30.0272 33.8878H34.1199C34.6629 33.8875 35.1835 33.6718 35.5675 33.288H43.2112C43.5064 33.288 43.7975 33.2178 44.0603 33.0833C44.323 32.9488 44.5501 32.7537 44.7228 32.5143L45.7325 31.1147L26.8701 30.2109Z" fill="#2E353A"/>
<path d="M33.098 21.3028C33.098 22.3805 37.3927 30.0342 37.8226 30.3381C38.2525 30.642 43.8588 30.3021 43.8588 30.3021L43.4409 31.8896H28.0455L21.6475 19.4714L25.8782 13.3672L33.5859 13.5811C33.5859 13.5811 33.098 20.2271 33.098 21.3028Z" fill="#7E57C2"/>
<path opacity="0.2" d="M33.098 21.3028C33.098 22.3805 37.3927 30.0342 37.8226 30.3381C38.2525 30.642 43.8588 30.3021 43.8588 30.3021L43.4409 31.8896H28.0455L21.6475 19.4714L25.8782 13.3672L33.5859 13.5811C33.5859 13.5811 33.098 20.2271 33.098 21.3028Z" fill="black"/>
<path d="M20.5921 37.8077C24.0605 37.8077 26.8722 34.4159 26.8722 30.232C26.8722 26.048 24.0605 22.6562 20.5921 22.6562C17.1237 22.6562 14.312 26.048 14.312 30.232C14.312 34.4159 17.1237 37.8077 20.5921 37.8077Z" fill="#2E353A"/>
<path d="M19.5404 35.0103C21.7279 35.0103 23.5012 32.8708 23.5012 30.2317C23.5012 27.5926 21.7279 25.4531 19.5404 25.4531C17.3529 25.4531 15.5796 27.5926 15.5796 30.2317C15.5796 32.8708 17.3529 35.0103 19.5404 35.0103Z" fill="white"/>
<path d="M18.6305 32.1507C19.5415 32.1507 20.28 31.26 20.28 30.1613C20.28 29.0626 19.5415 28.1719 18.6305 28.1719C17.7195 28.1719 16.981 29.0626 16.981 30.1613C16.981 31.26 17.7195 32.1507 18.6305 32.1507Z" fill="#7E57C2"/>
<path opacity="0.4" d="M18.6305 32.1507C19.5415 32.1507 20.28 31.26 20.28 30.1613C20.28 29.0626 19.5415 28.1719 18.6305 28.1719C17.7195 28.1719 16.981 29.0626 16.981 30.1613C16.981 31.26 17.7195 32.1507 18.6305 32.1507Z" fill="black"/>
<path d="M55.5754 18.7862C55.5754 18.7862 49.9071 23.1329 47.7457 32.0922H38.6685L47.2659 18.0964L51.8005 16.2109L55.5754 18.7862Z" fill="#7E57C2"/>
<path opacity="0.4" d="M56.1612 18.3443C56.1612 18.3443 50.8608 22.3971 48.3296 30.0228C48.1341 30.6221 47.7548 31.1447 47.2455 31.5161C46.7362 31.8876 46.1228 32.0892 45.4924 32.0922H38.6685L47.2659 18.0964L51.8005 16.2109L56.1612 18.3443Z" fill="black"/>
<path d="M55.6156 18.6938H52.1146C51.4501 18.6856 50.7984 18.8764 50.2432 19.2416C48.1658 20.6252 43.2453 24.484 42.7334 30.5982C42.7015 31.0017 42.5195 31.3787 42.2235 31.6547C41.9274 31.9308 41.5387 32.086 41.1339 32.0897H25.9165C23.3594 32.09 20.848 31.4118 18.6387 30.1243L14.288 27.5891C13.8192 27.3152 13.448 26.9015 13.2264 26.4059C13.0048 25.9104 12.9439 25.3578 13.0523 24.8259C13.5702 22.3287 15.0297 18.0439 19.2065 16.3685C19.2725 16.3385 19.1725 16.3125 19.3724 16.2885V13.6953H30.2812C30.2812 13.6953 28.0938 18.9117 28.0938 21.063C28.0938 23.0924 30.2452 30.8901 33.0283 31.6899H36.8272C37.3321 31.6776 37.8249 31.5325 38.2559 31.2693C38.6869 31.006 39.041 30.6339 39.2825 30.1903C41.1339 26.8853 45.2467 18.3159 43.9651 10.2163C43.8151 9.27058 44.5429 8.29688 45.5026 8.29688H50.4011C50.4011 8.29688 54.7998 13.3993 56.2274 17.712C56.3733 18.1319 56.0594 18.6938 55.6156 18.6938Z" fill="#7E57C2"/>
<path d="M47.764 6.67579H46.3644C45.9971 6.67569 45.6409 6.55012 45.3547 6.3199L42.4776 3.99059C42.3645 3.89859 42.2235 3.84781 42.0777 3.84664H36.5473C36.4413 3.84664 36.3396 3.80451 36.2646 3.72951C36.1896 3.65452 36.1475 3.55281 36.1475 3.44676C36.1475 3.3407 36.1896 3.23899 36.2646 3.164C36.3396 3.089 36.4413 3.04688 36.5473 3.04688H42.0737C42.403 3.04704 42.7222 3.16073 42.9774 3.36878L45.8566 5.70008C45.9997 5.81584 46.1783 5.87869 46.3624 5.87803H47.762C47.956 5.87729 48.1432 5.80712 48.29 5.68022C48.4367 5.55332 48.5331 5.37808 48.5617 5.18623L48.6877 4.2865C48.7383 3.94394 48.9099 3.63082 49.1714 3.40381C49.4329 3.17679 49.767 3.05089 50.1133 3.04888H51.163C51.269 3.04888 51.3707 3.09101 51.4457 3.166C51.5207 3.24099 51.5628 3.3427 51.5628 3.44876C51.5628 3.55481 51.5207 3.65652 51.4457 3.73151C51.3707 3.80651 51.269 3.84864 51.163 3.84864H50.1093C49.9555 3.84979 49.8071 3.9058 49.6909 4.0066C49.5747 4.10739 49.4983 4.24636 49.4755 4.39847L49.3495 5.2982C49.2932 5.67929 49.1024 6.02764 48.8116 6.2803C48.5208 6.53296 48.1492 6.67324 47.764 6.67579Z" fill="#2E353A"/>
<path d="M45.2948 4.98056C45.2948 4.98056 45.3128 5.92428 44.4271 5.8643L44.1392 6.88799C44.0981 7.03217 44.0877 7.18336 44.1087 7.33179C44.1297 7.48023 44.1816 7.62261 44.2611 7.74973L44.8869 8.74943H50.6852L51.1411 7.88969C51.2141 7.75289 51.2416 7.59638 51.2197 7.44287C51.1977 7.28936 51.1275 7.14683 51.0191 7.03594L49.2916 5.27047C49.2012 5.17743 49.093 5.10347 48.9735 5.05299C48.854 5.0025 48.7256 4.97652 48.5958 4.97656L45.2948 4.98056Z" fill="#7E57C2"/>
<path opacity="0.4" d="M45.2948 4.98056C45.2948 4.98056 45.3128 5.92428 44.4271 5.8643L44.1392 6.88799C44.0981 7.03217 44.0877 7.18336 44.1087 7.33179C44.1297 7.48023 44.1816 7.62261 44.2611 7.74973L44.8869 8.74943H50.6852L51.1411 7.88969C51.2141 7.75289 51.2416 7.59638 51.2197 7.44287C51.1977 7.28936 51.1275 7.14683 51.0191 7.03594L49.2916 5.27047C49.2012 5.17743 49.093 5.10347 48.9735 5.05299C48.854 5.0025 48.7256 4.97652 48.5958 4.97656L45.2948 4.98056Z" fill="black"/>
<path d="M55.2518 37.8077C58.7202 37.8077 61.5319 34.4159 61.5319 30.232C61.5319 26.048 58.7202 22.6562 55.2518 22.6562C51.7834 22.6562 48.9717 26.048 48.9717 30.232C48.9717 34.4159 51.7834 37.8077 55.2518 37.8077Z" fill="#2E353A"/>
<path d="M54.202 35.0103C56.3895 35.0103 58.1628 32.8708 58.1628 30.2317C58.1628 27.5926 56.3895 25.4531 54.202 25.4531C52.0145 25.4531 50.2412 27.5926 50.2412 30.2317C50.2412 32.8708 52.0145 35.0103 54.202 35.0103Z" fill="white"/>
<path d="M61.4319 25.3436C60.7701 24.218 59.0006 21.7847 55.8196 21.0729C55.0045 20.8817 54.1591 20.8573 53.3343 21.0009L53.3203 20.9669L53.3343 20.9369H53.3084L52.7625 19.6953H52.1407C51.6358 19.6952 51.1445 19.8594 50.7411 20.1632L49.6494 20.9829L50.1633 22.7644C50.0147 22.9238 49.8758 23.0921 49.7474 23.2682C48.8264 24.4129 48.1984 25.7649 47.918 27.2071C47.9087 27.2672 47.9126 27.3287 47.9294 27.3872C47.9462 27.4458 47.9754 27.5 48.0151 27.5461C48.0548 27.5923 48.104 27.6293 48.1594 27.6547C48.2148 27.68 48.275 27.693 48.3358 27.6929H48.6637C48.7498 27.6944 48.8342 27.6695 48.9056 27.6216C48.9771 27.5737 49.0322 27.5051 49.0636 27.425C49.3566 26.6509 49.8207 25.9531 50.4212 25.3836L52.2427 30.1262L53.7082 29.5104L53.1944 23.6001C53.1944 23.6001 56.5654 22.6524 58.7727 25.3796C58.9011 25.5394 59.0637 25.6685 59.2484 25.7574C59.4331 25.8463 59.6354 25.8928 59.8404 25.8935H61.122C61.1858 25.8923 61.2482 25.8746 61.303 25.8419C61.3578 25.8093 61.4031 25.7628 61.4344 25.7073C61.4657 25.6517 61.482 25.5889 61.4815 25.5251C61.4811 25.4613 61.464 25.3988 61.4319 25.3436Z" fill="#7E57C2"/>
<path opacity="0.2" d="M61.4319 25.3436C60.7701 24.218 59.0006 21.7847 55.8196 21.0729C55.0045 20.8817 54.1591 20.8573 53.3343 21.0009L53.3203 20.9669L53.3343 20.9369H53.3084L52.7625 19.6953H52.1407C51.6358 19.6952 51.1445 19.8594 50.7411 20.1632L49.6494 20.9829L50.1633 22.7644C50.0147 22.9238 49.8758 23.0921 49.7474 23.2682C48.8264 24.4129 48.1984 25.7649 47.918 27.2071C47.9087 27.2672 47.9126 27.3287 47.9294 27.3872C47.9462 27.4458 47.9754 27.5 48.0151 27.5461C48.0548 27.5923 48.104 27.6293 48.1594 27.6547C48.2148 27.68 48.275 27.693 48.3358 27.6929H48.6637C48.7498 27.6944 48.8342 27.6695 48.9056 27.6216C48.9771 27.5737 49.0322 27.5051 49.0636 27.425C49.3566 26.6509 49.8207 25.9531 50.4212 25.3836L52.2427 30.1262L53.7082 29.5104L53.1944 23.6001C53.1944 23.6001 56.5654 22.6524 58.7727 25.3796C58.9011 25.5394 59.0637 25.6685 59.2484 25.7574C59.4331 25.8463 59.6354 25.8928 59.8404 25.8935H61.122C61.1858 25.8923 61.2482 25.8746 61.303 25.8419C61.3578 25.8093 61.4031 25.7628 61.4344 25.7073C61.4657 25.6517 61.482 25.5889 61.4815 25.5251C61.4811 25.4613 61.464 25.3988 61.4319 25.3436Z" fill="black"/>
<path d="M53.2921 32.1507C54.2031 32.1507 54.9416 31.26 54.9416 30.1613C54.9416 29.0626 54.2031 28.1719 53.2921 28.1719C52.3811 28.1719 51.6426 29.0626 51.6426 30.1613C51.6426 31.26 52.3811 32.1507 53.2921 32.1507Z" fill="#7E57C2"/>
<path opacity="0.4" d="M53.2921 32.1507C54.2031 32.1507 54.9416 31.26 54.9416 30.1613C54.9416 29.0626 54.2031 28.1719 53.2921 28.1719C52.3811 28.1719 51.6426 29.0626 51.6426 30.1613C51.6426 31.26 52.3811 32.1507 53.2921 32.1507Z" fill="black"/>
<path d="M47.3521 8.97041C47.3521 8.97041 48.3897 15.5045 51.8167 15.5484C55.0297 15.5924 55.3297 9.45827 52.2646 8.51655C49.7893 7.75478 47.3521 8.97041 47.3521 8.97041Z" fill="#7E57C2"/>
<path opacity="0.2" d="M47.3521 8.97041C47.3521 8.97041 48.3897 15.5045 51.8167 15.5484C55.0297 15.5924 55.3297 9.45827 52.2646 8.51655C49.7893 7.75478 47.3521 8.97041 47.3521 8.97041Z" fill="black"/>
<path d="M54.188 11.9757C54.264 13.6332 53.2643 14.9748 51.9547 14.9748C50.6451 14.9748 49.5234 13.6292 49.4474 11.9757C49.3714 10.3222 50.3711 8.97656 51.6787 8.97656C52.9864 8.97656 54.112 10.3162 54.188 11.9757Z" fill="white"/>
<path d="M50.9273 7.68857H47.9521L48.1881 7.30469H50.9273V7.68857Z" fill="#7E57C2"/>
<path d="M34.568 13.4205V14.1723C34.568 14.8541 34.0101 15.296 33.3263 15.296H19.8064C19.1206 15.296 18.5728 14.8541 18.5728 14.1723V13.4205C18.5728 12.7387 19.1206 12.2969 19.8064 12.2969H33.3263C34.0101 12.2969 34.568 12.7387 34.568 13.4205Z" fill="#2E353A"/>
<path opacity="0.2" d="M30.1693 13.4235V14.1752C30.1768 14.3272 30.1519 14.479 30.0963 14.6206C30.0407 14.7622 29.9556 14.8904 29.8467 14.9966C29.7378 15.1029 29.6076 15.1848 29.4647 15.2369C29.3217 15.289 29.1693 15.3101 29.0176 15.2989H19.8064C19.1206 15.2989 18.5728 14.857 18.5728 14.1752V13.4235C18.5728 12.7417 19.1206 12.2998 19.8064 12.2998H29.0176C29.1693 12.2886 29.3217 12.3097 29.4647 12.3618C29.6076 12.4139 29.7378 12.4958 29.8467 12.6021C29.9556 12.7083 30.0407 12.8365 30.0963 12.9781C30.1519 13.1197 30.1768 13.2715 30.1693 13.4235Z" fill="white"/>
<path opacity="0.2" d="M28.4677 27.2659V32.0885H25.9165C23.3594 32.0887 20.848 31.4105 18.6387 30.1231L14.288 27.5878C13.8192 27.314 13.448 26.9002 13.2264 26.4047C13.0048 25.9091 12.9439 25.3566 13.0523 24.8247C13.5702 22.3274 15.0517 18.0427 19.2365 16.3672L19.4364 16.3772H21.1259C22.101 16.3771 23.0559 16.655 23.8785 17.1784C24.7012 17.7018 25.3575 18.449 25.7705 19.3323L27.57 23.1911C28.1634 24.4675 28.4699 25.8584 28.4677 27.2659Z" fill="black"/>
<path d="M39.7585 0.343005L39.4409 0.585938L41.6067 3.41759L41.9243 3.17466L39.7585 0.343005Z" fill="#2E353A"/>
<path d="M38.4567 1.2054e-09H39.4764C39.5824 -7.06479e-06 39.686 0.0310516 39.7745 0.0893317C39.863 0.147612 39.9324 0.230555 39.9743 0.327902L40.1102 0.645805C40.1452 0.728135 40.1593 0.817849 40.1512 0.906936C40.143 0.996024 40.113 1.08172 40.0637 1.15636C40.0144 1.23101 39.9474 1.29228 39.8686 1.33472C39.7899 1.37716 39.7018 1.39945 39.6124 1.39958H38.5027C38.3725 1.39991 38.2465 1.35314 38.148 1.26789C38.0495 1.18265 37.9852 1.06467 37.9669 0.935718L37.9209 0.617814C37.91 0.541059 37.9157 0.462868 37.9377 0.388516C37.9596 0.314163 37.9972 0.245384 38.048 0.186821C38.0988 0.128259 38.1616 0.0812742 38.2321 0.0490453C38.3026 0.0168165 38.3792 9.22649e-05 38.4567 1.2054e-09Z" fill="#7E57C2"/>
<path d="M49.9325 0.788597L49.3994 3.32031L49.7907 3.4027L50.3238 0.870986L49.9325 0.788597Z" fill="#2E353A"/>
<path d="M51.3268 2.07642e-05H50.2291C50.1216 -5.89301e-05 50.0176 0.038753 49.9364 0.109302C49.8552 0.179851 49.8022 0.277379 49.7873 0.383905L49.7133 0.889753C49.7044 0.953718 49.7094 1.01886 49.7279 1.08071C49.7465 1.14257 49.7783 1.19967 49.821 1.2481C49.8638 1.29653 49.9165 1.33514 49.9755 1.36129C50.0346 1.38744 50.0986 1.40051 50.1632 1.3996H51.2588C51.3664 1.39968 51.4704 1.36087 51.5516 1.29032C51.6328 1.21977 51.6858 1.12224 51.7007 1.01572L51.7747 0.509868C51.7836 0.446072 51.7787 0.381101 51.7602 0.319392C51.7417 0.257683 51.7101 0.200687 51.6676 0.152291C51.6251 0.103895 51.5726 0.0652399 51.5138 0.0389617C51.455 0.0126835 51.3912 -0.000599506 51.3268 2.07642e-05Z" fill="#7E57C2"/>
<path d="M41.9198 13.0184L40.1864 9.36549C40.0795 9.14015 39.8887 8.96562 39.6548 8.87929C39.4208 8.79296 39.1623 8.80169 38.9347 8.90363L34.4101 10.903C34.2251 10.9859 34.0715 11.1261 33.9722 11.3029L29.3036 19.3365C29.2323 19.4598 29.1893 19.5975 29.1779 19.7395C29.1665 19.8815 29.1869 20.0243 29.2376 20.1575C29.2884 20.2906 29.3682 20.4107 29.4713 20.5091C29.5744 20.6075 29.6981 20.6816 29.8335 20.7261L36.4315 22.8834C36.6486 22.955 36.8842 22.9463 37.0955 22.859C37.3068 22.7717 37.4798 22.6115 37.5831 22.4076L41.9079 13.8561C41.9742 13.7269 42.0098 13.584 42.0119 13.4387C42.014 13.2934 41.9825 13.1495 41.9198 13.0184ZM39.1327 10.2032C39.0294 10.1694 38.9384 10.1057 38.8713 10.0202C38.8041 9.93463 38.7639 9.83112 38.7556 9.72271C38.7473 9.6143 38.7713 9.50586 38.8246 9.4111C38.8779 9.31635 38.9581 9.23952 39.0551 9.19034C39.152 9.14116 39.2614 9.12183 39.3694 9.1348C39.4773 9.14776 39.579 9.19244 39.6616 9.26319C39.7441 9.33393 39.8039 9.42757 39.8332 9.53226C39.8626 9.63695 39.8602 9.74799 39.8265 9.85135C39.7807 9.98973 39.6821 10.1044 39.5521 10.1703C39.4221 10.2363 39.2714 10.2481 39.1327 10.2032Z" fill="#7E57C2"/>
<path opacity="0.6" d="M41.9198 13.0184L40.1864 9.36549C40.0795 9.14015 39.8887 8.96562 39.6548 8.87929C39.4208 8.79296 39.1623 8.80169 38.9347 8.90363L34.4101 10.903C34.2251 10.9859 34.0715 11.1261 33.9722 11.3029L29.3036 19.3365C29.2323 19.4598 29.1893 19.5975 29.1779 19.7395C29.1665 19.8815 29.1869 20.0243 29.2376 20.1575C29.2884 20.2906 29.3682 20.4107 29.4713 20.5091C29.5744 20.6075 29.6981 20.6816 29.8335 20.7261L36.4315 22.8834C36.6486 22.955 36.8842 22.9463 37.0955 22.859C37.3068 22.7717 37.4798 22.6115 37.5831 22.4076L41.9079 13.8561C41.9742 13.7269 42.0098 13.584 42.0119 13.4387C42.014 13.2934 41.9825 13.1495 41.9198 13.0184ZM39.1327 10.2032C39.0294 10.1694 38.9384 10.1057 38.8713 10.0202C38.8041 9.93463 38.7639 9.83112 38.7556 9.72271C38.7473 9.6143 38.7713 9.50586 38.8246 9.4111C38.8779 9.31635 38.9581 9.23952 39.0551 9.19034C39.152 9.14116 39.2614 9.12183 39.3694 9.1348C39.4773 9.14776 39.579 9.19244 39.6616 9.26319C39.7441 9.33393 39.8039 9.42757 39.8332 9.53226C39.8626 9.63695 39.8602 9.74799 39.8265 9.85135C39.7807 9.98973 39.6821 10.1044 39.5521 10.1703C39.4221 10.2363 39.2714 10.2481 39.1327 10.2032Z" fill="white"/>
<path d="M38.4847 14.9791C38.395 14.7283 38.2445 14.5037 38.0468 14.3253C37.8034 14.1053 37.5176 13.9373 37.2071 13.8315L36.0514 16.0168C36.0621 16.0198 36.0722 16.0246 36.0814 16.0308C36.0896 16.0374 36.0992 16.0422 36.1094 16.0448C36.3788 16.2003 36.6385 16.3718 36.8871 16.5586C37.0865 16.7049 37.2601 16.8833 37.401 17.0865C37.5207 17.2594 37.5899 17.4623 37.6009 17.6723C37.5961 17.9196 37.5272 18.1614 37.401 18.3741C37.2751 18.6219 37.0963 18.8389 36.8772 19.0099C36.6665 19.1696 36.4257 19.2852 36.1694 19.3498C35.8954 19.4161 35.6126 19.4383 35.3316 19.4158C35.0179 19.3918 34.708 19.3321 34.4079 19.2378L33.988 20.0376L33.6641 19.9316L34.09 19.1319C33.3099 18.863 32.6648 18.3017 32.2905 17.5663L32.8424 17.2004C32.9564 17.505 33.1399 17.7789 33.3782 18.0002C33.6665 18.2752 34.0062 18.4905 34.3779 18.634L35.5336 16.4487L35.4896 16.4147C35.2352 16.2609 34.9889 16.094 34.7518 15.9148C34.5683 15.7802 34.41 15.6144 34.2839 15.425C34.1789 15.266 34.1226 15.0797 34.122 14.8891C34.1335 14.6653 34.1979 14.4474 34.3099 14.2533C34.4355 14.0099 34.6089 13.7943 34.8198 13.6195C35.0204 13.4537 35.2503 13.3269 35.4976 13.2456C35.7558 13.1624 36.026 13.1219 36.2973 13.1257C36.5986 13.1288 36.8983 13.1704 37.1891 13.2496L37.6249 12.4219L37.9488 12.5278L37.515 13.3456C37.8571 13.4621 38.174 13.6426 38.4487 13.8774C38.6856 14.0871 38.8792 14.3412 39.0185 14.6252L38.4847 14.9791ZM36.7172 18.2201C36.7977 18.0839 36.8398 17.9285 36.8392 17.7703C36.8308 17.6268 36.7831 17.4885 36.7012 17.3704C36.6007 17.2224 36.4772 17.0914 36.3353 16.9825C36.1503 16.8355 35.9574 16.6987 35.7575 16.5726L34.6238 18.716C35.0332 18.87 35.4757 18.9142 35.9074 18.844C36.0814 18.8095 36.245 18.7352 36.3855 18.627C36.5259 18.5188 36.6395 18.3795 36.7172 18.2201ZM34.9797 14.3693C34.9045 14.4986 34.8606 14.6438 34.8518 14.7932C34.8521 14.9214 34.8889 15.0469 34.9577 15.1551C35.0455 15.289 35.1566 15.4062 35.2856 15.501C35.4604 15.6354 35.642 15.7608 35.8295 15.8768L36.9511 13.7575C36.5507 13.6178 36.1166 13.6067 35.7095 13.7255C35.3923 13.8378 35.1308 14.0685 34.9797 14.3693Z" fill="#2E353A"/>
<path d="M39.6924 9.34895C39.6924 9.34895 41.8157 9.44892 41.5918 7.4995C41.3039 5.01025 44.215 4.92628 43.8651 3.97656" stroke="#7E57C2" stroke-linecap="round" stroke-linejoin="round"/>
</svg>
