<svg width="48" height="31" viewBox="0 0 48 31" fill="none" xmlns="http://www.w3.org/2000/svg">
<path d="M24 30.8883C37.2548 30.8883 48 30.261 48 29.4871C48 28.7133 37.2548 28.0859 24 28.0859C10.7452 28.0859 0 28.7133 0 29.4871C0 30.261 10.7452 30.8883 24 30.8883Z" fill="#F5F5F5"/>
<path d="M33.9581 11.8618L34.322 10.9459L33.1709 10.9062C33.096 11.0754 33.0772 11.2642 33.1173 11.4448C33.1574 11.6254 33.2542 11.7885 33.3937 11.9101L33.9581 11.8618Z" fill="#E4897B"/>
<path d="M34.4471 10.3359L33.5447 10.5105L33.1709 10.9128L34.3221 10.9524L34.4471 10.3359Z" fill="#E4897B"/>
<path d="M27.1784 1.48694C25.5042 0.760947 23.6992 0.385197 21.8744 0.382812C15.4377 0.382813 10.3466 5.06423 9.646 11.2075L10.4444 10.8225L22.575 13.3799L27.1784 1.48694Z" fill="#BA68C8"/>
<path opacity="0.4" d="M27.1784 1.48694C25.5042 0.760947 23.6992 0.385197 21.8744 0.382812C15.4377 0.382813 10.3466 5.06423 9.646 11.2075L10.4444 10.8225L22.575 13.3799L27.1784 1.48694Z" fill="white"/>
<path d="M27.9758 1.10413C26.3009 0.377602 24.495 0.00183668 22.6693 0C16.2327 0 11.1415 4.68142 10.4409 10.8247L23.3736 12.9971L27.9758 1.10413Z" fill="#BA68C8"/>
<path opacity="0.6" d="M27.9758 1.10413C26.3009 0.377602 24.495 0.00183668 22.6693 0C16.2327 0 11.1415 4.68142 10.4409 10.8247L23.3736 12.9971L27.9758 1.10413Z" fill="white"/>
<path d="M29.6725 0.585224L25.0679 12.4782L36.5065 19.2861L37.3049 18.9012C37.3049 18.9012 38.1887 14.7706 38.0649 12.4732C37.7864 7.34865 30.4685 0.195312 30.4685 0.195312L29.6725 0.585224Z" fill="#BA68C8"/>
<path opacity="0.1" d="M29.6725 0.585224L25.0679 12.4782L36.5065 19.2861L37.3049 18.9012C37.3049 18.9012 38.1887 14.7706 38.0649 12.4732C37.7864 7.34865 30.4685 0.195312 30.4685 0.195312L29.6725 0.585224Z" fill="white"/>
<path d="M30.4687 0.195312L25.8652 12.0907L37.3051 18.8987C38.4631 16.8244 39.0034 14.4621 38.8623 12.0907C38.5751 6.77925 35.1414 2.21419 30.4687 0.195312Z" fill="#BA68C8"/>
<path opacity="0.2" d="M30.4687 0.195312L25.8652 12.0907L37.3051 18.8987C38.4631 16.8244 39.0034 14.4621 38.8623 12.0907C38.5751 6.77925 35.1414 2.21419 30.4687 0.195312Z" fill="white"/>
<g style="mix-blend-mode:color-dodge" opacity="0.4">
<path d="M37.0079 17.8936C37.0027 17.8952 36.9971 17.8952 36.9918 17.8936L26.7687 11.8048C26.7624 11.8009 26.7577 11.7949 26.7554 11.7879C26.7531 11.7809 26.7535 11.7732 26.7563 11.7664L30.8411 1.20042C30.8426 1.19625 30.8449 1.19244 30.848 1.18924C30.851 1.18605 30.8547 1.18354 30.8588 1.1819C30.8629 1.18026 30.8673 1.17952 30.8718 1.17972C30.8762 1.17993 30.8805 1.18108 30.8844 1.18309C32.9508 2.22592 34.7111 3.78741 35.9929 5.71473C37.2712 7.62385 38.0153 9.8403 38.1479 12.134C38.2615 14.1123 37.8785 16.0875 37.0339 17.88C37.0321 17.8841 37.0293 17.8879 37.0259 17.8909C37.0225 17.8939 37.0185 17.8961 37.0141 17.8973L37.0079 17.8936ZM26.8256 11.7577L36.9968 17.8156C37.8271 16.0401 38.2027 14.0859 38.0898 12.1291C37.8422 7.5368 35.0831 3.36907 30.8906 1.24622L26.8256 11.7577Z" fill="#FAFAFA"/>
</g>
<g style="mix-blend-mode:color-dodge" opacity="0.4">
<path d="M22.8993 12.1943L11.2725 10.2423C11.2646 10.2407 11.2576 10.2363 11.2527 10.2299C11.2497 10.2223 11.2497 10.2139 11.2527 10.2064C11.7067 7.53964 13.0923 5.12055 15.163 3.37984C17.2777 1.64045 19.9347 0.696269 22.6728 0.71111C24.1611 0.711125 25.6376 0.975157 27.0336 1.49093C27.0376 1.49196 27.0413 1.49397 27.0443 1.49678C27.0474 1.49959 27.0496 1.50311 27.0509 1.50702C27.0541 1.51497 27.0541 1.52383 27.0509 1.53178L22.9315 12.177C22.9287 12.1829 22.924 12.1878 22.9182 12.1909C22.9125 12.194 22.9058 12.1952 22.8993 12.1943ZM11.3146 10.1866L22.8795 12.1287L26.9779 1.53797C25.5972 1.03204 24.1383 0.773095 22.6678 0.773001C16.9553 0.773001 12.29 4.64241 11.3146 10.1866Z" fill="#FAFAFA"/>
</g>
<path d="M22.5751 13.3855L10.4445 10.8281L9.6424 11.2156C9.5603 11.9366 9.53918 12.6633 9.57927 13.3879C9.96794 20.5673 16.1026 26.385 23.2806 26.385C27.9596 26.385 31.9268 23.9094 34.0137 20.1959L22.5751 13.3855Z" fill="#BA68C8"/>
<path opacity="0.2" d="M22.5751 13.3855L10.4445 10.8281L9.6424 11.2156C9.5603 11.9366 9.53918 12.6633 9.57927 13.3879C9.96794 20.5673 16.1026 26.385 23.2806 26.385C27.9596 26.385 31.9268 23.9094 34.0137 20.1959L22.5751 13.3855Z" fill="black"/>
<path d="M23.3734 13.0005L10.4407 10.8281C10.3588 11.5492 10.3373 12.2758 10.3763 13.0005C10.7662 20.1798 16.8996 25.9976 24.0777 25.9976C28.7579 25.9976 32.7251 23.5219 34.812 19.8085L23.3734 13.0005Z" fill="#BA68C8"/>
<path opacity="0.1" d="M23.3734 13.0005L10.4407 10.8281C10.3588 11.5492 10.3373 12.2758 10.3763 13.0005C10.7662 20.1798 16.8996 25.9976 24.0777 25.9976C28.7579 25.9976 32.7251 23.5219 34.812 19.8085L23.3734 13.0005Z" fill="black"/>
<g style="mix-blend-mode:color-dodge" opacity="0.4">
<path d="M24.0778 25.2789C17.2834 25.2789 11.452 19.7495 11.0807 12.9552C11.059 12.5325 11.059 12.1091 11.0807 11.6864C11.0805 11.6821 11.0815 11.6777 11.0834 11.6739C11.0854 11.67 11.0883 11.6666 11.0918 11.6641C11.0951 11.661 11.099 11.6587 11.1033 11.6575C11.1076 11.6562 11.1122 11.6559 11.1166 11.6567L23.1147 13.6719H23.1246L33.802 20.0318C33.8057 20.0339 33.809 20.0367 33.8115 20.0401C33.8141 20.0435 33.8159 20.0474 33.8169 20.0516C33.8197 20.0592 33.8197 20.0675 33.8169 20.0751C32.7785 21.6803 31.3507 22.9965 29.6665 23.9012C27.9447 24.8118 26.0255 25.2849 24.0778 25.2789ZM11.1438 11.7236C11.1253 12.132 11.1265 12.5442 11.1438 12.9515C11.5152 19.7136 17.3106 25.217 24.0728 25.217C28.0895 25.217 31.6123 23.3417 33.7414 20.0726L23.0962 13.7325L11.1438 11.7236Z" fill="#FAFAFA"/>
</g>
<path d="M9.33043 15.0228C9.23769 14.4905 9.17611 13.9532 9.146 13.4137L9.26978 13.4062C9.29873 13.9425 9.35949 14.4765 9.45174 15.0055L9.33043 15.0228Z" fill="#BA68C8"/>
<path opacity="0.2" d="M9.33043 15.0228C9.23769 14.4905 9.17611 13.9532 9.146 13.4137L9.26978 13.4062C9.29873 13.9425 9.35949 14.4765 9.45174 15.0055L9.33043 15.0228Z" fill="black"/>
<path d="M9.62002 16.2897C9.5507 16.0422 9.48757 15.7797 9.43311 15.526L9.55689 15.5C9.61135 15.7476 9.67324 16.0063 9.74132 16.2575L9.62002 16.2897Z" fill="#BA68C8"/>
<path opacity="0.2" d="M9.62002 16.2897C9.5507 16.0422 9.48757 15.7797 9.43311 15.526L9.55689 15.5C9.61135 15.7476 9.67324 16.0063 9.74132 16.2575L9.62002 16.2897Z" fill="black"/>
</svg>
