<svg width="18" height="18" viewBox="0 0 18 18" fill="none" xmlns="http://www.w3.org/2000/svg">
<g id="calendar_month">
<mask id="mask0_187_2584" style="mask-type:alpha" maskUnits="userSpaceOnUse" x="0" y="0" width="18" height="18">
<rect id="Bounding box" width="18" height="18" fill="#D9D9D9"/>
</mask>
<g mask="url(#mask0_187_2584)">
<path id="calendar_month_2" d="M3.75 16.4961C3.3375 16.4961 2.98425 16.3493 2.69025 16.0558C2.39675 15.7618 2.25 15.4086 2.25 14.9961V4.49609C2.25 4.08359 2.39675 3.73059 2.69025 3.43709C2.98425 3.14309 3.3375 2.99609 3.75 2.99609H4.5V1.49609H6V2.99609H12V1.49609H13.5V2.99609H14.25C14.6625 2.99609 15.0157 3.14309 15.3097 3.43709C15.6033 3.73059 15.75 4.08359 15.75 4.49609V14.9961C15.75 15.4086 15.6033 15.7618 15.3097 16.0558C15.0157 16.3493 14.6625 16.4961 14.25 16.4961H3.75ZM3.75 14.9961H14.25V7.49609H3.75V14.9961ZM3.75 5.99609H14.25V4.49609H3.75V5.99609ZM9 10.4961C8.7875 10.4961 8.6095 10.4241 8.466 10.2801C8.322 10.1366 8.25 9.95859 8.25 9.74609C8.25 9.53359 8.322 9.35534 8.466 9.21134C8.6095 9.06784 8.7875 8.99609 9 8.99609C9.2125 8.99609 9.39075 9.06784 9.53475 9.21134C9.67825 9.35534 9.75 9.53359 9.75 9.74609C9.75 9.95859 9.67825 10.1366 9.53475 10.2801C9.39075 10.4241 9.2125 10.4961 9 10.4961ZM6 10.4961C5.7875 10.4961 5.60925 10.4241 5.46525 10.2801C5.32175 10.1366 5.25 9.95859 5.25 9.74609C5.25 9.53359 5.32175 9.35534 5.46525 9.21134C5.60925 9.06784 5.7875 8.99609 6 8.99609C6.2125 8.99609 6.39075 9.06784 6.53475 9.21134C6.67825 9.35534 6.75 9.53359 6.75 9.74609C6.75 9.95859 6.67825 10.1366 6.53475 10.2801C6.39075 10.4241 6.2125 10.4961 6 10.4961ZM12 10.4961C11.7875 10.4961 11.6095 10.4241 11.466 10.2801C11.322 10.1366 11.25 9.95859 11.25 9.74609C11.25 9.53359 11.322 9.35534 11.466 9.21134C11.6095 9.06784 11.7875 8.99609 12 8.99609C12.2125 8.99609 12.3905 9.06784 12.534 9.21134C12.678 9.35534 12.75 9.53359 12.75 9.74609C12.75 9.95859 12.678 10.1366 12.534 10.2801C12.3905 10.4241 12.2125 10.4961 12 10.4961ZM9 13.4961C8.7875 13.4961 8.6095 13.4241 8.466 13.2801C8.322 13.1366 8.25 12.9586 8.25 12.7461C8.25 12.5336 8.322 12.3556 8.466 12.2121C8.6095 12.0681 8.7875 11.9961 9 11.9961C9.2125 11.9961 9.39075 12.0681 9.53475 12.2121C9.67825 12.3556 9.75 12.5336 9.75 12.7461C9.75 12.9586 9.67825 13.1366 9.53475 13.2801C9.39075 13.4241 9.2125 13.4961 9 13.4961ZM6 13.4961C5.7875 13.4961 5.60925 13.4241 5.46525 13.2801C5.32175 13.1366 5.25 12.9586 5.25 12.7461C5.25 12.5336 5.32175 12.3556 5.46525 12.2121C5.60925 12.0681 5.7875 11.9961 6 11.9961C6.2125 11.9961 6.39075 12.0681 6.53475 12.2121C6.67825 12.3556 6.75 12.5336 6.75 12.7461C6.75 12.9586 6.67825 13.1366 6.53475 13.2801C6.39075 13.4241 6.2125 13.4961 6 13.4961ZM12 13.4961C11.7875 13.4961 11.6095 13.4241 11.466 13.2801C11.322 13.1366 11.25 12.9586 11.25 12.7461C11.25 12.5336 11.322 12.3556 11.466 12.2121C11.6095 12.0681 11.7875 11.9961 12 11.9961C12.2125 11.9961 12.3905 12.0681 12.534 12.2121C12.678 12.3556 12.75 12.5336 12.75 12.7461C12.75 12.9586 12.678 13.1366 12.534 13.2801C12.3905 13.4241 12.2125 13.4961 12 13.4961Z" fill="#2A2076"/>
</g>
</g>
</svg>
