<svg width="25" height="24" viewBox="0 0 25 24" fill="none" xmlns="http://www.w3.org/2000/svg">
<g id="fi-rr-chart-histogram" clip-path="url(#clip0_5595_1487)">
<path id="Vector" d="M23.5 22H5.5C4.70435 22 3.94129 21.6839 3.37868 21.1213C2.81607 20.5587 2.5 19.7956 2.5 19V1C2.5 0.734784 2.39464 0.48043 2.20711 0.292893C2.01957 0.105357 1.76522 0 1.5 0C1.23478 0 0.98043 0.105357 0.792893 0.292893C0.605357 0.48043 0.5 0.734784 0.5 1L0.5 19C0.501588 20.3256 1.02888 21.5964 1.96622 22.5338C2.90356 23.4711 4.17441 23.9984 5.5 24H23.5C23.7652 24 24.0196 23.8946 24.2071 23.7071C24.3946 23.5196 24.5 23.2652 24.5 23C24.5 22.7348 24.3946 22.4804 24.2071 22.2929C24.0196 22.1054 23.7652 22 23.5 22Z" fill="#5C2483"/>
<path id="Vector_2" d="M6.50012 20C6.76534 20 7.01969 19.8946 7.20723 19.7071C7.39476 19.5196 7.50012 19.2652 7.50012 19V12C7.50012 11.7348 7.39476 11.4804 7.20723 11.2929C7.01969 11.1054 6.76534 11 6.50012 11C6.2349 11 5.98055 11.1054 5.79301 11.2929C5.60548 11.4804 5.50012 11.7348 5.50012 12V19C5.50012 19.2652 5.60548 19.5196 5.79301 19.7071C5.98055 19.8946 6.2349 20 6.50012 20Z" fill="#5C2483"/>
<path id="Vector_3" d="M10.4999 10V19C10.4999 19.2652 10.6052 19.5196 10.7928 19.7071C10.9803 19.8946 11.2347 20 11.4999 20C11.7651 20 12.0195 19.8946 12.207 19.7071C12.3945 19.5196 12.4999 19.2652 12.4999 19V10C12.4999 9.73478 12.3945 9.48043 12.207 9.29289C12.0195 9.10536 11.7651 9 11.4999 9C11.2347 9 10.9803 9.10536 10.7928 9.29289C10.6052 9.48043 10.4999 9.73478 10.4999 10Z" fill="#5C2483"/>
<path id="Vector_4" d="M15.5 13V19C15.5 19.2652 15.6054 19.5196 15.7929 19.7071C15.9804 19.8946 16.2348 20 16.5 20C16.7652 20 17.0196 19.8946 17.2071 19.7071C17.3947 19.5196 17.5 19.2652 17.5 19V13C17.5 12.7348 17.3947 12.4804 17.2071 12.2929C17.0196 12.1054 16.7652 12 16.5 12C16.2348 12 15.9804 12.1054 15.7929 12.2929C15.6054 12.4804 15.5 12.7348 15.5 13Z" fill="#5C2483"/>
<path id="Vector_5" d="M20.5001 9V19C20.5001 19.2652 20.6055 19.5196 20.793 19.7071C20.9806 19.8946 21.2349 20 21.5001 20C21.7653 20 22.0197 19.8946 22.2072 19.7071C22.3948 19.5196 22.5001 19.2652 22.5001 19V9C22.5001 8.73478 22.3948 8.48043 22.2072 8.29289C22.0197 8.10536 21.7653 8 21.5001 8C21.2349 8 20.9806 8.10536 20.793 8.29289C20.6055 8.48043 20.5001 8.73478 20.5001 9Z" fill="#5C2483"/>
<path id="Vector_6" d="M6.49979 9.00334C6.76498 9.00328 7.01929 8.89789 7.20679 8.71034L10.7928 5.12434C10.9834 4.94276 11.2365 4.84148 11.4998 4.84148C11.763 4.84148 12.0162 4.94276 12.2068 5.12434L14.3788 7.29634C14.9414 7.85875 15.7043 8.1747 16.4998 8.1747C17.2953 8.1747 18.0582 7.85875 18.6208 7.29634L24.2068 1.71034C24.3889 1.52173 24.4897 1.26913 24.4875 1.00694C24.4852 0.744739 24.38 0.493926 24.1946 0.308518C24.0092 0.12311 23.7584 0.0179412 23.4962 0.0156628C23.234 0.0133844 22.9814 0.114179 22.7928 0.296337L17.2068 5.88134C17.0193 6.06881 16.765 6.17412 16.4998 6.17412C16.2346 6.17412 15.9803 6.06881 15.7928 5.88134L13.6208 3.71034C13.0582 3.14792 12.2953 2.83198 11.4998 2.83198C10.7043 2.83198 9.94137 3.14792 9.37879 3.71034L5.79279 7.29634C5.65298 7.43619 5.55777 7.61435 5.5192 7.80831C5.48064 8.00226 5.50044 8.20329 5.57611 8.38599C5.65178 8.56869 5.77992 8.72485 5.94433 8.83474C6.10874 8.94462 6.30204 9.00329 6.49979 9.00334Z" fill="#5C2483"/>
</g>
<defs>
<clipPath id="clip0_5595_1487">
<rect width="24" height="24" fill="white" transform="translate(0.5)"/>
</clipPath>
</defs>
</svg>
