<svg width="20" height="20" viewBox="0 0 20 20" fill="none" xmlns="http://www.w3.org/2000/svg">
<g id="delete_forever">
<mask id="mask0_383_7202" style="mask-type:alpha" maskUnits="userSpaceOnUse" x="0" y="0" width="20" height="20">
<rect id="Bounding box" width="20" height="20" fill="#D9D9D9"/>
</mask>
<g mask="url(#mask0_383_7202)">
<path id="delete_forever_2" d="M7.83333 13.75L9.99999 11.5833L12.1667 13.75L13.3333 12.5833L11.1667 10.4167L13.3333 8.25L12.1667 7.08333L9.99999 9.25L7.83333 7.08333L6.66666 8.25L8.83333 10.4167L6.66666 12.5833L7.83333 13.75ZM5.83333 17.5C5.37499 17.5 4.98277 17.3369 4.65666 17.0108C4.32999 16.6842 4.16666 16.2917 4.16666 15.8333V5H3.33333V3.33333H7.49999V2.5H12.5V3.33333H16.6667V5H15.8333V15.8333C15.8333 16.2917 15.6703 16.6842 15.3442 17.0108C15.0175 17.3369 14.625 17.5 14.1667 17.5H5.83333ZM14.1667 5H5.83333V15.8333H14.1667V5Z" fill="white"/>
</g>
</g>
</svg>
