<svg width="25" height="24" viewBox="0 0 25 24" fill="none" xmlns="http://www.w3.org/2000/svg">
<g id="delay-user" clip-path="url(#clip0_5595_1296)">
<path id="Vector" d="M17.5 24C16.1156 24 14.7622 23.5895 13.611 22.8203C12.4599 22.0511 11.5627 20.9579 11.0329 19.6788C10.5031 18.3997 10.3644 16.9922 10.6345 15.6344C10.9046 14.2765 11.5713 13.0292 12.5503 12.0503C13.5293 11.0713 14.7765 10.4046 16.1344 10.1345C17.4923 9.86441 18.8997 10.003 20.1788 10.5328C21.4579 11.0627 22.5512 11.9599 23.3203 13.111C24.0895 14.2622 24.5 15.6155 24.5 17C24.4979 18.8559 23.7597 20.6351 22.4474 21.9474C21.1352 23.2597 19.3559 23.9979 17.5 24ZM17.5 12C16.5111 12 15.5444 12.2932 14.7222 12.8427C13.8999 13.3921 13.2591 14.173 12.8806 15.0866C12.5022 16.0002 12.4032 17.0056 12.5961 17.9755C12.789 18.9454 13.2652 19.8363 13.9645 20.5355C14.6638 21.2348 15.5547 21.711 16.5246 21.9039C17.4945 22.0969 18.4998 21.9978 19.4135 21.6194C20.3271 21.241 21.108 20.6001 21.6574 19.7779C22.2068 18.9556 22.5 17.9889 22.5 17C22.4985 15.6744 21.9712 14.4036 21.0338 13.4662C20.0965 12.5289 18.8256 12.0016 17.5 12ZM19.207 18.707C19.3945 18.5195 19.4998 18.2652 19.4998 18C19.4998 17.7348 19.3945 17.4805 19.207 17.293L18.5 16.586V15C18.5 14.7348 18.3947 14.4804 18.2071 14.2929C18.0196 14.1054 17.7653 14 17.5 14C17.2348 14 16.9805 14.1054 16.7929 14.2929C16.6054 14.4804 16.5 14.7348 16.5 15V17C16.5001 17.2652 16.6055 17.5195 16.793 17.707L17.793 18.707C17.9806 18.8945 18.2349 18.9998 18.5 18.9998C18.7652 18.9998 19.0195 18.8945 19.207 18.707ZM2.50004 23C2.50256 21.1626 3.11472 19.378 4.24054 17.9258C5.36636 16.4737 6.9422 15.4362 8.72104 14.976C8.84921 14.947 8.97041 14.893 9.07771 14.8171C9.18502 14.7413 9.27634 14.645 9.34645 14.5339C9.41655 14.4227 9.46408 14.2988 9.48632 14.1693C9.50855 14.0398 9.50506 13.9072 9.47604 13.779C9.44702 13.6508 9.39303 13.5296 9.31717 13.4223C9.24131 13.315 9.14506 13.2237 9.0339 13.1536C8.92275 13.0835 8.79888 13.036 8.66936 13.0137C8.53984 12.9915 8.40721 12.995 8.27904 13.024C6.05008 13.5709 4.0703 14.8527 2.65901 16.6626C1.24772 18.4725 0.487175 20.705 0.500038 23C0.500038 23.2652 0.605395 23.5196 0.792932 23.7071C0.980468 23.8946 1.23482 24 1.50004 24C1.76525 24 2.01961 23.8946 2.20715 23.7071C2.39468 23.5196 2.50004 23.2652 2.50004 23ZM8.97404 11C7.88624 11 6.82287 10.6774 5.9184 10.0731C5.01393 9.46874 4.30898 8.60976 3.8927 7.60476C3.47642 6.59977 3.3675 5.4939 3.57972 4.42701C3.79194 3.36011 4.31576 2.3801 5.08495 1.61092C5.85414 0.841726 6.83415 0.317902 7.90104 0.105683C8.96794 -0.106535 10.0738 0.00238308 11.0788 0.418665C12.0838 0.834947 12.9428 1.5399 13.5471 2.44437C14.1515 3.34884 14.474 4.41221 14.474 5.5C14.4725 6.95821 13.8925 8.35623 12.8614 9.38734C11.8303 10.4184 10.4322 10.9984 8.97404 11ZM8.97404 2C8.2818 2 7.60511 2.20527 7.02954 2.58986C6.45397 2.97444 6.00537 3.52107 5.74046 4.16061C5.47555 4.80015 5.40624 5.50389 5.54129 6.18282C5.67634 6.86175 6.00968 7.48539 6.49917 7.97488C6.98865 8.46436 7.61229 8.7977 8.29122 8.93275C8.97016 9.0678 9.67389 8.99849 10.3134 8.73358C10.953 8.46868 11.4996 8.02007 11.8842 7.4445C12.2688 6.86893 12.474 6.19224 12.474 5.5C12.474 4.57175 12.1053 3.68151 11.4489 3.02513C10.7925 2.36875 9.9023 2 8.97404 2Z" fill="#5C2483"/>
</g>
<defs>
<clipPath id="clip0_5595_1296">
<rect width="24" height="24" fill="white" transform="translate(0.5)"/>
</clipPath>
</defs>
</svg>
