<svg xmlns="http://www.w3.org/2000/svg" xmlns:xlink="http://www.w3.org/1999/xlink" viewBox="0 0 100 100"><defs><clipPath id="clip-path"><ellipse cx="49.95" cy="49.28" rx="49.8" ry="49.28" fill="none"/></clipPath></defs><title>User</title><g style="isolation:isolate"><g id="Layer_1" data-name="Layer 1"><ellipse cx="50" cy="50.52" rx="50" ry="49.48" fill="#eaeaea"/><g clip-path="url(#clip-path)"><path d="M47,70.15a1.54,1.54,0,0,0,.38.24Z" fill="#3b2b2b"/><path d="M46.68,70.52a2.22,2.22,0,0,0,.49.33.53.53,0,0,0,.71-.19.52.52,0,0,0-.19-.71l-.38-.24a.53.53,0,0,0-.71.19.52.52,0,0,0,.19.71l.38.24.53-.89-.18-.09-.09-.06c.11.08,0,0,0,0a.53.53,0,0,0-.74,0A.51.51,0,0,0,46.68,70.52Z" fill="#3b2b2b"/><path d="M69.3,31.78a18.46,18.46,0,0,0-8.42-11.32,18.65,18.65,0,0,0-6.28-2.05,16.87,16.87,0,0,0-9.83,1.24A17.88,17.88,0,0,0,35.95,30,21.63,21.63,0,0,0,35,38c.06,1.33.23,2.65.41,4a9.68,9.68,0,0,0,1.44,4l.45-.78h0a.52.52,0,0,0-.45.78c.86,1.56,1.77,3.09,2.69,4.62A13.16,13.16,0,0,1,41,53.47c.67,2.17-2.06,4.06-3.28,5.45-1.67,1.89-1.48,3.88,0,5.86A14.51,14.51,0,0,0,41.35,68C43,69.16,45,69.6,46.78,70.6c.5.29,1.09-.41.63-.81s-1.27-.86-1.25-1.66.32-1.85.35-2.78c.08-2-.77-5.2,1.15-6.55A10.73,10.73,0,0,1,51.1,57.6a5.47,5.47,0,0,1,2-.22c.51.07.59.5,1.13.51s1.25-1,1.6-1.41a7.86,7.86,0,0,0,1.3-1.78l.23-.51c.05-.12,0,.05.36,0a3.74,3.74,0,0,0,.85-.24,14.39,14.39,0,0,0,3.69-2.65,26.19,26.19,0,0,0,4.39-5.19A19.49,19.49,0,0,0,69.3,31.78c-.14-.65-1.15-.38-1,.27,1.22,5.71-.72,11.57-4.4,16a23.31,23.31,0,0,1-4.48,4.19,6.45,6.45,0,0,1-1.45.83c-.83.3-1.28.09-1.66.94a9.63,9.63,0,0,1-2.22,2.9s.48.13.28,0a2,2,0,0,0-.75-.41c-1.26-.39-2.85.16-4,.52-2.14.66-3.71,1.44-4,3.8-.31,2.14.15,4.29-.25,6.42-.31,1.63.19,2.27,1.41,3.33l.63-.81c-1.57-.9-3.33-1.36-4.91-2.24a12.41,12.41,0,0,1-4.16-3.74A3,3,0,0,1,38,60.31a15.34,15.34,0,0,1,2.24-2.46c1.25-1.3,2.37-3.07,1.73-4.92a15.46,15.46,0,0,0-1.46-2.78c-.91-1.53-1.83-3.06-2.69-4.62l-.45.78h0a.52.52,0,0,0,.45-.78,9.66,9.66,0,0,1-1.07-2.13,13.44,13.44,0,0,1-.35-2.22A38.7,38.7,0,0,1,36,36.65a18,18,0,0,1,2-8.91,15.78,15.78,0,0,1,10-8.16,17.76,17.76,0,0,1,9.31.55A15.43,15.43,0,0,1,64.64,25a16.94,16.94,0,0,1,3.65,7C68.45,32.7,69.46,32.43,69.3,31.78Z" fill="#383838"/><path d="M68.8,31.92a18.42,18.42,0,0,0-8.07-11C58.48,19.62,45.09,14,37.6,27.47c-2.73,4.9-2.28,10.56-1.44,15.78a7.78,7.78,0,0,0,1.18,2.55h0c2.56,4.69,4.35,6.86,4.28,8.23-.14,4-6.38,5.28-4.15,9.41a13.14,13.14,0,0,0,4.66,4.48c1.54.89,3.38,1.31,4.91,2.24l0,0c-2.23-1.65-1.08-1.88-1-4.78.07-3.1-.73-6.31,2.12-7.35,9.1-3.39,3.75,2.32,8.33-3.1l.5-1.12.91-.17c1.62-.26,8.53-5.68,10.44-12.4A19.57,19.57,0,0,0,68.8,31.92Z" fill="#383838"/><polygon points="42.14 61.13 61.08 60.73 62.53 68.97 40.57 70.08 42.14 61.13" fill="#e65146"/><path d="M64.71,66.52c-7.54-2-5.29-7.4-4.92-18.23l-8.21.9-8.21-.66c.36,10.83,2.86,15.82-4.93,18-6.08,1.69,8.27,27.08,8.27,27.08h9.72S70.8,68.17,64.71,66.52Z" fill="#ffc994"/><path d="M37.38,70.23h6.87a5,5,0,0,1,3.57,1.45,4.82,4.82,0,0,0-4.33-2.38H37.38Z" fill="#e6e6e6" style="mix-blend-mode:multiply"/><path d="M65.94,70.23H59.07a5,5,0,0,0-3.57,1.45,4.82,4.82,0,0,1,4.33-2.38h6.11Z" fill="#e6e6e6" style="mix-blend-mode:multiply"/><path d="M51.66,73.91a2.13,2.13,0,0,1-1.57-.65c0,.09.68,1.6,1.57,1.6s1.59-1.51,1.57-1.6A2.13,2.13,0,0,1,51.66,73.91Z" fill="#e6e6e6" style="mix-blend-mode:multiply"/><path d="M76.38,98.57l0-.06c1.47-9.28,6.15-25.65,6.15-25.65L64.42,64.92l-5.48,9.7L51.64,83l-7.3-8.44-5.63-9.67L20.58,72.85S23.9,89.2,25.41,98.57Z" fill="#ff544f"/><polygon points="52.89 98.57 52.89 82.18 51.65 83.03 50.43 82.18 50.43 98.57 52.89 98.57" fill="#ff8880"/><ellipse cx="51.66" cy="84.53" rx="0.68" ry="0.67" fill="#e65146"/><ellipse cx="51.66" cy="92.79" rx="0.68" ry="0.67" fill="#e65146"/><polygon points="44.32 74.57 33.52 78.29 43.39 77.17 51.65 83.03 44.32 74.57" fill="#b3b3b3" style="mix-blend-mode:multiply"/><polygon points="58.94 74.62 51.65 83.03 59.61 77.52 69.8 78.4 58.94 74.62" fill="#b3b3b3" style="mix-blend-mode:multiply"/><polygon points="37.63 63.77 42.14 61.13 44.32 74.57 33.52 78.29 37.63 63.77" fill="#ff8880"/><polygon points="65.57 63.87 61.08 60.73 58.94 74.62 69.8 78.43 65.57 63.87" fill="#ff8880"/><path d="M27.87,98.57c-1.72-8.8-5.63-28.36-7.61-25.46-3.7,5.4-5.07,18.13-5.56,25.46Z" fill="#ff544f"/><path d="M88.39,98.57c-1.36-12-4.44-23.86-5.84-25.71,0,0-5.55,17.41-7.71,25.48l-.07.23Z" fill="#ff544f"/><path d="M41.88,49.08c.11.88.32,1.47-.31,1.67s-1.55.59-1.89-1.35l-1.34-6.56A1.58,1.58,0,0,1,39.46,41h0A1.42,1.42,0,0,1,41,42.36Z" fill="#f5c38e"/><path d="M61.4,49c-.13.88-.35,1.46.27,1.68s1.53.63,1.92-1.3l1.5-6.53A1.58,1.58,0,0,0,64,41h0a1.41,1.41,0,0,0-1.57,1.32Z" fill="#f5c38e"/><path d="M52.17,60.5h-.73a8.77,8.77,0,0,1-5.94-2.85c2,3.35,5.25,5,6.31,5s4.34-1.68,6.31-5A8.76,8.76,0,0,1,52.17,60.5Z" fill="#e8e8e8" style="mix-blend-mode:multiply"/><path d="M51.72,25.73c-4.12,0-12.3.89-12.3,10.66A45.13,45.13,0,0,0,40.5,48c2.26,8.3,6.39,12.48,11.22,12.48s9-4.18,11.22-12.48A45.2,45.2,0,0,0,64,36.39C64,26.62,55.84,25.73,51.72,25.73Z" fill="#fecd98"/><path d="M54.64,41.76c-.48-.56,0-1,.52-1.34a6.78,6.78,0,0,1,5.13-.4c.81.31,1.62,1.87,1.62,1.87a3,3,0,0,0-2.75-1.34A11.1,11.1,0,0,0,54.64,41.76Z" fill="#75664f"/><path d="M48.79,41.76c.48-.56,0-1-.52-1.34a6.78,6.78,0,0,0-5.13-.4c-.81.31-1.62,1.87-1.62,1.87a3,3,0,0,1,2.75-1.34A11.1,11.1,0,0,1,48.79,41.76Z" fill="#75664f"/><path d="M51.74,55.28c-1.92,0-2.43-.37-4.47-1.25,1.5,1.14,1.71,2.77,4.47,2.77s2.93-1.5,4.44-2.77C54.15,54.92,53.65,55.25,51.74,55.28Z" fill="#f58a71"/><path d="M53.4,54.19a10.69,10.69,0,0,0-1.68.16A10.67,10.67,0,0,0,50,54.19a6.13,6.13,0,0,1-3.1-.37,7.91,7.91,0,0,0,9.57,0A6.14,6.14,0,0,1,53.4,54.19Z" fill="#d97a64"/><path d="M47,43.28a5.9,5.9,0,0,0-3,0,3.8,3.8,0,0,0-2.16,1.58,3,3,0,0,1,1.46-.19,5.91,5.91,0,0,0,3,.31C46.45,44.72,47,43.28,47,43.28Z" fill="#ad9985"/><path d="M48.82,45.09c-.34-.53-1.06-1.6-1.85-1.81a3.66,3.66,0,0,0-3.24.36c-.37.28-.74.69.24,1.1,1.43.59,3.22.16,4,.16C48.8,45.29,48.82,45.09,48.82,45.09Z" fill="#fff"/><path d="M47,43.78a1.24,1.24,0,0,0-.13-.54,3.87,3.87,0,0,0-2.14-.07,1.81,1.81,0,0,0-.15.61,1.21,1.21,0,0,0,2.41,0Z" fill="#bd937d"/><path d="M45.86,43.42a.34.34,0,0,1-.58.25.48.48,0,0,0,0,.11.49.49,0,1,0,.57-.48A.34.34,0,0,1,45.86,43.42Z" fill="#636363" style="mix-blend-mode:multiply"/><path d="M48.63,45.13c-.38-.57-1-1.38-1.65-1.5a5.54,5.54,0,0,0-3.24.36,1.24,1.24,0,0,0-.34.36v0l0,0v0c-.09-.24.14-.46.37-.63A3.66,3.66,0,0,1,47,43.28c.79.21,1.51,1.28,1.85,1.81C48.82,45.09,48.81,45.15,48.63,45.13Z" fill="#c2c2c2" style="mix-blend-mode:multiply"/><path d="M48.38,44.46a3.22,3.22,0,0,0-5.26-.79C47,42.07,48.19,44.27,48.38,44.46Z" fill="#3b362f"/><path d="M56.47,43.28a5.9,5.9,0,0,1,3,0,3.8,3.8,0,0,1,2.16,1.58,3,3,0,0,0-1.46-.19,5.91,5.91,0,0,1-3,.31C57,44.72,56.47,43.28,56.47,43.28Z" fill="#ad9985"/><path d="M54.62,45.09c.34-.53,1.06-1.6,1.85-1.81a3.66,3.66,0,0,1,3.24.36c.37.28.74.69-.24,1.1-1.43.59-3.22.16-4,.16C54.63,45.29,54.62,45.09,54.62,45.09Z" fill="#fff"/><path d="M56.46,43.78a1.24,1.24,0,0,1,.13-.54,3.87,3.87,0,0,1,2.14-.07,1.81,1.81,0,0,1,.15.61,1.21,1.21,0,0,1-2.41,0Z" fill="#bd937d"/><path d="M57.57,43.42a.34.34,0,0,0,.58.25.48.48,0,0,1,0,.11.49.49,0,1,1-.57-.48A.34.34,0,0,0,57.57,43.42Z" fill="#636363" style="mix-blend-mode:multiply"/><path d="M54.8,45.13c.38-.57,1-1.38,1.65-1.5a5.54,5.54,0,0,1,3.24.36,1.24,1.24,0,0,1,.34.36v0l0,0v0c.09-.24-.14-.46-.37-.63a3.66,3.66,0,0,0-3.24-.36c-.79.21-1.51,1.28-1.85,1.81C54.62,45.09,54.63,45.15,54.8,45.13Z" fill="#c2c2c2" style="mix-blend-mode:multiply"/><path d="M55,44.46a3.22,3.22,0,0,1,5.26-.79C56.42,42.07,55.24,44.27,55,44.46Z" fill="#3b362f"/><g style="mix-blend-mode:multiply"><path d="M51.91,52.31c.84-.11,1.54-1,2.32-1s0,.46-.95.48A2.62,2.62,0,0,1,51.91,52.31Z" fill="#c7c7c7"/><path d="M51.53,52.31c-.84-.11-1.54-1-2.32-1s0,.46.95.48A2.62,2.62,0,0,0,51.53,52.31Z" fill="#c7c7c7"/></g><path d="M58.77,20.21s2.59,5.28-1.53,7.91c0,0,.1,3.39,7.78,9.46,0,0,3.54,3-.23,10.46C64.78,48,77.36,34.34,58.77,20.21Z" fill="#424040"/><path d="M59.75,28.12c2.06-.73,7.55-3.73-2-8.43a4.53,4.53,0,0,0-.95-.38l-2.07.1-1.26,1.24c-3.25-.9-5.91,4.29-8.53,5.72-4.49,2.38-8.46,8.6-7.2,17.31l1.89-.62S45.91,40.57,47.8,35c1-3.07,4-5.23,8.18-5.6A16.23,16.23,0,0,0,59.75,28.12Z" fill="#383838"/></g></g></g></svg>