<?xml version="1.0" encoding="UTF-8" standalone="no"?>
<svg
   xmlns:dc="http://purl.org/dc/elements/1.1/"
   xmlns:cc="http://creativecommons.org/ns#"
   xmlns:rdf="http://www.w3.org/1999/02/22-rdf-syntax-ns#"
   xmlns:svg="http://www.w3.org/2000/svg"
   xmlns="http://www.w3.org/2000/svg"
   id="svg4605"
   version="1.1"
   viewBox="0 0 13.229166 13.229167"
   height="50"
   width="50">
  <defs
     id="defs4599" />
  <metadata
     id="metadata4602">
    <rdf:RDF>
      <cc:Work
         rdf:about="">
        <dc:format>image/svg+xml</dc:format>
        <dc:type
           rdf:resource="http://purl.org/dc/dcmitype/StillImage" />
        <dc:title></dc:title>
      </cc:Work>
    </rdf:RDF>
  </metadata>
  <g
     transform="translate(0,-283.77082)"
     id="layer1">
    <path
       d="m 7.5966471,294.93599 c -0.5931014,-0.11278 -1.0338803,-0.26213 -1.5954436,-0.5406 l -0.3272324,-0.16226 -1.2183542,-0.003 c -0.8201766,-0.002 -1.2624183,-0.0195 -1.3531826,-0.0529 -0.2526686,-0.0931 -0.497326,-0.30344 -0.6273722,-0.53924 -0.1093731,-0.19832 -0.1270289,-0.27447 -0.1270345,-0.54791 -5.6e-6,-0.27002 0.017392,-0.34719 0.1161433,-0.51517 0.063882,-0.10867 0.1964364,-0.26631 0.2945644,-0.3503 0.2987736,-0.25574 0.4437451,-0.27785 1.8223026,-0.27785 1.3869935,0 1.6044892,-0.0295 2.1708464,-0.29444 0.3505693,-0.164 0.8212913,-0.49252 0.931825,-0.65033 0.08071,-0.11523 0.081465,-0.36545 0.00146,-0.47969 -0.082291,-0.11749 -0.2922942,-0.20059 -0.423609,-0.16763 -0.058289,0.0146 -0.2022124,0.11206 -0.3198292,0.21652 -0.1176176,0.10446 -0.3037223,0.23542 -0.4135665,0.29102 -0.237658,0.12029 -0.5503,0.21878 -0.5848424,0.18423 -0.033974,-0.034 1.7626473,-2.57198 1.8205868,-2.57186 0.025635,6e-5 0.5701181,0.2573 1.2099639,0.57166 l 1.1633561,0.57156 h 0.371644 0.371645 v 2.43088 2.43087 l -0.3143,0.13085 c -0.615902,0.2564 -1.10781,0.34997 -1.9299764,0.36714 -0.5037386,0.0105 -0.8366368,-0.003 -1.0395828,-0.0413 z m 0,0 c -0.5931014,-0.11278 -1.0338803,-0.26213 -1.5954436,-0.5406 l -0.3272324,-0.16226 -1.2183542,-0.003 c -0.8201766,-0.002 -1.2624183,-0.0195 -1.3531826,-0.0529 -0.2526686,-0.0931 -0.497326,-0.30344 -0.6273722,-0.53924 -0.1093731,-0.19832 -0.1270289,-0.27447 -0.1270345,-0.54791 -5.6e-6,-0.27002 0.017392,-0.34719 0.1161433,-0.51517 0.063882,-0.10867 0.1964364,-0.26631 0.2945644,-0.3503 0.2987736,-0.25574 0.4437451,-0.27785 1.8223026,-0.27785 1.3869935,0 1.6044892,-0.0295 2.1708464,-0.29444 0.3505693,-0.164 0.8212913,-0.49252 0.931825,-0.65033 0.08071,-0.11523 0.081465,-0.36545 0.00146,-0.47969 -0.082291,-0.11749 -0.2922942,-0.20059 -0.423609,-0.16763 -0.058289,0.0146 -0.2022124,0.11206 -0.3198292,0.21652 -0.1176176,0.10446 -0.3037223,0.23542 -0.4135665,0.29102 -0.237658,0.12029 -0.5503,0.21878 -0.5848424,0.18423 -0.033974,-0.034 1.7626473,-2.57198 1.8205868,-2.57186 0.025635,6e-5 0.5701181,0.2573 1.2099639,0.57166 l 1.1633561,0.57156 h 0.371644 0.371645 v 2.43088 2.43087 l -0.3143,0.13085 c -0.615902,0.2564 -1.10781,0.34997 -1.9299764,0.36714 -0.5037386,0.0105 -0.8366368,-0.003 -1.0395828,-0.0413 z m 0.1351722,-6.52 -1.905,2.69875 c 0.47625,-0.0794 0.9260416,-0.29104 1.2435416,-0.635 0.15875,-0.15875 0.396875,-0.15875 0.555625,0 0.15875,0.15875 0.15875,0.39688 0,0.55563 -0.555625,0.55562 -1.349375,0.89958 -2.143125,0.89958 -0.396875,0 -1.905,0 -2.0108333,0 -0.6085417,0 -1.1641668,0.50271 -1.1641668,1.16417 0,0.635 0.5291668,1.16417 1.1641668,1.16417 h 2.2225 c 0.1852083,0.0794 1.2170833,0.76729 2.8045833,0.76729 0.7937501,0 1.6668751,-0.18521 2.3812501,-0.52917 v -4.89479 h -0.714375 z m -2.1960417,6.61459 H 5.0330693 v 0 0.18521 c 0,0.3175 0.2645833,0.58208 0.5820833,0.58208 0.2910417,0 0.5027083,-0.21167 0.555625,-0.47625 -0.1322917,-0.0529 -0.2645833,-0.10583 -0.3704167,-0.15875 z m -2.4341667,-0.0529 v 0.23813 c 0,0.3175 0.2645834,0.58208 0.5820834,0.58208 0.3175,0 0.5820833,-0.26458 0.5820833,-0.58208 V 295.0306 H 3.4984859 c -0.1322916,0 -0.2645833,-0.0265 -0.396875,-0.0529 z m 1.1641667,-7.62 -1.4816667,0.635 c -0.2116667,0.10583 -0.3968751,0.23813 -0.5291667,0.44979 l -2.11666665,3.36021 c -0.26458335,0.52917 -0.079375,1.16417 0.4233333,1.48167 0,-0.0265 0,-0.0265 0.026458,-0.0529 l 4.15395845,-5.95312 c -0.15875,0 -0.3175,0 -0.47625,0.0794 z m -0.7672917,3.78354 h 1.3758334 l 2.4870833,-3.57187 -1.27,-0.87313 -3.175,4.55084 c 0.1852083,-0.0529 0.3704167,-0.10584 0.5820833,-0.10584 z m 4.9741667,-5.13291 c 0.1322917,-0.18523 0.079375,-0.42336 -0.1058333,-0.52919 l -0.635,-0.44979 c -0.1852084,-0.13229 -0.4233334,-0.0794 -0.5291667,0.10583 l -0.6614583,0.9525 1.27,0.89958 z m 4.3656244,3.59833 h -1.164166 v 5.82083 c 0,0.29104 0.291041,0.47625 0.555625,0.34396 l 0.820208,-0.60856 c 0.105833,-0.0794 0.15875,-0.18521 0.15875,-0.3175 v -4.86833 c 0.02646,-0.21167 -0.15875,-0.37042 -0.370417,-0.37042 z m -11.2712495,3.57187 -0.3704167,0.52917 c -0.026458,0.0265 -0.052917,0.0794 -0.052917,0.10583 l -0.34395835,1.16417 c -0.052917,0.15875 0,0.3175 0.15875,0.42333 0.13229165,0.10584 0.31749995,0.10584 0.44979165,0 l 0.9789583,-0.74083 c -0.47625,-0.3175 -0.79375,-0.87312 -0.8202079,-1.48167 z m 6.1647918,-4.7625 -1.905,2.69875 c 0.47625,-0.0794 0.9260416,-0.29104 1.2435416,-0.635 0.15875,-0.15875 0.396875,-0.15875 0.555625,0 0.15875,0.15875 0.15875,0.39688 0,0.55563 -0.555625,0.55562 -1.349375,0.89958 -2.143125,0.89958 -0.396875,0 -1.905,0 -2.0108333,0 -0.6085417,0 -1.1641668,0.50271 -1.1641668,1.16417 0,0.635 0.5291668,1.16417 1.1641668,1.16417 h 2.2225 c 0.1852083,0.0794 1.2170833,0.76729 2.8045833,0.76729 0.7937501,0 1.6668751,-0.18521 2.3812501,-0.52917 v -4.89479 H 10.165986 Z M 5.5357776,295.0306 H 5.0330693 v 0 0.18521 c 0,0.3175 0.2645833,0.58208 0.5820833,0.58208 0.2910417,0 0.5027083,-0.21167 0.555625,-0.47625 -0.1322917,-0.0529 -0.2645833,-0.10583 -0.3704167,-0.15875 z m -2.4341667,-0.0529 v 0.23813 c 0,0.3175 0.2645834,0.58208 0.5820834,0.58208 0.3175,0 0.5820833,-0.26458 0.5820833,-0.58208 v -0.18521 H 3.4984859 c -0.1322916,0 -0.2645833,-0.0265 -0.396875,-0.0529 z m 1.1641667,-7.62 -1.4816667,0.635 c -0.2116667,0.10583 -0.3968751,0.23813 -0.5291667,0.44979 l -2.11666665,3.36021 c -0.26458335,0.52917 -0.079375,1.16417 0.4233333,1.48167 0,-0.0265 0,-0.0265 0.026458,-0.0529 l 4.15395845,-5.95312 c -0.15875,0 -0.3175,0 -0.47625,0.0794 z m -0.7672917,3.78354 h 1.3758334 l 2.4870833,-3.57187 -1.27,-0.87313 -3.175,4.55084 c 0.1852083,-0.0529 0.3704167,-0.10584 0.5820833,-0.10584 z m 4.9741667,-5.13291 c 0.1322917,-0.18525 0.079375,-0.42338 -0.1058333,-0.52921 l -0.635,-0.44979 c -0.1852084,-0.13229 -0.4233334,-0.0794 -0.5291667,0.10583 l -0.6614583,0.9525 1.27,0.89958 z m 4.3656244,3.59833 h -1.164166 v 5.82083 c 0,0.29104 0.291041,0.47625 0.555625,0.34396 l 0.820208,-0.60858 c 0.105833,-0.0794 0.15875,-0.18521 0.15875,-0.3175 v -4.86833 c 0.02646,-0.21167 -0.15875,-0.37042 -0.370417,-0.37042 z m -11.2712495,3.57187 -0.3704167,0.52917 c -0.026458,0.0265 -0.052917,0.0794 -0.052917,0.10583 l -0.34395835,1.16417 c -0.052917,0.15875 0,0.3175 0.15875,0.42333 0.13229165,0.10584 0.31749995,0.10584 0.44979165,0 l 0.9789583,-0.74083 c -0.47625,-0.3175 -0.79375,-0.87312 -0.8202079,-1.48167 z m 6.1647918,-4.7625 -1.905,2.69875 c 0.47625,-0.0794 0.9260416,-0.29104 1.2435416,-0.635 0.15875,-0.15875 0.396875,-0.15875 0.555625,0 0.15875,0.15875 0.15875,0.39688 0,0.55563 -0.555625,0.55562 -1.349375,0.89958 -2.143125,0.89958 -0.396875,0 -1.905,0 -2.0108333,0 -0.6085417,0 -1.1641668,0.50271 -1.1641668,1.16417 0,0.635 0.5291668,1.16417 1.1641668,1.16417 h 2.2225 c 0.1852083,0.0794 1.2170833,0.76729 2.8045833,0.76729 0.7937501,0 1.6668751,-0.18521 2.3812501,-0.52917 v -4.89479 h -0.714375 z m -2.1960417,6.61459 H 5.0330693 v 0 0.18521 c 0,0.3175 0.2645833,0.58208 0.5820833,0.58208 0.2910417,0 0.5027083,-0.21167 0.555625,-0.47625 -0.1322917,-0.0529 -0.2645833,-0.10583 -0.3704167,-0.15875 z m -2.4341667,-0.0529 v 0.23813 c 0,0.3175 0.2645834,0.58208 0.5820834,0.58208 0.3175,0 0.5820833,-0.26458 0.5820833,-0.58208 v -0.18521 H 3.4984859 c -0.1322916,0 -0.2645833,-0.0265 -0.396875,-0.0529 z m 1.1641667,-7.62 -1.4816667,0.635 c -0.2116667,0.10583 -0.3968751,0.23813 -0.5291667,0.44979 l -2.11666665,3.36021 c -0.26458335,0.52917 -0.079375,1.16417 0.4233333,1.48167 0,-0.0265 0,-0.0265 0.026458,-0.0529 l 4.15395845,-5.95312 c -0.15875,0 -0.3175,0 -0.47625,0.0794 z m -0.7672917,3.78354 h 1.3758334 l 2.4870833,-3.57187 -1.27,-0.87313 -3.175,4.55084 c 0.1852083,-0.0529 0.3704167,-0.10584 0.5820833,-0.10584 z m 4.9741667,-5.13291 c 0.1322917,-0.18527 0.079375,-0.4234 -0.1058333,-0.52923 l -0.635,-0.44979 c -0.1852084,-0.13229 -0.4233334,-0.0794 -0.5291667,0.10583 l -0.6614583,0.9525 1.27,0.89958 z m 4.3656244,3.59833 h -1.164166 v 5.82083 c 0,0.29104 0.291041,0.47625 0.555625,0.34396 l 0.820208,-0.6086 c 0.105833,-0.0794 0.15875,-0.18521 0.15875,-0.3175 v -4.86833 c 0.02646,-0.21167 -0.15875,-0.37042 -0.370417,-0.37042 z m -11.2712495,3.57187 -0.3704167,0.52917 c -0.026458,0.0265 -0.052917,0.0794 -0.052917,0.10583 l -0.34395835,1.16417 c -0.052917,0.15875 0,0.3175 0.15875,0.42333 0.13229165,0.10584 0.31749995,0.10584 0.44979165,0 l 0.9789583,-0.74083 c -0.47625,-0.3175 -0.79375,-0.87312 -0.8202079,-1.48167 z m 6.1647918,-4.7625 -1.905,2.69875 c 0.47625,-0.0794 0.9260416,-0.29104 1.2435416,-0.635 0.15875,-0.15875 0.396875,-0.15875 0.555625,0 0.15875,0.15875 0.15875,0.39688 0,0.55563 -0.555625,0.55562 -1.349375,0.89958 -2.143125,0.89958 -0.396875,0 -1.905,0 -2.0108333,0 -0.6085417,0 -1.1641668,0.50271 -1.1641668,1.16417 0,0.635 0.5291668,1.16417 1.1641668,1.16417 h 2.2225 c 0.1852083,0.0794 1.2170833,0.76729 2.8045833,0.76729 0.7937501,0 1.6668751,-0.18521 2.3812501,-0.52917 v -4.89479 h -0.714375 z m -2.1960417,6.61459 H 5.0330693 v 0 0.18521 c 0,0.3175 0.2645833,0.58208 0.5820833,0.58208 0.2910417,0 0.5027083,-0.21167 0.555625,-0.47625 -0.1322917,-0.0529 -0.2645833,-0.10583 -0.3704167,-0.15875 z m -2.4341667,-0.0529 v 0.23813 c 0,0.3175 0.2645834,0.58208 0.5820834,0.58208 0.3175,0 0.5820833,-0.26458 0.5820833,-0.58208 v -0.18521 H 3.4984859 c -0.1322916,0 -0.2645833,-0.0265 -0.396875,-0.0529 z m 1.1641667,-7.62 -1.4816667,0.635 c -0.2116667,0.10583 -0.3968751,0.23813 -0.5291667,0.44979 l -2.11666665,3.36021 c -0.26458335,0.52917 -0.079375,1.16417 0.4233333,1.48167 0,-0.0265 0,-0.0265 0.026458,-0.0529 l 4.15395845,-5.95312 c -0.15875,0 -0.3175,0 -0.47625,0.0794 z m -0.7672917,3.78354 h 1.3758334 l 2.4870833,-3.57187 -1.27,-0.87313 -3.175,4.55084 c 0.1852083,-0.0529 0.3704167,-0.10584 0.5820833,-0.10584 z m 4.9741667,-5.13291 c 0.1322917,-0.18529 0.079375,-0.42342 -0.1058333,-0.52925 l -0.635,-0.44979 c -0.1852084,-0.13229 -0.4233334,-0.0794 -0.5291667,0.10583 l -0.6614583,0.9525 1.27,0.89958 z m 4.3656244,3.59833 h -1.164166 v 5.82083 c 0,0.29104 0.291041,0.47625 0.555625,0.34396 l 0.820208,-0.60862 c 0.105833,-0.0794 0.15875,-0.18521 0.15875,-0.3175 v -4.86833 c 0.02646,-0.21167 -0.15875,-0.37042 -0.370417,-0.37042 z m -11.2712495,3.57187 -0.3704167,0.52917 c -0.026458,0.0265 -0.052917,0.0794 -0.052917,0.10583 l -0.34395835,1.16417 c -0.052917,0.15875 0,0.3175 0.15875,0.42333 0.13229165,0.10584 0.31749995,0.10584 0.44979165,0 l 0.9789583,-0.74083 c -0.47625,-0.3175 -0.79375,-0.87312 -0.8202079,-1.48167 z"
       style="fill:#828282;fill-opacity:1;stroke-width:0.04234484"
       id="path4587" />
  </g>
</svg>
