<?xml version="1.0" encoding="utf-8"?>
<!-- Generator: Adobe Illustrator 22.1.0, SVG Export Plug-In . SVG Version: 6.00 Build 0)  -->
<svg version="1.1" id="Layer_1" xmlns="http://www.w3.org/2000/svg" xmlns:xlink="http://www.w3.org/1999/xlink" x="0px" y="0px"
	 viewBox="0 0 50 51" style="enable-background:new 0 0 50 51;" xml:space="preserve">
<style type="text/css">
	.st0{fill:#FF9F00;}
	.st1{fill:#FF7816;}
	.st2{fill:#E63950;}
	.st3{fill:#CC2E43;}
	.st4{fill:#FFD400;}
	.st5{fill:#FDBF00;}
	.st6{fill:#FF9811;}
	.st7{fill:#FFDA44;}
	.st8{fill:#F1F2F2;}
	.st9{fill:#A0815C;}
	.st10{font-family:'IndianRupee-Regular';}
	.st11{font-size:16.0229px;}
	.st12{opacity:0.24;}
</style>
<path class="st6" d="M11.6,27.7c-5.4,0-10,3.7-11.3,8.9s1.4,10.6,6.2,13c4.8,2.3,10.7,1,14-3.1V32C18.3,29.3,15,27.7,11.6,27.7z"/>
<path class="st7" d="M20.5,11H50v39.7H20.5V11z"/>
<path class="st8" d="M25.7,16.2h19.2v5.1H25.7V16.2z"/>
<g>
	<path class="st9" d="M25.7,26.4h3.8v3.8h-3.8V26.4z"/>
	<path class="st9" d="M33.3,26.4h3.8v3.8h-3.8V26.4z"/>
	<path class="st9" d="M41,26.4h3.8v3.8H41V26.4z"/>
	<path class="st9" d="M25.7,34.1h3.8V38h-3.8V34.1z"/>
	<path class="st9" d="M33.3,34.1h3.8V38h-3.8V34.1z"/>
	<path class="st9" d="M41,34.1h3.8V38H41V34.1z"/>
	<path class="st9" d="M25.7,41.8h3.8v3.8h-3.8V41.8z"/>
	<path class="st9" d="M33.3,41.8h3.8v3.8h-3.8V41.8z"/>
	<path class="st9" d="M41,41.8h3.8v3.8H41V41.8z"/>
</g>
<text transform="matrix(1 0 0 1 7.376 45.6455)" class="st8 st10 st11">`</text>
<rect x="35.3" y="11" class="st12" width="14.7" height="39.7"/>
</svg>
