<?xml version="1.0" encoding="utf-8"?>
<!-- Generator: Adobe Illustrator 22.1.0, SVG Export Plug-In . SVG Version: 6.00 Build 0)  -->
<svg version="1.1" id="Layer_1" xmlns="http://www.w3.org/2000/svg" xmlns:xlink="http://www.w3.org/1999/xlink" x="0px" y="0px"
	 viewBox="0 0 50 51" style="enable-background:new 0 0 50 51;" xml:space="preserve">
<style type="text/css">
	.st0{fill:#FF9F00;}
	.st1{fill:#FF7816;}
	.st2{fill:#E63950;}
	.st3{fill:#CC2E43;}
	.st4{fill:#FFD400;}
	.st5{fill:#FDBF00;}
	.st6{fill:#FF9811;}
	.st7{fill:#FFDA44;}
	.st8{fill:#F1F2F2;}
	.st9{fill:#A0815C;}
	.st10{opacity:0.24;}
</style>
<g>
	<path class="st0" d="M50,27.6v5.9l-2,2.5H36.7l-1.4-2.5v-5.9l3.5-3.2c-0.1-0.1,1.7,0,3.8,0.2c2.9,0.3,6.4,0.7,6.4,0.7L50,27.6z
		 M50,27.6"/>
	<path class="st1" d="M50,27.6v5.9l-2,2.5h-5.3V24.6c2.9,0.3,6.4,0.7,6.4,0.7L50,27.6z M50,27.6"/>
	<path class="st2" d="M44,2.5v5.9c0,0.8-0.6,1.5-1.5,1.5c-0.8,0-1.5-0.6-1.5-1.5V6L26,21.2c-0.3,0.3-0.6,0.4-1,0.4
		c-0.4,0-0.8-0.1-1-0.4l-4.8-4.8L8.4,27c-0.3,0.3-0.6,0.4-1,0.4c-0.4,0-0.8-0.1-1-0.4c-0.6-0.6-0.6-1.5,0-2.1l11.7-11.7
		c0.6-0.6,1.5-0.6,2.1,0l4.8,4.8L39,3.9h-2.3c-0.8,0-1.5-0.6-1.5-1.5c0-0.8,0.6-1.5,1.5-1.5h5.9C43.4,1,44,1.6,44,2.5L44,2.5z
		 M44,2.5"/>
	<path class="st0" d="M14.6,40.7v4.4c0,0-5.3,2.8-5.6,2.8c-0.1,0-0.9,0-1.7,0.1c-1.2,0-2.7,0-2.7,0L0,45.1v-4.4
		c0-0.8,0.6-1.5,1.5-1.5h11.7C14,39.3,14.6,39.9,14.6,40.7L14.6,40.7z M14.6,40.7"/>
	<path class="st0" d="M32.3,39.3v5.9l-2.2,3.1h-9.3l-3.2-3.1v-5.9l2.6-1.6h9.4L32.3,39.3z M32.3,39.3"/>
	<path class="st0" d="M50,39.3v5.9l-1.6,2.3H38.2l-2.8-2.3v-5.9l1.9-1.8h10.3L50,39.3z M50,39.3"/>
	<path class="st3" d="M44,2.5v5.9c0,0.8-0.6,1.5-1.5,1.5c-0.8,0-1.5-0.6-1.5-1.5V6L26,21.2c-0.3,0.3-0.6,0.4-1,0.4v-3.5L39,3.9h-2.3
		c-0.8,0-1.5-0.6-1.5-1.5c0-0.8,0.6-1.5,1.5-1.5h5.9C43.4,1,44,1.6,44,2.5L44,2.5z M44,2.5"/>
	<path class="st1" d="M32.3,39.3v5.9l-2.2,3.1H25V37.7h4.7L32.3,39.3z M32.3,39.3"/>
	<path class="st1" d="M47.5,37.5l2.5,1.8v5.9l-1.6,2.3h-5.7v-10H47.5z M47.5,37.5"/>
	<path class="st1" d="M14.6,40.7v4.4c0,0-5.3,2.8-5.6,2.8c-0.1,0-0.9,0-1.7,0.1v-8.7h5.9C14,39.3,14.6,39.9,14.6,40.7L14.6,40.7z
		 M14.6,40.7"/>
	<path class="st4" d="M50,45.1v4.4c0,0.8-0.6,1.5-1.5,1.5H36.8c-0.8,0-1.5-0.6-1.5-1.5v-4.4H50z M50,45.1"/>
	<path class="st4" d="M32.3,45.1v4.4c0,0.8-0.6,1.5-1.5,1.5H19.1c-0.8,0-1.5-0.6-1.5-1.5v-4.4H32.3z M32.3,45.1"/>
	<path class="st4" d="M14.6,45.1v4.4c0,0.8-0.6,1.5-1.5,1.5H1.5C0.6,51,0,50.4,0,49.5v-4.4H14.6z M14.6,45.1"/>
	<path class="st5" d="M25,45.1h7.3v4.4c0,0.8-0.6,1.5-1.5,1.5H25V45.1z M25,45.1"/>
	<path class="st5" d="M42.7,45.1H50v4.4c0,0.8-0.6,1.5-1.5,1.5h-5.9V45.1z M42.7,45.1"/>
	<path class="st5" d="M14.6,45.1v4.4c0,0.8-0.6,1.5-1.5,1.5H7.3v-5.9H14.6z M14.6,45.1"/>
	<rect x="35.4" y="33.4" class="st4" width="14.6" height="5.9"/>
	<path class="st4" d="M32.3,34.9v4.4H17.7v-4.4c0-0.8,0.6-1.5,1.5-1.5h11.7C31.7,33.4,32.3,34.1,32.3,34.9L32.3,34.9z M32.3,34.9"/>
	<path class="st5" d="M32.3,34.9v4.4H25v-5.9h5.9C31.7,33.4,32.3,34.1,32.3,34.9L32.3,34.9z M32.3,34.9"/>
	<rect x="42.7" y="33.4" class="st5" width="7.3" height="5.9"/>
	<path class="st4" d="M50,21.7v5.9H35.4v-5.9c0-0.8,0.6-1.5,1.5-1.5h11.7C49.4,20.2,50,20.9,50,21.7L50,21.7z M50,21.7"/>
	<path class="st5" d="M50,21.7v5.9h-7.3v-7.3h5.9C49.4,20.2,50,20.9,50,21.7L50,21.7z M50,21.7"/>
</g>
</svg>
