<svg width="20" height="20" viewBox="0 0 20 20" fill="none" xmlns="http://www.w3.org/2000/svg">
<g id="info">
<mask id="mask0_943_6628" style="mask-type:alpha" maskUnits="userSpaceOnUse" x="0" y="0" width="20" height="20">
<rect id="Bounding box" width="20" height="20" fill="#D9D9D9"/>
</mask>
<g mask="url(#mask0_943_6628)">
<path id="info_2" d="M9.16663 14.1641H10.8333V9.16406H9.16663V14.1641ZM9.99996 7.4974C10.2361 7.4974 10.434 7.41753 10.5937 7.25781C10.7534 7.09809 10.8333 6.90017 10.8333 6.66406C10.8333 6.42795 10.7534 6.23003 10.5937 6.07031C10.434 5.91059 10.2361 5.83073 9.99996 5.83073C9.76385 5.83073 9.56593 5.91059 9.40621 6.07031C9.24649 6.23003 9.16663 6.42795 9.16663 6.66406C9.16663 6.90017 9.24649 7.09809 9.40621 7.25781C9.56593 7.41753 9.76385 7.4974 9.99996 7.4974ZM9.99996 18.3307C8.84718 18.3307 7.76385 18.112 6.74996 17.6745C5.73607 17.237 4.85413 16.6432 4.10413 15.8932C3.35413 15.1432 2.76038 14.2613 2.32288 13.2474C1.88538 12.2335 1.66663 11.1502 1.66663 9.9974C1.66663 8.84462 1.88538 7.76128 2.32288 6.7474C2.76038 5.73351 3.35413 4.85156 4.10413 4.10156C4.85413 3.35156 5.73607 2.75781 6.74996 2.32031C7.76385 1.88281 8.84718 1.66406 9.99996 1.66406C11.1527 1.66406 12.2361 1.88281 13.25 2.32031C14.2638 2.75781 15.1458 3.35156 15.8958 4.10156C16.6458 4.85156 17.2395 5.73351 17.677 6.7474C18.1145 7.76128 18.3333 8.84462 18.3333 9.9974C18.3333 11.1502 18.1145 12.2335 17.677 13.2474C17.2395 14.2613 16.6458 15.1432 15.8958 15.8932C15.1458 16.6432 14.2638 17.237 13.25 17.6745C12.2361 18.112 11.1527 18.3307 9.99996 18.3307ZM9.99996 16.6641C11.8611 16.6641 13.4375 16.0182 14.7291 14.7266C16.0208 13.4349 16.6666 11.8585 16.6666 9.9974C16.6666 8.13628 16.0208 6.5599 14.7291 5.26823C13.4375 3.97656 11.8611 3.33073 9.99996 3.33073C8.13885 3.33073 6.56246 3.97656 5.27079 5.26823C3.97913 6.5599 3.33329 8.13628 3.33329 9.9974C3.33329 11.8585 3.97913 13.4349 5.27079 14.7266C6.56246 16.0182 8.13885 16.6641 9.99996 16.6641Z" fill="#727272"/>
</g>
</g>
</svg>
