<svg width="34" height="40" viewBox="0 0 34 40" fill="none" xmlns="http://www.w3.org/2000/svg">
<path d="M14.1666 16.8594L0 25.0345V31.5776L14.1666 23.4025L28.3333 31.5776V25.0345L14.1666 16.8594Z" fill="#BA68C8"/>
<path opacity="0.2" d="M14.1666 16.8594L0 25.0345V31.5776L14.1666 23.4025L28.3333 31.5776V25.0345L14.1666 16.8594Z" fill="black"/>
<path opacity="0.2" d="M14.167 16.8594V23.4025L28.3336 31.5776V25.0345L14.167 16.8594Z" fill="black"/>
<path d="M14.1666 34.8822L1.83594 27.3267C2.84838 24.7427 8.49993 20.1641 14.1666 20.1641C19.8332 20.1641 25.4999 24.7427 26.5048 27.3267L14.1666 34.8822Z" fill="#37474F"/>
<path d="M0 25.0312L14.1666 33.2139V39.757L0 31.5743V25.0312Z" fill="#BA68C8"/>
<path opacity="0.2" d="M0 25.0312L14.1666 33.2139V39.757L0 31.5743V25.0312Z" fill="white"/>
<path d="M28.3336 25.0312L14.167 33.2139V39.757L28.3336 31.5743V25.0312Z" fill="#BA68C8"/>
<path d="M32.1339 8.68878L17.9672 0.506127C17.3929 0.174559 16.7415 0 16.0783 0C15.4152 0 14.7637 0.174559 14.1895 0.506127V16.8639L28.3334 25.0616C30.0574 24.0663 31.4888 22.6345 32.4835 20.9102C33.4783 19.1859 34.0014 17.2301 34.0001 15.2394V11.9679C34.0037 11.3057 33.8332 10.6542 33.5056 10.0787C33.1781 9.50315 32.705 9.02384 32.1339 8.68878Z" fill="#BA68C8"/>
<path opacity="0.1" d="M28.333 25.0582V8.67019C28.9073 8.33863 29.5587 8.16407 30.2219 8.16406C30.885 8.16406 31.5364 8.33861 32.1107 8.67017C32.685 9.00172 33.1619 9.47861 33.4935 10.0529C33.8251 10.6272 33.9996 11.2786 33.9997 11.9417V15.236C34.0009 17.2266 33.4779 19.1825 32.4831 20.9067C31.4883 22.631 30.057 24.0628 28.333 25.0582Z" fill="white"/>
<path opacity="0.3" d="M28.3336 8.67776V25.0582L14.167 16.8831C15.8909 15.8877 17.3223 14.4559 18.3171 12.7316C19.3119 11.0074 19.8349 9.0515 19.8336 7.06086V3.79688L28.3336 8.67776Z" fill="black"/>
<path opacity="0.2" d="M19.8336 3.77155V7.04309C19.8349 9.03373 19.3119 10.9896 18.3171 12.7139C17.3223 14.4381 15.8909 15.87 14.167 16.8653V0.5L19.8336 3.77155Z" fill="black"/>
<path d="M14.167 16.8594L28.3336 25.0345V24.3771L14.167 16.8594Z" fill="#BA68C8"/>
<path d="M16.9244 22.721L15.6853 22.0033C15.3442 21.848 14.9681 21.7858 14.5952 21.823C14.2224 21.8601 13.866 21.9953 13.5622 22.2148C12.6847 22.782 11.9535 23.5485 11.4283 24.4518C10.9031 25.3552 10.5988 26.3698 10.54 27.413C10.5005 27.7861 10.5616 28.163 10.7171 28.5045C10.8725 28.846 11.1166 29.1396 11.424 29.3548L12.6631 30.0726C12.3569 29.8563 12.1137 29.5625 11.9584 29.2213C11.8031 28.8801 11.7412 28.5038 11.7791 28.1308C11.8361 27.0871 12.1397 26.0718 12.665 25.1682C13.1904 24.2646 13.9225 23.4984 14.8013 22.9326C15.1037 22.7102 15.4603 22.5732 15.8339 22.536C16.2074 22.4987 16.5841 22.5627 16.9244 22.721Z" fill="#BA68C8"/>
<path opacity="0.55" d="M16.9244 22.721L15.6853 22.0033C15.3442 21.848 14.9681 21.7858 14.5952 21.823C14.2224 21.8601 13.866 21.9953 13.5622 22.2148C12.6847 22.782 11.9535 23.5485 11.4283 24.4518C10.9031 25.3552 10.5988 26.3698 10.54 27.413C10.5005 27.7861 10.5616 28.163 10.7171 28.5045C10.8725 28.846 11.1166 29.1396 11.424 29.3548L12.6631 30.0726C12.3569 29.8563 12.1137 29.5625 11.9584 29.2213C11.8031 28.8801 11.7412 28.5038 11.7791 28.1308C11.8361 27.0871 12.1397 26.0718 12.665 25.1682C13.1904 24.2646 13.9225 23.4984 14.8013 22.9326C15.1037 22.7102 15.4603 22.5732 15.8339 22.536C16.2074 22.4987 16.5841 22.5627 16.9244 22.721Z" fill="white"/>
<path opacity="0.1" d="M13.6907 22.1406C11.7187 23.7122 10.9631 25.9184 11.2578 26.1526C11.5525 26.3868 12.1947 26.1526 12.1947 26.1526C11.9455 26.7758 11.8098 27.4385 11.7943 28.1095C11.7563 28.4825 11.8182 28.8588 11.9735 29.2C12.1289 29.5412 12.3721 29.835 12.6782 30.0513L11.4391 29.3335C11.1318 29.1183 10.8877 28.8247 10.7322 28.4832C10.5768 28.1417 10.5156 27.7648 10.5551 27.3917C10.6139 26.3485 10.9183 25.3339 11.4435 24.4305C11.9686 23.5272 12.6998 22.7607 13.5774 22.1935L13.6907 22.1406Z" fill="black"/>
<path d="M16.7058 23.0929C16.4747 22.9687 16.2102 22.9211 15.9503 22.9569C16.0726 23.2696 16.1316 23.6034 16.1241 23.9391C16.0918 24.9082 15.8108 25.8527 15.3081 26.6818C14.8389 27.5309 14.1633 28.2481 13.3436 28.7671C13.0559 28.9391 12.7379 29.0545 12.4067 29.1071C12.5016 29.35 12.6743 29.5546 12.8978 29.6889C13.1723 29.806 13.4729 29.8481 13.7689 29.8109C14.0649 29.7737 14.3458 29.6586 14.5827 29.4773C15.3916 28.9481 16.0647 28.236 16.5477 27.3987C17.0307 26.5613 17.3101 25.6221 17.3632 24.6569C17.3994 24.3615 17.3578 24.0618 17.2425 23.7875C17.1272 23.5132 16.9422 23.2737 16.7058 23.0929Z" fill="#BA68C8"/>
<path opacity="0.5" d="M16.7058 23.0929C16.4747 22.9687 16.2102 22.9211 15.9503 22.9569C16.0726 23.2696 16.1316 23.6034 16.1241 23.9391C16.0918 24.9082 15.8108 25.8527 15.3081 26.6818C14.8389 27.5309 14.1633 28.2481 13.3436 28.7671C13.0559 28.9391 12.7379 29.0545 12.4067 29.1071C12.5016 29.35 12.6743 29.5546 12.8978 29.6889C13.1723 29.806 13.4729 29.8481 13.7689 29.8109C14.0649 29.7737 14.3458 29.6586 14.5827 29.4773C15.3916 28.9481 16.0647 28.236 16.5477 27.3987C17.0307 26.5613 17.3101 25.6221 17.3632 24.6569C17.3994 24.3615 17.3578 24.0618 17.2425 23.7875C17.1272 23.5132 16.9422 23.2737 16.7058 23.0929Z" fill="white"/>
<path opacity="0.1" d="M16.7058 23.0929C16.4747 22.9687 16.2102 22.9211 15.9503 22.9569C16.0726 23.2696 16.1316 23.6034 16.1241 23.9391C16.0918 24.9082 15.8108 25.8527 15.3081 26.6818C14.8389 27.5309 14.1633 28.2481 13.3436 28.7671C13.0559 28.9391 12.7379 29.0545 12.4067 29.1071C12.5016 29.35 12.6743 29.5546 12.8978 29.6889C13.1723 29.806 13.4729 29.8481 13.7689 29.8109C14.0649 29.7737 14.3458 29.6586 14.5827 29.4773C15.3916 28.9481 16.0647 28.236 16.5477 27.3987C17.0307 26.5613 17.3101 25.6221 17.3632 24.6569C17.3994 24.3615 17.3578 24.0618 17.2425 23.7875C17.1272 23.5132 16.9422 23.2737 16.7058 23.0929Z" fill="black"/>
<path opacity="0.1" d="M13.4872 29.4845L13.9632 29.7565C13.7912 29.8214 13.6076 29.8496 13.4241 29.8392C13.2406 29.8288 13.0613 29.78 12.8978 29.696C12.6743 29.5618 12.5016 29.3572 12.4067 29.1142C12.7379 29.0617 13.0559 28.9463 13.3436 28.7743C14.0772 28.3195 14.6932 27.6983 15.1418 26.9609C14.4392 28.6458 13.1094 29.2654 13.4872 29.4845Z" fill="black"/>
<path d="M16.9246 22.7188C16.5842 22.5605 16.2076 22.4965 15.834 22.5338C15.4605 22.571 15.1039 22.708 14.8015 22.9304C13.9227 23.4962 13.1906 24.2624 12.6652 25.166C12.1398 26.0696 11.8362 27.0849 11.7793 28.1286C11.7038 28.5062 11.749 28.8979 11.9084 29.2484C12.0677 29.5989 12.3333 29.8905 12.6675 30.0818C13.0016 30.2731 13.3875 30.3545 13.7704 30.3145C14.1534 30.2745 14.5141 30.1151 14.8015 29.8588C15.6782 29.2907 16.4087 28.524 16.9338 27.6209C17.4589 26.7177 17.7637 25.7036 17.8237 24.6606C17.86 24.2862 17.7958 23.909 17.6377 23.5677C17.4797 23.2264 17.2335 22.9334 16.9246 22.7188ZM16.7055 23.0966C16.9418 23.2774 17.1268 23.5169 17.2421 23.7912C17.3574 24.0655 17.399 24.3652 17.3628 24.6606C17.3097 25.6258 17.0304 26.565 16.5474 27.4024C16.0644 28.2397 15.3913 28.9518 14.5824 29.4811C14.3637 29.6981 14.0797 29.8373 13.7741 29.8772C13.4686 29.917 13.1584 29.8554 12.8913 29.7016C12.6242 29.5479 12.4151 29.3107 12.2961 29.0265C12.177 28.7422 12.1547 28.4268 12.2326 28.1286C12.2898 27.1644 12.5709 26.2267 13.0535 25.39C13.5361 24.5533 14.207 23.8405 15.013 23.3082C15.2515 23.1269 15.5336 23.0119 15.8308 22.9748C16.128 22.9376 16.4297 22.9797 16.7055 23.0966Z" fill="#BA68C8"/>
<path opacity="0.8" d="M16.9246 22.7188C16.5842 22.5605 16.2076 22.4965 15.834 22.5338C15.4605 22.571 15.1039 22.708 14.8015 22.9304C13.9227 23.4962 13.1906 24.2624 12.6652 25.166C12.1398 26.0696 11.8362 27.0849 11.7793 28.1286C11.7038 28.5062 11.749 28.8979 11.9084 29.2484C12.0677 29.5989 12.3333 29.8905 12.6675 30.0818C13.0016 30.2731 13.3875 30.3545 13.7704 30.3145C14.1534 30.2745 14.5141 30.1151 14.8015 29.8588C15.6782 29.2907 16.4087 28.524 16.9338 27.6209C17.4589 26.7177 17.7637 25.7036 17.8237 24.6606C17.86 24.2862 17.7958 23.909 17.6377 23.5677C17.4797 23.2264 17.2335 22.9334 16.9246 22.7188ZM16.7055 23.0966C16.9418 23.2774 17.1268 23.5169 17.2421 23.7912C17.3574 24.0655 17.399 24.3652 17.3628 24.6606C17.3097 25.6258 17.0304 26.565 16.5474 27.4024C16.0644 28.2397 15.3913 28.9518 14.5824 29.4811C14.3637 29.6981 14.0797 29.8373 13.7741 29.8772C13.4686 29.917 13.1584 29.8554 12.8913 29.7016C12.6242 29.5479 12.4151 29.3107 12.2961 29.0265C12.177 28.7422 12.1547 28.4268 12.2326 28.1286C12.2898 27.1644 12.5709 26.2267 13.0535 25.39C13.5361 24.5533 14.207 23.8405 15.013 23.3082C15.2515 23.1269 15.5336 23.0119 15.8308 22.9748C16.128 22.9376 16.4297 22.9797 16.7055 23.0966Z" fill="white"/>
<path d="M11.7944 28.1313C11.8503 26.6975 12.382 25.3232 13.3055 24.2251C13.7462 23.6652 14.2931 23.1979 14.9149 22.85C15.2155 22.6559 15.561 22.5422 15.9181 22.5198C16.2753 22.4973 16.6322 22.5667 16.9549 22.7215C16.6311 22.5826 16.2779 22.5265 15.9271 22.5582C15.5762 22.5898 15.2387 22.7083 14.9451 22.9029C14.3364 23.2542 13.8025 23.7213 13.3735 24.278C12.4518 25.3624 11.8988 26.7119 11.7944 28.1313Z" fill="white"/>
<path d="M16.4484 20.2783L16.1311 19.9685L15.8817 19.6437L14.8466 19.2734H13.5169L12.4742 19.6437L12.2324 19.9685L11.5146 20.6486L14.1818 22.9379L16.8489 20.6486L16.4484 20.2783Z" fill="#E0E0E0"/>
<path d="M12.7308 20.2188L11.9072 20.2792L12.2321 21.0272L13.2143 20.8912L12.7308 20.2188Z" fill="#EBEBEB"/>
<path d="M15.3904 21.4219L14.1815 22.9405L12.9727 21.4219H15.3904Z" fill="#E6E6E6"/>
<path d="M13.3806 20.5391L12.9727 21.4155H15.3904L14.9749 20.5391H13.3806Z" fill="#F0F0F0"/>
<path d="M13.2144 20.8906L12.9727 21.4195H15.3904L15.1411 20.8906L14.1815 21.4195L13.2144 20.8906Z" fill="#F5F5F5"/>
<path d="M12.2321 19.9688L11.9072 20.2785L12.7308 20.2181L13.2143 20.8905L13.3805 20.543L12.2321 19.9688Z" fill="#F0F0F0"/>
<path d="M15.6247 20.2188L16.4482 20.2792L16.1309 21.0272L15.1411 20.8912L15.6247 20.2188Z" fill="#EBEBEB"/>
<path d="M16.1311 19.9688L16.4484 20.2785L15.6249 20.2181L15.1413 20.8905L14.9751 20.543L16.1311 19.9688Z" fill="#F0F0F0"/>
<path d="M16.1307 19.9685L15.6245 20.2179C15.0282 20.3632 14.4083 20.3837 13.8036 20.2783C12.9574 20.165 12.761 19.757 12.9725 19.4699L13.5165 19.2734H14.8463L15.8814 19.6437L16.1307 19.9685Z" fill="#F0F0F0"/>
<path d="M14.9751 20.5664H13.3657L12.2173 19.9922L12.459 19.6674L13.4942 19.3047H14.8466L15.8817 19.6674L16.131 19.9922L14.9826 20.5664H14.9751ZM13.3884 20.5136H14.9675L16.0857 19.962L15.8666 19.6674L14.8391 19.3047H13.5168L12.4893 19.6674L12.2702 19.962L13.3884 20.5136Z" fill="#FAFAFA"/>
<path d="M12.9875 21.4514L11.5293 20.6959L12.2849 20.0234L13.4408 20.5977L12.9875 21.4363V21.4514ZM11.5746 20.643L12.9724 21.3985L13.3577 20.5674L12.2471 20.0234L11.5746 20.643Z" fill="#FAFAFA"/>
<path d="M15.3904 21.4491L14.9521 20.5273L16.1006 19.9531L16.8184 20.6256L15.3602 21.3811L15.3904 21.4491ZM15.0126 20.55L15.3979 21.3811L16.8032 20.6256L16.1232 19.9909L15.0126 20.55Z" fill="#FAFAFA"/>
<path d="M14.1816 22.9685V22.9307L15.3905 21.4196L16.8487 20.6641V20.7019L14.1816 22.9685ZM15.4057 21.4574L14.3781 22.7494L16.6448 20.8001L15.4057 21.4574Z" fill="#FAFAFA"/>
<path d="M15.3904 21.4465H12.9878L13.4033 20.5625H14.9976L15.4056 21.4465H15.3904ZM13.0105 21.3936H15.3451L14.9598 20.5625H13.3958L13.0105 21.3936Z" fill="#FAFAFA"/>
<path d="M14.1815 22.972L12.9727 21.4609H15.3904L14.174 22.972H14.1815ZM13.0255 21.4609L14.1815 22.9116L15.33 21.4609H13.0255Z" fill="#FAFAFA"/>
<path d="M12.2324 21.0584L11.915 20.3029L12.7386 20.25L13.2222 20.9224L12.2324 21.0584ZM11.9453 20.3029L12.2475 20.998L13.1693 20.8696L12.7159 20.25L11.9453 20.3029Z" fill="#FAFAFA"/>
<path d="M16.1309 21.0584L15.1411 20.9224L15.6247 20.25L16.4558 20.3029L16.1309 21.0584ZM15.1864 20.8696L16.1158 20.998L16.4104 20.3029L15.6549 20.25L15.1864 20.8696Z" fill="#FAFAFA"/>
<path d="M14.1817 21.4465L13.2222 20.9176L14.1893 20.5625L15.1488 20.9176L14.1817 21.4465ZM13.2826 20.8949L14.1817 21.3861L15.0733 20.8949L14.1817 20.5625L13.2826 20.8949Z" fill="#FAFAFA"/>
<g opacity="0.5">
<path d="M12.8442 20.2783L14.3553 19.2734H13.7433L12.5647 20.097L11.9678 20.8903L14.1815 22.9379L12.2322 21.0263L12.8442 20.2783Z" fill="white"/>
<path d="M14.1814 22.9379L12.6703 21.2152L13.2446 20.4597L15.0428 19.3339L14.8766 19.2734L13.1086 20.3841L12.4814 21.1397C12.4814 21.1397 14.2117 22.9303 14.2192 22.9303L14.1814 22.9379Z" fill="white"/>
</g>
<path opacity="0.5" d="M13.9702 20.5391L13.5093 21.4155L14.1817 22.9342L13.7284 21.4155L14.2422 20.5391H13.9702Z" fill="white"/>
<path opacity="0.5" d="M15.2696 20.3938L15.8892 21.1569L14.1816 22.94L16.131 21.0285L15.5568 20.2578L15.2696 20.3938Z" fill="white"/>
</svg>
