<svg xmlns="http://www.w3.org/2000/svg" xmlns:xlink="http://www.w3.org/1999/xlink" viewBox="0 0 100 100"><defs><clipPath id="clip-path"><circle cx="49.95" cy="50" r="49.8" fill="none"/></clipPath></defs><title>User</title><g style="isolation:isolate"><g id="Layer_1" data-name="Layer 1"><circle cx="50" cy="50" r="50" fill="#eaeaea"/><g clip-path="url(#clip-path)"><path d="M50.25,50.77H41.2l.23,10.7a11,11,0,0,0,9,4.44c6.17,0,8.84-3.91,8.84-3.91V50.77Z" fill="#f2c99b"/><path d="M50.37,60.26c-3.75,0-6.8-2.53-8.61-5.22,1.82,4,5.51,7.8,8.61,7.8s6.56-3.68,8.38-7.63C56.94,57.89,54.12,60.26,50.37,60.26Z" fill="#ededed" style="mix-blend-mode:multiply"/><path d="M40.66,47.5c.12.82.34,1.36-.32,1.56s-1.63.56-2-1.25L36.94,41.7A1.49,1.49,0,0,1,38.12,40h0a1.43,1.43,0,0,1,1.62,1.26Z" fill="#f2c99b"/><path d="M60,47.51c-.12.82-.33,1.37.32,1.56s1.63.56,2-1.25l1.41-6.11A1.49,1.49,0,0,0,62.58,40h0A1.43,1.43,0,0,0,61,41.25Z" fill="#f2c99b"/><path d="M47.39,55.17a4.19,4.19,0,0,0,5.68,0C51.86,55.12,47.39,55.17,47.39,55.17Z" fill="#dedede" style="mix-blend-mode:multiply"/><path d="M61.07,29.8c-2.63-4.6-7.42-5.68-10.67-5.68s-8,1.08-10.67,5.68S39,42.13,40,49.11s3,7.39,5.26,9.47S49.22,61,50.4,61s2.9-.34,5.15-2.43,4.28-2.49,5.26-9.47S63.7,34.4,61.07,29.8Z" fill="#fed5aa"/><path d="M48.09,41.17A4.28,4.28,0,0,0,46,39.31a16,16,0,0,0-4.14.12,4.2,4.2,0,0,0-1.56,2.3C41.67,40.32,44.64,40.23,48.09,41.17Z" fill="#786c59"/><path d="M52.69,41.17a4.28,4.28,0,0,1,2.13-1.86,16,16,0,0,1,4.14.12,4.2,4.2,0,0,1,1.56,2.3C59.11,40.32,56.14,40.23,52.69,41.17Z" fill="#786c59"/><path d="M45.93,42.24a3.82,3.82,0,0,0-2.68,0,3.44,3.44,0,0,0-1.95,1.44,2.67,2.67,0,0,1,1.32-.18,5.28,5.28,0,0,0,2.7.28C45.47,43.56,45.93,42.24,45.93,42.24Z" fill="#c29971"/><path d="M47.6,43.89c-.31-.48-.95-1.52-1.67-1.65a5,5,0,0,0-2.92.33c-.33.26-.67.63.22,1,1.29.54,2.91.14,3.58.14C47.59,44.08,47.6,43.89,47.6,43.89Z" fill="#fff"/><path d="M45.94,42.7a1.08,1.08,0,0,0-.12-.48,4.09,4.09,0,0,0-2,0,1.09,1.09,0,1,0,2.08.45Z" fill="#8a6755"/><path d="M45.18,42.79a.31.31,0,0,1-.23-.52h-.1a.45.45,0,1,0,.44.51Z" fill="#636363" style="mix-blend-mode:multiply"/><path d="M43,42.89a5,5,0,0,1,2.92-.33c.61.11,1.15.85,1.49,1.37.15,0,.16,0,.16,0-.31-.48-.95-1.52-1.67-1.65a5,5,0,0,0-2.92.33c-.23.18-.46.41-.29.65A1.12,1.12,0,0,1,43,42.89Z" fill="#c2c2c2" style="mix-blend-mode:multiply"/><path d="M54.91,42.24a3.82,3.82,0,0,1,2.68,0,3.44,3.44,0,0,1,1.95,1.44,2.67,2.67,0,0,0-1.32-.18,5.28,5.28,0,0,1-2.7.28C55.37,43.56,54.91,42.24,54.91,42.24Z" fill="#c29971"/><path d="M53.24,43.89c.31-.48.95-1.52,1.67-1.65a5,5,0,0,1,2.92.33c.33.26.67.63-.22,1-1.29.54-2.91.14-3.58.14C53.25,44.08,53.24,43.89,53.24,43.89Z" fill="#fff"/><path d="M54.9,42.7a1.08,1.08,0,0,1,.12-.48,4.09,4.09,0,0,1,2,0,1.09,1.09,0,1,1-2.08.45Z" fill="#8a6755"/><path d="M55.9,42.37a.31.31,0,0,0,.31.31.31.31,0,0,0,.21-.08.45.45,0,1,1-.5-.34A.31.31,0,0,0,55.9,42.37Z" fill="#636363" style="mix-blend-mode:multiply"/><path d="M57.82,42.89a5,5,0,0,0-2.92-.33c-.61.11-1.15.85-1.49,1.37-.15,0-.16,0-.16,0,.31-.48.95-1.52,1.67-1.65a5,5,0,0,1,2.92.33c.23.18.46.41.29.65A1.12,1.12,0,0,0,57.82,42.89Z" fill="#c2c2c2" style="mix-blend-mode:multiply"/><path d="M50.5,56.09c-2.33,0-2.59-.25-3.33-.69.71.82,1.07,1.38,3.32,1.38s2.63-.52,3.34-1.35C53.1,55.86,52.83,56.09,50.5,56.09Z" fill="#ccc" style="mix-blend-mode:multiply"/><g style="mix-blend-mode:multiply"><path d="M50.67,51.54c.82-.1,1.49-.94,2.25-.93s0,.45-.92.47A2.52,2.52,0,0,1,50.67,51.54Z" fill="#c7c7c7"/><path d="M50.29,51.54c-.82-.1-1.49-.94-2.25-.93s0,.45.92.47A2.52,2.52,0,0,0,50.29,51.54Z" fill="#c7c7c7"/></g><path d="M52.58,53.74a11,11,0,0,0-2,.21,11,11,0,0,0-2-.21,10.19,10.19,0,0,1-3.39-.08,10.92,10.92,0,0,0,5.35.94,10.41,10.41,0,0,0,5.09-1A8.69,8.69,0,0,1,52.58,53.74Z" fill="#d1c7c7" style="mix-blend-mode:multiply"/><path d="M46.9,99.3c-4-8.3-11.21-26.08-6.15-38.84a89.17,89.17,0,0,1-21.9,9.25C22,78.55,25.79,95.08,26.73,99.3Z" fill="#706653"/><path d="M53.37,99.3H73.85c-.13-1.22-.21-1.92-.21-1.92s3.43-17.68,7.07-27.87a90,90,0,0,1-21.19-8.6C63.9,71.93,58.09,88.7,53.37,99.3Z" fill="#706653"/><path d="M47.85,99.3h4.6l1.67-2.86,7.4-32.77A29.71,29.71,0,0,1,50.11,66.2a26.2,26.2,0,0,1-11-2.54l5.4,31.55Z" fill="#f4f4f4"/><path d="M53.34,99.3l1.83-10.22a49.32,49.32,0,0,0-3-17.85H48.06a49.32,49.32,0,0,0-3,17.85L46.73,99.3Z" fill="#7f947e"/><path d="M50.14,72c-.73,0-1.92-.32-2.17-.79.25.47,1.59,1.72,2.17,1.72s1.92-1.25,2.17-1.72C52.06,71.69,50.87,72,50.14,72Z" fill="#e6e6e6" style="mix-blend-mode:multiply"/><path d="M50.14,65.17c-1.54,0-5.6-1.51-5.6-1.51A64.23,64.23,0,0,0,48,71.22c.25.47,1.44.79,2.17.79h0c.73,0,1.92-.32,2.17-.79a64.14,64.14,0,0,0,3.43-7.56S51.68,65.17,50.14,65.17Z" fill="#7f947e"/><path d="M58.76,70.29a10.78,10.78,0,0,0-8.18-5.14H49.7a10.78,10.78,0,0,0-8.15,5.08h0l-.1.22a12.34,12.34,0,0,1,6.71-4.25,8.1,8.1,0,0,1,4,0,12.33,12.33,0,0,1,6.69,4.25l-.07-.17Z" fill="#d9d9d9" style="mix-blend-mode:multiply"/><path d="M50.36,65.16s8.29-3.59,8.95-7.43c2.14,3.72.15,10.43-.48,13.12A10.34,10.34,0,0,0,50.36,65.16Z" fill="#f4f4f4"/><path d="M49.91,65.16s-8.15-4.64-8.56-7.86c-2.06,5.14-.53,10.85.09,13.55A10.34,10.34,0,0,1,49.91,65.16Z" fill="#f4f4f4"/><g style="mix-blend-mode:multiply"><path d="M43.81,99.3h3.91c-9.17-25.2-7.45-39-7.45-39L33,68.07l3.36.74-6.39,1A156.07,156.07,0,0,0,43.81,99.3Z" fill="#e8e8e8"/><path d="M51.32,99.3h5.18a207.68,207.68,0,0,0,13.87-29l-6.53-1.5,3.4-.58-7-8.22S62.18,74.14,51.32,99.3Z" fill="#e8e8e8"/></g><path d="M45,99.3h3.41c-9.8-25.45-7.62-40.4-7.62-40.4l-7.64,8,3.34,1.34L30.7,69A282.75,282.75,0,0,0,45,99.3Z" fill="#7d725d"/><path d="M50.66,99.3h4.78c7.84-15.43,14-30.34,14-30.34l-5.79-.72L67,66.56l-7.16-7.69S61.25,73,50.66,99.3Z" fill="#7d725d"/><path d="M27.28,99.3c-1-5-6.4-32.76-8.73-29.31-3.73,5.5-6,20.57-7,29.31Z" fill="#665d4c"/><path d="M89.2,99.3c-1.66-13.66-5.8-29.6-8.69-29.84,0,0-5.69,6.81-6.95,27.15a24.86,24.86,0,0,0-.7,2.69Z" fill="#665d4c"/><path d="M63.33,31.63C62.43,25,56.48,22,50.37,22s-11.49,2-13,9.63c-.52,2.71-.77,6.89-.34,8,.83,2.2,2.14,6.11,2.77,7.88,0,0-2.64-10.86,1.52-14.1,3.69-2.89,5.49-.73,9-.73s5.32-2.15,9,.73c4.15,3.24,1.52,14.1,1.52,14.1.63-1.77,1.78-5.75,2.77-7.88C64.2,38.52,63.7,34.36,63.33,31.63Z" fill="#494744"/><path d="M52.52,46a3.47,3.47,0,0,1,0-3.73c.75-.89,7.92-.82,8.49.37A4.45,4.45,0,0,1,60.81,46C59.69,47.17,53.41,46.92,52.52,46Z" fill="#fff" opacity="0.4"/><path d="M61.28,44.43h0a.24.24,0,0,1-.23-.24,3.31,3.31,0,0,0-.2-1.42c0-.07-.2-.29-1.06-.49-2.19-.5-6.45-.3-7.07.2a1.54,1.54,0,0,0-.46,1.31V44a.23.23,0,0,1-.47,0v-.18a2,2,0,0,1,.64-1.66c.78-.63,5.24-.8,7.47-.29.77.18,1.23.42,1.38.75a3.84,3.84,0,0,1,.25,1.64A.23.23,0,0,1,61.28,44.43Z" fill="#99877e"/><path d="M51.92,43.75l-.19-.14a2.48,2.48,0,0,0-2.77,0l-.19.14-.28-.38.19-.14a3,3,0,0,1,3.32,0l.19.14Z" fill="#99877e"/><rect x="61.17" y="42.7" width="1.92" height="0.92" fill="#99877e"/><path d="M48.18,46a3.47,3.47,0,0,0,0-3.73c-.75-.89-7.92-.82-8.49.37A4.45,4.45,0,0,0,39.9,46C41,47.17,47.29,46.92,48.18,46Z" fill="#fff" opacity="0.4"/><path d="M39.43,44.43h0a.24.24,0,0,0,.23-.24,3.31,3.31,0,0,1,.2-1.42c0-.07.2-.29,1.06-.49,2.19-.5,6.45-.3,7.07.2a1.54,1.54,0,0,1,.46,1.31V44a.23.23,0,0,0,.47,0v-.18a2,2,0,0,0-.64-1.66c-.78-.63-5.24-.8-7.47-.29-.77.18-1.23.42-1.38.75a3.84,3.84,0,0,0-.25,1.64A.23.23,0,0,0,39.43,44.43Z" fill="#99877e"/><rect x="37.61" y="42.7" width="1.92" height="0.92" fill="#99877e"/></g></g></g></svg>