<svg width="42" height="45" viewBox="0 0 42 45" fill="none" xmlns="http://www.w3.org/2000/svg">
<path d="M5.57373 31.8768L12.1027 40.9636L12.9286 44.1565H27.7662L28.4685 40.9636L36.1528 31.5234L5.57373 31.8768Z" fill="#BA68C8"/>
<path d="M20.7214 39.0785C31.5126 39.0785 40.2606 30.3305 40.2606 19.5392C40.2606 8.74802 31.5126 0 20.7214 0C9.93015 0 1.18213 8.74802 1.18213 19.5392C1.18213 30.3305 9.93015 39.0785 20.7214 39.0785Z" fill="#BA68C8"/>
<g opacity="0.5">
<path d="M20.7212 0C14.0015 0 7.45518 22.0494 11.1835 33.3819C12.456 37.2403 16.5181 40.1623 17.1901 44.1681H24.9156C24.9156 44.1681 25.2278 40.6045 26.8514 37.7302C27.2415 37.0409 29.9576 30.5466 29.7105 23.5776C29.316 12.4662 27.0985 0 20.7212 0Z" fill="white"/>
</g>
<path d="M40.6441 21.1559C40.532 21.2394 40.4123 21.312 40.2864 21.3727C40.0436 21.5071 39.6925 21.7217 39.2199 21.9558C37.8965 22.6404 36.531 23.2406 35.1317 23.7527C34.6982 23.9262 34.2213 24.0736 33.7336 24.2426C33.2458 24.4117 32.7299 24.5526 32.1989 24.7108C31.1259 25.0035 29.9748 25.2939 28.748 25.5194C26.0839 26.0209 23.3777 26.2648 20.6669 26.2477C17.9563 26.2221 15.2545 25.9353 12.5989 25.3915C11.3742 25.1465 10.2275 24.8366 9.16102 24.5244C8.62994 24.3575 8.11838 24.2014 7.63065 24.0302C7.14293 23.859 6.67688 23.7007 6.24118 23.5208C4.85093 22.9898 3.49499 22.373 2.18117 21.674C1.71295 21.4312 1.36829 21.2123 1.12768 21.0735C1.00223 21.0071 0.882588 20.9302 0.77002 20.8438C0.904143 20.8902 1.03338 20.9498 1.15587 21.0215C1.40515 21.1429 1.76064 21.3445 2.23969 21.5699C3.56672 22.2325 4.92854 22.8229 6.31922 23.3387C6.75275 23.5121 7.2253 23.6595 7.70869 23.8286C8.19208 23.9977 8.70581 24.1429 9.22605 24.3033C10.2882 24.6003 11.4306 24.8973 12.6488 25.1357C15.2906 25.6603 17.9758 25.9368 20.6691 25.9616C23.3585 25.978 26.0436 25.7436 28.6894 25.2614C29.9098 25.0447 31.0565 24.765 32.123 24.4854C32.6541 24.3315 33.1678 24.1906 33.6555 24.0345C34.1433 23.8785 34.6136 23.7332 35.0537 23.5663C36.4529 23.0735 37.8241 22.5047 39.1614 21.8625C39.6404 21.6458 39.9981 21.4485 40.2452 21.3315C40.3723 21.2605 40.5059 21.2017 40.6441 21.1559Z" fill="#263238"/>
<path d="M19.3483 26.3511C19.1846 26.5286 18.9988 26.6845 18.7956 26.8149C18.2633 27.2028 17.6983 27.5437 17.1069 27.8337C16.6985 28.0346 16.2795 28.2133 15.8519 28.3692C15.3563 28.5423 14.8493 28.6807 14.3345 28.7832C13.1505 29.0265 11.9304 29.0361 10.7427 28.8114C10.1293 28.6827 9.5328 28.4834 8.96523 28.2174C8.43912 27.9675 7.94193 27.6607 7.48255 27.3027C6.69852 26.7012 6.0457 25.9459 5.56417 25.083C5.23833 24.5048 5.01398 23.875 4.90087 23.221C4.87971 23.1196 4.86666 23.0166 4.86185 22.9132L4.84668 22.6964C4.84668 22.5728 4.84668 22.5078 4.84668 22.5078C4.87506 22.5648 4.89269 22.6265 4.8987 22.6899C4.91171 22.7506 4.92471 22.8243 4.94205 22.9067C4.95668 23.0072 4.97915 23.1065 5.00925 23.2036C5.1609 23.8312 5.40722 24.432 5.73975 24.9854C6.23096 25.8043 6.8766 26.5199 7.64079 27.0924C8.57147 27.8007 9.64927 28.2911 10.7947 28.5274C11.9449 28.7457 13.1258 28.7457 14.276 28.5274C14.7789 28.4344 15.2749 28.3076 15.7608 28.1481C16.216 27.9898 16.6279 27.8294 17.0072 27.656C17.5979 27.3866 18.17 27.0781 18.7197 26.7326C18.9172 26.5865 19.1276 26.4588 19.3483 26.3511Z" fill="#263238"/>
<path d="M37.4299 22.7266C37.4299 22.7266 37.4299 22.8024 37.3778 22.9433C37.3167 23.1388 37.2443 23.3306 37.1611 23.5178C36.8617 24.2115 36.4796 24.8666 36.0231 25.4686C35.8887 25.6659 35.7174 25.8502 35.5527 26.0539C35.3879 26.2577 35.1907 26.4463 34.9956 26.65C34.5652 27.0701 34.1012 27.4544 33.6083 27.7989C32.4794 28.6013 31.196 29.1603 29.8395 29.4401C28.483 29.72 27.0832 29.7147 25.7288 29.4246C25.138 29.303 24.558 29.1334 23.9947 28.9174C23.7346 28.8068 23.481 28.7006 23.2469 28.5901C23.0128 28.4795 22.7852 28.3733 22.5836 28.2389C21.9259 27.8643 21.3153 27.4124 20.7649 26.8928C20.6124 26.7565 20.4677 26.6118 20.3314 26.4593C20.2382 26.3552 20.1948 26.2967 20.2013 26.288C20.424 26.4498 20.6355 26.6265 20.8343 26.8169C21.4045 27.2939 22.0219 27.7116 22.6768 28.0633C22.8784 28.1826 23.1103 28.2801 23.3271 28.3906C23.5438 28.5012 23.8083 28.5922 24.0641 28.6963C24.6161 28.8961 25.1829 29.0526 25.7592 29.1645C27.0785 29.4322 28.4383 29.4301 29.7567 29.1581C31.0752 28.8862 32.3249 28.3501 33.4305 27.5821C33.9152 27.2513 34.3732 26.8831 34.8005 26.4809C34.9934 26.2859 35.1863 26.1016 35.3576 25.9108C35.5288 25.7201 35.6957 25.538 35.8345 25.3494C36.2963 24.7669 36.6972 24.1386 37.031 23.4744C37.1467 23.2163 37.28 22.9664 37.4299 22.7266Z" fill="#263238"/>
<path d="M4.4568 22.7576C4.47414 22.7576 4.51533 22.853 4.52616 23.0437C4.53409 23.3176 4.47059 23.5888 4.34192 23.8306C4.15164 24.2027 3.82573 24.4875 3.4315 24.6261C3.18929 24.7111 2.93139 24.742 2.67597 24.7165C2.42055 24.691 2.17382 24.6099 1.95316 24.4787C1.52823 24.2016 1.21497 23.7832 1.06875 23.2974C0.952392 22.9164 0.902531 22.5182 0.921356 22.1203C0.953871 21.4549 1.05141 21.0603 1.0861 21.0625C1.12078 21.0647 1.10994 21.4765 1.13162 22.1182C1.1421 22.4873 1.20861 22.8528 1.32887 23.202C1.46609 23.6196 1.74031 23.9785 2.10706 24.2208C2.29166 24.3305 2.49744 24.3998 2.7108 24.4241C2.92417 24.4484 3.14026 24.4271 3.34479 24.3617C3.68508 24.2545 3.97477 24.0272 4.15983 23.7222C4.29045 23.5131 4.37609 23.2791 4.41128 23.0351C4.43512 22.8552 4.43296 22.7576 4.4568 22.7576Z" fill="#263238"/>
<path d="M40.1528 21.1737C40.168 21.1606 40.2482 21.2192 40.3696 21.3449C40.5536 21.5224 40.7179 21.7194 40.8594 21.9323C41.0859 22.2632 41.1978 22.6591 41.1781 23.0595C41.1622 23.3078 41.0723 23.5456 40.9201 23.7423C40.7498 23.9466 40.5239 24.0972 40.2698 24.1759C39.8057 24.3168 39.311 24.3228 38.8435 24.1932C38.4686 24.0973 38.1145 23.9335 37.7987 23.7098C37.2655 23.3175 37.0791 22.9425 37.1072 22.9273C37.1354 22.9121 37.3869 23.2134 37.9136 23.5342C38.2213 23.7176 38.5565 23.85 38.9064 23.9266C39.3236 24.0289 39.7605 24.0185 40.1723 23.8962C40.372 23.8331 40.55 23.7152 40.686 23.5559C40.8073 23.4055 40.8825 23.2234 40.9028 23.0313C40.9322 22.6847 40.8567 22.3373 40.686 22.0342C40.5649 21.8202 40.4317 21.6132 40.2872 21.4143C40.1875 21.2734 40.1376 21.1867 40.1528 21.1737Z" fill="#263238"/>
<path d="M20.0987 27.7823C21.1043 27.7823 21.9195 26.9671 21.9195 25.9615C21.9195 24.9558 21.1043 24.1406 20.0987 24.1406C19.093 24.1406 18.2778 24.9558 18.2778 25.9615C18.2778 26.9671 19.093 27.7823 20.0987 27.7823Z" fill="#263238"/>
<path d="M37.0498 24.4307C38.0554 24.4307 38.8707 23.6155 38.8707 22.6099C38.8707 21.6043 38.0554 20.7891 37.0498 20.7891C36.0442 20.7891 35.229 21.6043 35.229 22.6099C35.229 23.6155 36.0442 24.4307 37.0498 24.4307Z" fill="#263238"/>
<path d="M4.49417 24.2276C5.49978 24.2276 6.315 23.4124 6.315 22.4068C6.315 21.4011 5.49978 20.5859 4.49417 20.5859C3.48855 20.5859 2.67334 21.4011 2.67334 22.4068C2.67334 23.4124 3.48855 24.2276 4.49417 24.2276Z" fill="#263238"/>
<path d="M37.2298 23.5703C37.2515 23.5812 37.0737 23.9301 36.7963 24.5804C36.5188 25.2307 36.1698 26.1888 35.7666 27.3984C35.5629 27.9967 35.3331 28.6535 35.0686 29.3493C34.7866 30.0979 34.4452 30.8228 34.0477 31.5169C33.6004 32.2852 33.0505 32.9889 32.4133 33.6087C31.7252 34.2865 30.8963 34.8046 29.9855 35.1261C29.5184 35.28 29.0313 35.3647 28.5397 35.3775C28.0616 35.3872 27.5846 35.3266 27.1242 35.1976C26.2602 34.9481 25.4616 34.5115 24.7853 33.9187C24.1738 33.3924 23.6467 32.7754 23.2224 32.0892C22.8579 31.4944 22.5502 30.8666 22.3033 30.2142C21.9533 29.2697 21.6722 28.3011 21.4623 27.316C21.3842 26.9714 21.3279 26.7004 21.2932 26.5183C21.2697 26.4255 21.2573 26.3301 21.2563 26.2344C21.3011 26.3188 21.3332 26.4094 21.3517 26.5032C21.4037 26.6896 21.4796 26.9519 21.5685 27.2878C21.8229 28.2541 22.1342 29.2044 22.5006 30.134C22.9731 31.2893 23.6971 32.6463 24.9652 33.7084C25.616 34.2633 26.3791 34.6707 27.2022 34.9028C27.6357 35.0211 28.0839 35.0766 28.5332 35.0676C28.996 35.0536 29.4544 34.9733 29.8944 34.8291C30.7629 34.5213 31.5542 34.0287 32.2138 33.3855C32.8355 32.7875 33.3749 32.1096 33.8179 31.3695C34.2142 30.6913 34.557 29.9833 34.8432 29.2517C35.1228 28.5646 35.3569 27.9143 35.5737 27.3204C35.8999 26.3728 36.274 25.4424 36.6944 24.5328C36.8505 24.2141 36.9783 23.9692 37.0737 23.8088C37.1146 23.7225 37.1671 23.6423 37.2298 23.5703Z" fill="#263238"/>
<path d="M20.4763 25.6768C20.4704 25.78 20.4515 25.8819 20.42 25.9803C20.3745 26.1754 20.3029 26.4637 20.2032 26.8322C19.9303 27.8791 19.59 28.9073 19.1844 29.9103C18.9006 30.6056 18.5583 31.2757 18.1613 31.9132C17.9383 32.2693 17.6951 32.6123 17.433 32.9407C17.1488 33.2861 16.8371 33.608 16.5009 33.9031C16.334 34.0592 16.1432 34.1957 15.9611 34.3366C15.779 34.4775 15.5753 34.6119 15.3672 34.7311C14.9474 34.9887 14.5021 35.2023 14.0384 35.3684C13.559 35.5464 13.0584 35.6609 12.5492 35.7087C12.0217 35.767 11.4882 35.7407 10.969 35.6307C10.4501 35.5202 9.95142 35.3301 9.49067 35.0671C9.04938 34.8052 8.64421 34.4868 8.28545 34.1199C7.93857 33.7706 7.62976 33.3855 7.3642 32.971C7.10824 32.5777 6.88287 32.1654 6.69006 31.7376C6.33441 30.9505 6.06057 30.129 5.87285 29.286C5.6886 28.5013 5.55637 27.7686 5.43932 27.0901C5.20521 25.7505 4.98845 24.671 4.77168 23.9405C4.55492 23.21 4.41185 22.8134 4.4357 22.8047C4.49265 22.8903 4.53854 22.9828 4.57226 23.08C4.61561 23.1732 4.66113 23.2967 4.71315 23.4268C4.76518 23.5569 4.82154 23.7238 4.88223 23.908C5.19775 24.9418 5.45109 25.9936 5.64091 27.0576C5.77314 27.7274 5.9162 28.4601 6.10913 29.2253C6.30477 30.0455 6.58142 30.8442 6.935 31.6097C7.12637 32.0234 7.34883 32.4219 7.60047 32.8019C7.85691 33.1994 8.15483 33.5685 8.48921 33.9031C8.8309 34.2501 9.21638 34.551 9.6359 34.7983C10.0701 35.0447 10.5394 35.223 11.0275 35.3272C11.5168 35.4312 12.0194 35.4568 12.5167 35.4031C13.0026 35.357 13.4806 35.2485 13.9387 35.0801C14.3851 34.9241 14.8138 34.7214 15.2176 34.4754C15.4214 34.3626 15.6056 34.2239 15.7942 34.0982C15.9828 33.9725 16.1562 33.8272 16.3188 33.6777C16.6474 33.3957 16.952 33.0869 17.2292 32.7542C17.4899 32.4384 17.731 32.1068 17.951 31.7614C18.3501 31.1408 18.6974 30.4883 18.9893 29.8106C19.4088 28.8188 19.7763 27.8058 20.0905 26.7758C20.2076 26.416 20.3073 26.1364 20.3615 25.9391C20.3891 25.8474 20.4277 25.7593 20.4763 25.6768Z" fill="#263238"/>
<path d="M4.59832 22.7891C4.65677 22.964 4.68892 23.1466 4.6937 23.331C4.73488 23.68 4.77607 24.198 4.79124 24.8223C4.80641 25.4466 4.79124 26.2053 4.73922 27.0398C4.70887 27.456 4.66768 27.8939 4.60916 28.3404C4.58098 28.5572 4.54846 28.7956 4.51378 29.0276C4.48833 29.2795 4.42398 29.5259 4.32302 29.7581C4.2591 29.8918 4.15762 30.004 4.03097 30.081C3.90433 30.158 3.758 30.1964 3.60987 30.1916C3.45663 30.1708 3.31669 30.0935 3.21752 29.9748C3.13078 29.8784 3.05783 29.7705 3.00076 29.654C2.80133 29.2378 2.63225 28.8325 2.48919 28.438C2.23279 27.7403 2.03486 27.0225 1.89742 26.292C1.80447 25.8015 1.74364 25.3055 1.71533 24.8072C1.695 24.6308 1.70231 24.4523 1.73701 24.2782C1.78687 24.2782 1.83672 25.0521 2.11418 26.2725C2.28085 26.9843 2.49817 27.6834 2.76448 28.3643C2.91188 28.748 3.08529 29.1446 3.28038 29.5456C3.37359 29.7386 3.49715 29.9033 3.64672 29.912C3.73651 29.9105 3.82397 29.8831 3.89858 29.8332C3.97318 29.7832 4.03175 29.7127 4.06724 29.6302C4.1546 29.4276 4.20946 29.2126 4.22982 28.9929C4.26667 28.7631 4.29918 28.5355 4.32953 28.3144C4.39022 27.8679 4.43791 27.4365 4.47476 27.0138C4.54846 26.1901 4.57881 25.4444 4.58965 24.818C4.60049 23.5694 4.55496 22.7934 4.59832 22.7891Z" fill="#263238"/>
<path d="M41.0212 24.1809C41.089 24.3359 41.1287 24.5018 41.1383 24.6708C41.2049 25.1257 41.2354 25.5853 41.2293 26.0451C41.2293 26.3355 41.2098 26.6542 41.173 26.9967C41.1385 27.3645 41.0659 27.7277 40.9562 28.0805C40.8902 28.279 40.7968 28.4672 40.6787 28.6398C40.547 28.8305 40.3645 28.9807 40.152 29.0733C39.9264 29.1653 39.6772 29.1828 39.441 29.1231C39.2074 29.0626 38.9908 28.9491 38.808 28.7915C38.4768 28.479 38.2318 28.0863 38.097 27.6513C37.954 27.2546 37.8348 26.8775 37.7134 26.5155C37.4728 25.7915 37.2625 25.139 37.0869 24.5884C36.7401 23.4894 36.545 22.8023 36.584 22.7893C36.623 22.7762 36.8875 23.4395 37.2863 24.5234C37.4858 25.0631 37.7199 25.7091 37.9713 26.4287C38.0992 26.7864 38.2271 27.1701 38.368 27.5516C38.4903 27.9377 38.7072 28.2872 38.9988 28.5682C39.1347 28.6986 39.3035 28.7897 39.4871 28.8317C39.6708 28.8737 39.8623 28.865 40.0414 28.8067C40.1997 28.7235 40.3392 28.6086 40.4511 28.4691C40.563 28.3296 40.6449 28.1685 40.6917 27.996C40.7991 27.6618 40.8717 27.3175 40.9085 26.9685C40.954 26.6368 40.9844 26.3182 40.9995 26.0386C41.0797 24.8962 40.9714 24.1852 41.0212 24.1809Z" fill="#263238"/>
<path d="M15.9264 2.24339C15.9264 2.27591 15.6836 2.39513 15.2241 2.57938L14.8404 2.72895C14.7038 2.78747 14.5586 2.86334 14.4069 2.94571C14.0441 3.10479 13.6896 3.28204 13.3447 3.47679L12.74 3.81061C12.5232 3.92766 12.3281 4.07506 12.1113 4.21379C11.6778 4.48041 11.2443 4.82724 10.7739 5.17406C8.79988 6.75059 7.19196 8.73718 6.0614 10.9964C5.81863 11.521 5.56935 12.0152 5.41111 12.5137C5.32007 12.7565 5.22036 12.9863 5.14882 13.2139C5.07729 13.4415 5.01009 13.6648 4.94723 13.8642C4.82897 14.2426 4.72985 14.6268 4.65026 15.0152C4.61124 15.1843 4.56789 15.3425 4.53754 15.4899C4.5072 15.6373 4.49202 15.7739 4.47035 15.8953C4.38581 16.383 4.32295 16.654 4.29043 16.6518C4.25792 16.6496 4.25358 16.3743 4.27959 15.8736L4.30561 15.4553C4.32078 15.3035 4.35112 15.1409 4.37714 14.9632C4.43071 14.5623 4.50816 14.1649 4.60908 13.7731C4.66327 13.5564 4.72396 13.3266 4.78466 13.0882C4.84535 12.8497 4.94289 12.6135 5.02527 12.362C5.20184 11.8263 5.4066 11.3002 5.63871 10.7861C6.75598 8.43813 8.41497 6.3891 10.4791 4.80773C10.9274 4.46483 11.3949 4.14784 11.8794 3.85829C12.107 3.7239 12.3129 3.58083 12.5297 3.47028L13.1626 3.15598C13.5253 2.97632 13.898 2.81782 14.279 2.68126C14.4459 2.6184 14.5998 2.55553 14.745 2.50785L15.1482 2.3973C15.6468 2.26724 15.9156 2.21088 15.9264 2.24339Z" fill="white"/>
<path d="M4.02123 19.6684C3.88467 19.6684 3.75461 19.404 3.73076 19.0571C3.70692 18.7103 3.80013 18.422 3.94753 18.4068C4.09493 18.3917 4.21198 18.6713 4.23583 19.0181C4.25967 19.3649 4.15562 19.6597 4.02123 19.6684Z" fill="white"/>
</svg>
