<svg width="18" height="16" viewBox="0 0 18 16" fill="none" xmlns="http://www.w3.org/2000/svg">
<path d="M7.33293 15.4974L10.6663 12.1641H17.3329V15.4974H7.33293ZM2.33293 13.8307H3.49959L10.6871 6.64323L9.52042 5.47656L2.33293 12.6641V13.8307ZM14.2496 5.4349L10.7079 1.9349L11.8746 0.768229C12.194 0.448785 12.5865 0.289062 13.0521 0.289062C13.5171 0.289062 13.9093 0.448785 14.2288 0.768229L15.3954 1.9349C15.7149 2.25434 15.8815 2.6399 15.8954 3.09156C15.9093 3.54267 15.7565 3.92795 15.4371 4.2474L14.2496 5.4349ZM13.0413 6.66406L4.20793 15.4974H0.66626V11.9557L9.49959 3.1224L13.0413 6.66406Z" fill="#2A2076"/>
</svg>
