<svg xmlns="http://www.w3.org/2000/svg" width="55" height="50" viewBox="0 0 55 50">
  <defs>
    <style>
      .cls-1 {
        fill: #4d4088;
        fill-rule: evenodd;
      }
    </style>
  </defs>
  <path id="Forma_1" data-name="Forma 1" class="cls-1" d="M135.789,1658.4a19.259,19.259,0,0,0-6.1-7.2c-4.7-3.4-11.338-5.2-19.185-5.2s-14.481,1.8-19.185,5.2a19.26,19.26,0,0,0-6.1,7.2A23.533,23.533,0,0,0,83,1668.8c0,8.41,3.468,14.85,10.056,18.73a23,23,0,0,1-2.1,5.18l-2.039,3.28,3.862,0.01H92.82a16.617,16.617,0,0,0,11.359-4.83,45.83,45.83,0,0,0,6.321.42c7.847,0,14.481-1.8,19.185-5.2a19.259,19.259,0,0,0,6.1-7.2A25.542,25.542,0,0,0,135.789,1658.4Zm-8.621,24.5c-3.967,2.87-9.73,4.39-16.668,4.39a40.264,40.264,0,0,1-6.761-.54l-1.2-.2-0.791.92a12,12,0,0,1-5.332,3.59,31.37,31.37,0,0,0,1.225-4.17l0.365-1.64-1.512-.75c-6.106-3.01-9.2-8.3-9.2-15.7,0-6.23,2.2-10.98,6.535-14.11,3.967-2.87,9.73-4.39,16.668-4.39s12.7,1.52,16.668,4.39c4.336,3.13,6.535,7.88,6.535,14.11S131.5,1679.77,127.168,1682.9Zm-18.816-4.21h4.3v4.3h-4.3v-4.3Zm3.008-23.82a8.7,8.7,0,0,0-6.75,2.14,8.486,8.486,0,0,0-2.811,6.3h4.3a4.109,4.109,0,0,1,1.382-3.09,4.334,4.334,0,0,1,3.414-1.07,4.233,4.233,0,0,1,1.945,7.71,10.471,10.471,0,0,0-4.593,8.6h4.3a6.156,6.156,0,0,1,2.725-5.05A8.539,8.539,0,0,0,111.36,1654.87Z" transform="translate(-83 -1646)"/>
</svg>
