<svg width="21" height="20" viewBox="0 0 21 20" fill="none" xmlns="http://www.w3.org/2000/svg">
<g clip-path="url(#clip0_185_1509)">
<path d="M19.9661 8.16667C20.2986 7.74046 20.4848 7.2184 20.4972 6.67798C20.5095 6.13756 20.3472 5.60757 20.0345 5.16667L17.092 1.0475C16.8608 0.7236 16.5556 0.459576 16.2017 0.277384C15.8479 0.0951914 15.4558 9.42806e-05 15.0578 0L5.9428 0C5.54484 9.42806e-05 5.15265 0.0951914 4.79885 0.277384C4.44504 0.459576 4.13985 0.7236 3.90863 1.0475L0.966133 5.16667C0.654002 5.60794 0.492337 6.13803 0.505096 6.67839C0.517854 7.21875 0.704356 7.74062 1.03697 8.16667L10.5003 20.09L19.9661 8.16667ZM6.54447 7.5L8.8778 15.36L2.6353 7.5H6.54447ZM18.3653 7.5L12.127 15.36L14.4561 7.5H18.3653ZM12.7178 7.5L10.5003 14.9825L8.2828 7.5H12.7178ZM8.27197 5.83333L9.46197 1.66667H11.5386L12.7286 5.83333H8.27197ZM15.7361 2.01583L18.4628 5.83333H14.4628L13.272 1.66667H15.0578C15.1905 1.66665 15.3213 1.69833 15.4393 1.75906C15.5573 1.8198 15.659 1.90783 15.7361 2.01583ZM5.26447 2.01583C5.34156 1.90783 5.44334 1.8198 5.56133 1.75906C5.67931 1.69833 5.8101 1.66665 5.9428 1.66667H7.72863L6.53863 5.83333H2.53863L5.26447 2.01583Z" fill="#727272"/>
</g>
<defs>
<clipPath id="clip0_185_1509">
<rect width="20" height="20" fill="white" transform="translate(0.5)"/>
</clipPath>
</defs>
</svg>
