<svg width="21" height="20" viewBox="0 0 21 20" fill="none" xmlns="http://www.w3.org/2000/svg">
<g clip-path="url(#clip0_185_1503)">
<path d="M2.16667 17.4805V-0.0195312H0.5V17.4805C0.5 18.1435 0.763392 18.7794 1.23223 19.2482C1.70107 19.7171 2.33696 19.9805 3 19.9805H20.5V18.3138H3C2.77899 18.3138 2.56702 18.226 2.41074 18.0697C2.25446 17.9134 2.16667 17.7015 2.16667 17.4805Z" fill="#727272"/>
<path d="M19.25 3.31348H14.6666L16.9941 5.64098L13.4166 9.21848L11.75 7.55181L5.73413 13.5676L6.91663 14.7501L11.7541 9.91681L13.4208 11.5835L18.1766 6.82764L20.5 9.14681V4.56348C20.5 4.23196 20.3683 3.91401 20.1338 3.67959C19.8994 3.44517 19.5815 3.31348 19.25 3.31348Z" fill="#727272"/>
</g>
<defs>
<clipPath id="clip0_185_1503">
<rect width="20" height="20" fill="white" transform="translate(0.5)"/>
</clipPath>
</defs>
</svg>
