<svg xmlns="http://www.w3.org/2000/svg" width="46" height="44" viewBox="0 0 46 44">
  <defs>
    <style>
      .cls-1 {
        fill: #555;
        fill-rule: evenodd;
      }
    </style>
  </defs>
  <path id="Forma_1" data-name="Forma 1" class="cls-1" d="M266,2495.7a4.245,4.245,0,0,1-1.247,3.01,4.721,4.721,0,0,1,1.226,3.65,4.955,4.955,0,0,1-5,4.34h-11.84a27.349,27.349,0,0,1,1.526,7.65c0,4.15-3.533,7.65-5.75,7.65a5.978,5.978,0,0,1-3.473-1.17,0.94,0.94,0,0,1-.361-0.74v-6.49l-5.522-11.94-0.228-.11v0.36a0.959,0.959,0,0,1-.958.96h-9.583a4.8,4.8,0,0,1-4.792-4.78v-15.31a4.788,4.788,0,0,1,4.792-4.78h5.75a4.8,4.8,0,0,1,4.51,3.16,12.492,12.492,0,0,1,5.073-1.25h17.593a4.415,4.415,0,0,1,4.344,3.34,5.623,5.623,0,0,0,2.022,6.71A4.285,4.285,0,0,0,266,2495.7Zm-4.042-2.37a0.95,0.95,0,0,1-.548-1.64,2.367,2.367,0,0,0-1.367-4.09,0.982,0.982,0,0,1-.8-0.65,0.953,0.953,0,0,1,.253-1,2.36,2.36,0,0,0,.694-2.28,2.476,2.476,0,0,0-2.47-1.84H240.125c-1.556,0-4.167.72-5.071,1.63a0.985,0.985,0,0,1-1.045.21,0.964,0.964,0,0,1-.592-0.89,2.878,2.878,0,0,0-2.875-2.87h-5.75a2.877,2.877,0,0,0-2.875,2.87v15.31a2.877,2.877,0,0,0,2.875,2.87h8.625V2500a0.974,0.974,0,0,1,.456-0.82,1.019,1.019,0,0,1,.931-0.04l1.917,0.96a1,1,0,0,1,.441.45l5.75,12.44a0.978,0.978,0,0,1,.088.4v6.18a4.048,4.048,0,0,0,1.917.52c1.05,0,3.833-2.61,3.833-5.74,0-3.37-1.836-8.22-1.853-8.27a0.956,0.956,0,0,1,.105-0.88,0.967,0.967,0,0,1,.79-0.42h13.189a3.022,3.022,0,0,0,3.089-2.6,2.845,2.845,0,0,0-1.364-2.7,0.959,0.959,0,0,1,.065-1.67,2.363,2.363,0,0,0,1.313-2.11A2.393,2.393,0,0,0,261.958,2493.33Zm-27.583,7.63a0.959,0.959,0,0,1-.958-0.96v-17.22a0.958,0.958,0,0,1,1.916,0V2500A0.959,0.959,0,0,1,234.375,2500.96Z" transform="translate(-220 -2478)"/>
</svg>
