<svg xmlns="http://www.w3.org/2000/svg" width="46" height="44" viewBox="0 0 46 44">
  <defs>
    <style>
      .cls-1 {
        fill: #555;
        fill-rule: evenodd;
      }
    </style>
  </defs>
  <path id="Forma_1" data-name="Forma 1" class="cls-1" d="M96,2504.3a4.243,4.243,0,0,0-1.248-3.01,4.735,4.735,0,0,0,1.227-3.65,4.955,4.955,0,0,0-5-4.34H79.141a27.367,27.367,0,0,0,1.526-7.65c0-4.15-3.532-7.65-5.75-7.65a5.981,5.981,0,0,0-3.473,1.17,0.939,0.939,0,0,0-.36.74v6.49l-5.522,11.94-0.228.11v-0.36a0.96,0.96,0,0,0-.958-0.96H54.792A4.788,4.788,0,0,0,50,2501.91v15.31a4.788,4.788,0,0,0,4.792,4.78h5.75a4.8,4.8,0,0,0,4.51-3.16,12.5,12.5,0,0,0,5.074,1.25H87.718a4.414,4.414,0,0,0,4.343-3.34,4.322,4.322,0,0,0-.345-2.88,4.285,4.285,0,0,0,1.919-5.74A4.286,4.286,0,0,0,96,2504.3Zm-4.042,2.36a0.98,0.98,0,0,0-.8.65,0.953,0.953,0,0,0,.253,1,2.357,2.357,0,0,1,.757,1.73,2.384,2.384,0,0,1-2.124,2.36,0.98,0.98,0,0,0-.8.65,0.958,0.958,0,0,0,.253,1,2.362,2.362,0,0,1,.694,2.28,2.476,2.476,0,0,1-2.471,1.84H70.125c-1.556,0-4.167-.73-5.071-1.63a0.983,0.983,0,0,0-1.045-.21,0.964,0.964,0,0,0-.592.89,2.877,2.877,0,0,1-2.875,2.87h-5.75a2.877,2.877,0,0,1-2.875-2.87v-15.31a2.877,2.877,0,0,1,2.875-2.87h8.625V2500a0.946,0.946,0,0,0,.456.81,0.964,0.964,0,0,0,.932.04l1.917-.95a1,1,0,0,0,.441-0.45l5.75-12.44a0.97,0.97,0,0,0,.088-0.4v-6.18a4.045,4.045,0,0,1,1.917-.52c1.05,0,3.833,2.61,3.833,5.74,0,3.37-1.836,8.22-1.853,8.27a0.955,0.955,0,0,0,.105.88,0.966,0.966,0,0,0,.79.42H90.981a3.023,3.023,0,0,1,3.09,2.6,2.846,2.846,0,0,1-1.365,2.7,0.96,0.96,0,0,0,.065,1.67A2.364,2.364,0,0,1,91.958,2506.66Zm-27.583-7.62a0.96,0.96,0,0,0-.958.96v17.22a0.958,0.958,0,0,0,1.917,0V2500A0.96,0.96,0,0,0,64.375,2499.04Z" transform="translate(-50 -2478)"/>
</svg>
