<svg width="55" height="55" viewBox="0 0 55 55" fill="none" xmlns="http://www.w3.org/2000/svg">
<circle cx="27.5" cy="27.5" r="27.5" fill="white"/>
<g clip-path="url(#clip0_167_1380)">
<path d="M37.8329 12H17.1663C16.1385 12 15.1529 12.4083 14.4262 13.135C13.6995 13.8617 13.2913 14.8473 13.2913 15.875V39.125C13.2913 41.2651 15.0262 43 17.1663 43H37.8329C39.973 43 41.7079 41.2651 41.7079 39.125V15.875C41.7079 14.8473 41.2997 13.8617 40.573 13.135C39.8463 12.4083 38.8606 12 37.8329 12ZM21.0413 36.5417H18.4579V33.9583H21.0413V36.5417ZM21.0413 31.375H18.4579V28.7917H21.0413V31.375ZM26.2079 36.5417H23.6246V33.9583H26.2079V36.5417ZM26.2079 31.375H23.6246V28.7917H26.2079V31.375ZM36.5413 36.5417H28.7913V33.9583H36.5413V36.5417ZM28.7913 31.375V28.7917H31.3746V31.375H28.7913ZM36.5413 31.375H33.9579V28.7917H36.5413V31.375ZM36.5413 24.9167H18.4579V17.1667H36.5413V24.9167ZM33.9579 22.3333H21.0413V19.75H33.9579V22.3333Z" fill="url(#paint0_linear_167_1380)"/>
</g>
<defs>
<linearGradient id="paint0_linear_167_1380" x1="41.7079" y1="27.5" x2="13.2913" y2="27.5" gradientUnits="userSpaceOnUse">
<stop stop-color="#301F6C"/>
<stop offset="1" stop-color="#D60D47"/>
</linearGradient>
<clipPath id="clip0_167_1380">
<rect width="31" height="31" fill="white" transform="translate(12 12)"/>
</clipPath>
</defs>
</svg>
