<svg width="100" height="41" viewBox="0 0 100 41" fill="none" xmlns="http://www.w3.org/2000/svg">
<path d="M50 39.8125C22.6619 39.8125 0.499992 38.4694 0.499992 36.8125C0.499992 35.1556 22.6619 33.8125 50 33.8125C77.3381 33.8125 99.5 35.1556 99.5 36.8125C99.5 38.4694 77.3381 39.8125 50 39.8125Z" fill="#F5F5F5"/>
<path d="M50.1099 40.1485C70.5444 40.1485 87.1099 39.1814 87.1099 37.9883C87.1099 36.7953 70.5444 35.8281 50.1099 35.8281C29.6753 35.8281 13.1099 36.7953 13.1099 37.9883C13.1099 39.1814 29.6753 40.1485 50.1099 40.1485Z" fill="#F5F5F5"/>
<path d="M27.7769 37.2871C33.4155 37.1365 37.8644 32.4434 37.7138 26.8048C37.5632 21.1662 32.8701 16.7173 27.2315 16.8679C21.593 17.0185 17.1441 21.7116 17.2947 27.3502C17.4453 32.9888 22.1383 37.4377 27.7769 37.2871Z" fill="#7E57C2"/>
<path opacity="0.5" d="M33.57 32.8237C37.4463 28.7261 37.8707 22.8332 34.5181 19.6616C31.1654 16.49 25.3051 17.2407 21.4288 21.3384C17.5525 25.436 17.128 31.3289 20.4807 34.5005C23.8334 37.6721 29.6937 36.9213 33.57 32.8237Z" fill="white"/>
<path d="M31.4876 30.853C35.3639 26.7553 36.7206 21.7443 34.5179 19.6606C32.3152 17.5769 27.3872 19.2095 23.5109 23.3071C19.6346 27.4048 18.2778 32.4158 20.4805 34.4995C22.6833 36.5832 27.6113 34.9506 31.4876 30.853Z" fill="#7E57C2"/>
<path opacity="0.5" d="M29.203 28.6946C33.0793 24.597 35.4589 20.5536 34.5179 19.6635C33.577 18.7733 29.6718 21.3735 25.7955 25.4712C21.9192 29.5688 19.5397 33.6122 20.4806 34.5023C21.4216 35.3925 25.3267 32.7923 29.203 28.6946Z" fill="white"/>
<path d="M78.135 36.8776C78.0123 36.8779 77.8937 36.8338 77.801 36.7535L44.278 8.12904C44.1832 8.038 44.1268 7.91418 44.1203 7.78291C44.1138 7.65165 44.1577 7.52286 44.243 7.4229C44.3283 7.32294 44.4486 7.25937 44.5793 7.2452C44.71 7.23102 44.8411 7.26731 44.9459 7.34664L78.4689 35.973C78.5491 36.0411 78.6064 36.1323 78.6331 36.234C78.6598 36.3358 78.6546 36.4433 78.6181 36.542C78.5817 36.6407 78.5158 36.7258 78.4294 36.7859C78.343 36.8459 78.2402 36.8779 78.135 36.8776Z" fill="#7E57C2"/>
<path d="M56.1686 36.878C56.0524 36.8777 55.9396 36.8388 55.848 36.7673C55.7727 36.7092 55.7149 36.6314 55.6812 36.5424C55.6475 36.4535 55.6392 36.3569 55.6572 36.2635L58.8651 20.2338C58.8782 20.1676 58.9043 20.1047 58.9418 20.0486C58.9792 19.9925 59.0274 19.9444 59.0835 19.9069C59.1395 19.8694 59.2025 19.8434 59.2686 19.8302C59.3348 19.817 59.4029 19.817 59.469 19.8302C59.5352 19.8433 59.5981 19.8694 59.6542 19.9069C59.7103 19.9443 59.7585 19.9925 59.7959 20.0486C59.8334 20.1047 59.8595 20.1676 59.8726 20.2337C59.8858 20.2999 59.8858 20.368 59.8726 20.4342L56.8614 35.4715L74.3528 27.4681C74.4143 27.4383 74.4812 27.421 74.5495 27.4173C74.6178 27.4136 74.6861 27.4236 74.7505 27.4467C74.8148 27.4698 74.8739 27.5056 74.9243 27.5518C74.9747 27.5981 75.0153 27.654 75.0438 27.7161C75.0722 27.7783 75.088 27.8455 75.0901 27.9139C75.0923 27.9822 75.0807 28.0503 75.0562 28.1142C75.0316 28.178 74.9946 28.2363 74.9472 28.2856C74.8998 28.3349 74.8431 28.3742 74.7803 28.4013L56.3747 36.8245C56.3104 36.8562 56.2403 36.8744 56.1686 36.878Z" fill="#7E57C2"/>
<path d="M44.6119 7.73438H28.2158C32.4618 14.9955 44.2455 30.0615 55.9262 30.0615H70.2194C60.987 30.0538 48.8579 14.9955 44.6119 7.73438Z" fill="#7E57C2"/>
<path opacity="0.2" d="M44.6119 7.73438H28.2158C32.4618 14.9955 44.2455 30.0615 55.9262 30.0615H70.2194C60.987 30.0538 48.8579 14.9955 44.6119 7.73438Z" fill="black"/>
<path d="M47.0564 9.75067L47.1728 9.62663L47.3064 9.4797C47.3961 9.38237 47.4877 9.28886 47.5754 9.17818C47.7529 8.97018 47.9285 8.76218 48.0983 8.54845C48.4353 8.12319 48.7506 7.68117 49.0429 7.22409C49.188 6.997 49.3234 6.76609 49.4494 6.53519C49.5753 6.30429 49.6956 6.06957 49.8024 5.83294C50.0129 5.37206 50.1791 4.89218 50.2986 4.3998L50.6096 5.46654C50.4281 5.2467 50.2115 5.05841 49.9684 4.90932C49.6521 4.70086 49.3247 4.50975 48.9876 4.33683C48.6384 4.15554 48.2739 3.98189 47.9018 3.81205L46.7816 3.30826L46.7549 3.2949C46.6058 3.2276 46.4848 3.11065 46.4123 2.96402C46.3399 2.81739 46.3207 2.65017 46.3578 2.49091C46.395 2.33166 46.4863 2.19024 46.6161 2.09081C46.746 1.99138 46.9063 1.9401 47.0697 1.94573C47.5172 1.96557 47.9632 2.01081 48.4056 2.08122C48.8515 2.15138 49.2935 2.24437 49.7299 2.35983C50.1863 2.48109 50.6328 2.63674 51.0657 2.82546C51.5885 3.04588 52.0665 3.36021 52.4759 3.75289C52.5996 3.87647 52.6932 4.02672 52.7498 4.19211C52.8064 4.3575 52.8243 4.53364 52.8023 4.70704L52.787 4.81581C52.6951 5.50635 52.5255 6.18428 52.2813 6.8367C52.0471 7.46615 51.7598 8.07454 51.4226 8.65531C51.0946 9.22427 50.728 9.77005 50.3253 10.2888C50.123 10.5464 49.9188 10.8002 49.6994 11.0521C49.5906 11.1743 49.4799 11.2964 49.3654 11.4166L49.188 11.596L48.9971 11.7868C48.736 12.0518 48.3803 12.2021 48.0082 12.2048C47.6362 12.2075 47.2784 12.0623 47.0134 11.8011C46.7485 11.54 46.5981 11.1843 46.5955 10.8123C46.5928 10.4403 46.738 10.0824 46.9991 9.81746L47.0564 9.75067Z" fill="#FFC3BD"/>
<path d="M47.5414 1.97572L45.9003 1.77344L45.3564 3.75234C45.3564 3.75234 47.0128 4.17789 47.7304 3.10734L47.5414 1.97572Z" fill="#FFC3BD"/>
<path d="M44.6195 1.76562L44.4077 3.42394L45.3561 3.75598L45.9 1.77708L44.6195 1.76562Z" fill="#FFC3BD"/>
<path d="M49.4438 25.3437C49.4438 25.3437 45.0032 21.8801 41.2382 15.2087C41.0283 14.8362 40.9011 14.4229 40.8654 13.9969C40.8297 13.5709 40.8861 13.1422 41.031 12.74C41.1759 12.3377 41.4058 11.9715 41.705 11.6661C42.0041 11.3607 42.3656 11.1234 42.7648 10.9704C44.1827 10.4284 45.7093 9.91507 46.9535 9.51814C47.5654 9.32096 48.2247 9.32766 48.8324 9.53722C49.4401 9.74679 49.9633 10.1479 50.3236 10.6803C51.8617 12.9703 53.3769 16.1991 58.098 20.0672C58.1613 20.1186 58.2109 20.1849 58.2423 20.2603C58.2737 20.3356 58.2858 20.4175 58.2777 20.4987C58.2696 20.5798 58.2414 20.6577 58.1957 20.7253C58.15 20.7929 58.0882 20.8481 58.0159 20.8859L49.4438 25.3437Z" fill="#7E57C2"/>
<path opacity="0.8" d="M49.4438 25.3437C49.4438 25.3437 45.0032 21.8801 41.2382 15.2087C41.0283 14.8362 40.9011 14.4229 40.8654 13.9969C40.8297 13.5709 40.8861 13.1422 41.031 12.74C41.1759 12.3377 41.4058 11.9715 41.705 11.6661C42.0041 11.3607 42.3656 11.1234 42.7648 10.9704C44.1827 10.4284 45.7093 9.91507 46.9535 9.51814C47.5654 9.32096 48.2247 9.32766 48.8324 9.53722C49.4401 9.74679 49.9633 10.1479 50.3236 10.6803C51.8617 12.9703 53.3769 16.1991 58.098 20.0672C58.1613 20.1186 58.2109 20.1849 58.2423 20.2603C58.2737 20.3356 58.2858 20.4175 58.2777 20.4987C58.2696 20.5798 58.2414 20.6577 58.1957 20.7253C58.15 20.7929 58.0882 20.8481 58.0159 20.8859L49.4438 25.3437Z" fill="white"/>
<path opacity="0.2" d="M40.8984 14.3428C41.4557 12.5967 41.9366 13.1234 42.156 13.2971C43.8601 14.652 44.7456 17.5755 44.5776 20.2223C43.3335 18.6266 42.2096 16.9408 41.2152 15.1787C41.0665 14.9184 40.9596 14.6363 40.8984 14.3428Z" fill="black"/>
<path d="M41.2593 6.41406C42.1466 7.54759 43.5015 9.67916 43.0703 10.847C44.2251 11.3379 45.5258 11.3592 46.696 10.9062C48.1902 10.37 47.6883 9.86427 47.0223 9.49024C45.4728 9.71351 44.9232 8.52655 44.6618 7.47507L41.2593 6.41406Z" fill="#FFC3BD"/>
<path opacity="0.2" d="M44.6695 7.4822L42.7612 6.89062C42.8593 7.40289 43.0336 7.89756 43.2784 8.35811C43.6829 8.9764 44.763 9.31226 45.5683 9.15387C45.0741 8.74931 44.8222 8.09476 44.6695 7.4822Z" fill="black"/>
<path d="M45.3392 2.03125C46.03 2.58656 46.3506 3.85367 46.1026 4.73531C44.8526 2.76404 44.8354 2.182 44.8354 2.182L45.3392 2.03125Z" fill="#263238"/>
<path d="M41.0551 4.76524C41.4978 6.55905 41.6657 7.62769 42.7554 8.43109C43.0998 8.69963 43.5115 8.86828 43.9454 8.91857C44.3793 8.96887 44.8186 8.89887 45.2154 8.71625C45.6122 8.53363 45.9511 8.24541 46.195 7.88312C46.439 7.52082 46.5787 7.09841 46.5987 6.66209C46.6922 4.98661 45.9537 2.33789 44.0397 1.85318C42.1256 1.36847 40.6143 2.97335 41.0551 4.76524Z" fill="#FFC3BD"/>
<path d="M41.368 6.41292C41.8355 5.76982 42.0645 4.50462 41.7897 3.56383C42.9347 3.27186 46.4784 3.06576 45.509 1.16128C44.5396 -0.743201 43.219 0.113625 43.1942 0.794888C41.0226 0.16515 39.5685 0.886486 40.16 1.55821C37.9235 2.36733 38.7097 4.18212 39.2059 4.39966C38.4311 5.32328 38.7727 7.38806 39.9826 7.43386C41.1924 7.47966 41.7153 8.40327 42.3985 8.13993C42.2687 7.43767 41.368 6.41292 41.368 6.41292Z" fill="#263238"/>
<path d="M43.6961 4.96155C43.7171 5.10086 43.8049 5.202 43.8965 5.18864C43.9881 5.17528 44.0434 5.05315 44.0244 4.91575C44.0053 4.77836 43.9156 4.67531 43.824 4.68867C43.7324 4.70202 43.6771 4.82416 43.6961 4.96155Z" fill="#263238"/>
<path d="M45.3984 4.63208C45.4175 4.77139 45.5072 4.87253 45.5893 4.85917C45.6713 4.84581 45.7381 4.72368 45.719 4.58628C45.6999 4.44888 45.616 4.35156 45.5301 4.35156C45.4442 4.35156 45.3774 4.49469 45.3984 4.63208Z" fill="#263238"/>
<path d="M40.5055 6.67785C40.7696 7.00625 41.1478 7.22296 41.5646 7.28469C42.1142 7.35911 42.2898 6.85914 42.0512 6.38779C41.8394 5.96224 41.2879 5.41265 40.786 5.55386C40.2842 5.69507 40.1868 6.26184 40.5055 6.67785Z" fill="#FFC3BD"/>
<path d="M44.8486 4.78906C44.8486 4.78906 45.341 5.59246 45.7875 5.95313C45.57 6.23174 45.1024 6.1783 45.1024 6.1783L44.8486 4.78906Z" fill="#ED847E"/>
<path d="M44.385 6.92402C44.0381 6.92424 43.7053 6.787 43.4595 6.54236C43.4553 6.53843 43.452 6.5337 43.4497 6.52845C43.4475 6.5232 43.4463 6.51754 43.4463 6.51182C43.4463 6.50611 43.4475 6.50045 43.4497 6.4952C43.452 6.48995 43.4553 6.48522 43.4595 6.48129C43.468 6.47324 43.4792 6.46875 43.4909 6.46875C43.5027 6.46875 43.5139 6.47324 43.5224 6.48129C43.6605 6.61048 43.8258 6.70716 44.006 6.76428C44.1863 6.8214 44.3771 6.83751 44.5644 6.81143C44.576 6.80973 44.5878 6.81254 44.5973 6.81929C44.6069 6.82603 44.6136 6.8362 44.6159 6.84768C44.617 6.85335 44.6169 6.85917 44.6156 6.8648C44.6144 6.87042 44.612 6.87573 44.6086 6.88038C44.6052 6.88504 44.6008 6.88894 44.5959 6.89185C44.5909 6.89476 44.5854 6.89662 44.5796 6.8973C44.5155 6.91085 44.4504 6.91978 44.385 6.92402Z" fill="#263238"/>
<path d="M42.6768 4.43971C42.6615 4.43927 42.6465 4.43535 42.633 4.42826C42.612 4.41728 42.5963 4.3985 42.5892 4.37599C42.582 4.35348 42.584 4.32906 42.5948 4.30804C42.6568 4.18574 42.7482 4.08074 42.8607 4.00247C42.9733 3.9242 43.1036 3.8751 43.2398 3.85959C43.2635 3.85798 43.2869 3.86564 43.305 3.88095C43.3232 3.89626 43.3347 3.91802 43.3371 3.94164C43.3384 3.95288 43.3374 3.96426 43.3341 3.97509C43.3309 3.98591 43.3254 3.99594 43.318 4.00455C43.3107 4.01315 43.3016 4.02013 43.2914 4.02507C43.2813 4.03001 43.2702 4.03279 43.2589 4.03324C43.1512 4.04713 43.0486 4.08753 42.9603 4.15081C42.8721 4.21408 42.8009 4.29827 42.7532 4.39582C42.7454 4.40921 42.7343 4.42032 42.7209 4.42803C42.7075 4.43573 42.6923 4.43976 42.6768 4.43971Z" fill="#263238"/>
<path d="M45.9746 3.99267C45.9599 3.99522 45.9448 3.99431 45.9306 3.99C45.9163 3.98569 45.9033 3.97811 45.8925 3.96786C45.8151 3.8864 45.7198 3.82414 45.6141 3.78604C45.5084 3.74794 45.3953 3.73505 45.2838 3.74841C45.2604 3.75199 45.2365 3.74675 45.2167 3.7337C45.197 3.72065 45.1828 3.70073 45.1769 3.6778C45.1741 3.66688 45.1736 3.6555 45.1754 3.64437C45.1772 3.63323 45.1812 3.62259 45.1873 3.6131C45.1934 3.60361 45.2014 3.59548 45.2107 3.58921C45.2201 3.58294 45.2307 3.57867 45.2418 3.57666C45.3811 3.56019 45.5224 3.57588 45.6547 3.62252C45.787 3.66917 45.9069 3.74553 46.0051 3.84573C46.0211 3.86242 46.03 3.88464 46.03 3.90775C46.03 3.93086 46.0211 3.95308 46.0051 3.96977C45.9963 3.97914 45.986 3.98689 45.9746 3.99267Z" fill="#263238"/>
<path d="M76.622 35.7747L78.7917 35.3758L73.4103 30.4219L71.8989 32.5916L76.622 35.7747Z" fill="#FFC3BD"/>
<path d="M76.5301 36.9517C76.3584 36.4556 76.49 35.7857 76.0034 35.0205C76.0034 35.0205 77.1484 33.8622 77.6255 34.3717C78.1025 34.8812 79.5834 35.4041 81.3848 34.9919C81.6367 34.9346 81.713 35.6884 81.1463 35.8831C80.2093 36.2037 79.5166 36.4269 78.717 36.7017C78.0338 36.9364 77.9117 37.1464 77.3812 37.3696C76.9385 37.5566 76.7038 37.4498 76.5301 36.9517Z" fill="#FFC3BD"/>
<path d="M56.0637 21.8984C56.0637 21.8984 63.1645 22.8526 67.3361 24.322C70.105 25.2933 75.3509 31.8044 75.3509 31.8044L73.2289 33.936C73.2289 33.936 67.9639 30.4572 64.1015 28.5756C57.3404 29.9114 50.4877 30.3541 49.4438 25.3544C51.0029 24.3182 56.0637 21.8984 56.0637 21.8984Z" fill="#263238"/>
<path opacity="0.2" d="M66.2768 24.2344L65.5479 29.3066C66.7234 29.9326 67.9485 30.6424 69.0668 31.3123L66.2768 24.2344Z" fill="black"/>
<path d="M76.4288 31.9232L73.3717 34.9307L72.3394 33.946L75.4823 30.7344L76.4288 31.9232Z" fill="#7E57C2"/>
<path d="M58.163 20.3397C58.163 20.3397 66.2122 17.7502 70.3762 19.2138C73.1451 20.1852 70.588 29.4137 70.588 29.4137L66.8172 29.8755C66.8172 29.8755 66.3993 26.1963 66.0538 24.3205C62.6323 25.7517 52.587 28.7859 51.5508 23.7861C53.1022 22.7595 58.163 20.3397 58.163 20.3397Z" fill="#263238"/>
<path d="M68.3205 34.9308L70.1181 35.011L69.9673 28.9922L67.3301 29.183L68.3205 34.9308Z" fill="#FFC3BD"/>
<path d="M67.6664 36.0795C67.8172 35.5757 68.3171 35.112 68.3706 34.2055C68.3706 34.2055 69.9812 33.9422 70.0651 34.633C70.1491 35.3238 71.046 36.6157 72.7482 37.339C72.9848 37.4401 72.6051 38.1023 72.0326 37.921C71.0785 37.6328 70.3934 37.4058 69.5843 37.1577C68.8934 36.9478 68.6702 37.0451 68.111 36.9153C67.6492 36.8084 67.5195 36.5852 67.6664 36.0795Z" fill="#FFC3BD"/>
<path d="M70.9675 29.9643L66.7311 30.6265L66.4658 29.2239L70.8912 28.4453L70.9675 29.9643Z" fill="#7E57C2"/>
<path d="M43.5566 13.6377C43.6653 14.88 43.7722 16.1567 43.9115 17.4009C43.9764 18.023 44.0604 18.6413 44.1481 19.2462C44.2278 19.8136 44.3445 20.3752 44.4974 20.9274C44.5257 21.0232 44.5588 21.1174 44.5966 21.2098C44.608 21.2404 44.6195 21.2614 44.6099 21.2499C44.6004 21.2385 44.6099 21.2595 44.5775 21.2175L44.5355 21.1755L44.505 21.1469L44.4725 21.124L44.4535 21.1125C44.4444 21.106 44.4348 21.1003 44.4248 21.0953C44.3962 21.0839 44.4115 21.0953 44.4382 21.1106C44.4763 21.1301 44.5159 21.1467 44.5565 21.1602C44.6714 21.2027 44.7886 21.2384 44.9076 21.2671C45.1691 21.332 45.461 21.3854 45.7587 21.4312C46.0564 21.477 46.3618 21.5228 46.6709 21.561C47.9056 21.7155 49.1899 21.8167 50.4589 21.9426H50.4722C50.64 21.9613 50.7954 22.0398 50.91 22.1637C51.0247 22.2877 51.0908 22.4487 51.0964 22.6174C51.1019 22.7861 51.0465 22.9512 50.9403 23.0824C50.8341 23.2136 50.6842 23.3022 50.518 23.3319C49.212 23.5522 47.8919 23.6797 46.5679 23.7135C45.8716 23.7399 45.1743 23.7131 44.4821 23.6334C44.2826 23.6083 44.0846 23.5733 43.8886 23.5284C43.7817 23.5017 43.6711 23.4712 43.547 23.4273C43.3998 23.378 43.2579 23.314 43.1234 23.2365C43.0871 23.2155 43.0394 23.1868 42.9936 23.1544L42.9249 23.1067L42.8581 23.0533L42.7818 22.9846C42.7524 22.9574 42.7244 22.9287 42.6978 22.8987C42.66 22.858 42.6243 22.8153 42.591 22.7708C42.5001 22.6546 42.4184 22.5315 42.3467 22.4025C42.2402 22.2072 42.1465 22.0051 42.0662 21.7976C41.9309 21.4505 41.8168 21.0956 41.7246 20.7347C41.6349 20.3931 41.5586 20.0591 41.488 19.7252C41.3448 19.0592 41.2437 18.4008 41.1445 17.7444C40.9536 16.4276 40.8296 15.1357 40.7628 13.8037C40.7484 13.4385 40.8769 13.0819 41.1212 12.8099C41.3654 12.5379 41.7061 12.3718 42.0708 12.347C42.4355 12.3222 42.7955 12.4405 43.0744 12.6769C43.3533 12.9132 43.529 13.249 43.5642 13.6129L43.5566 13.6377Z" fill="#FFC3BD"/>
<path d="M62.8116 18.8594L66.8018 20.7009C67.048 20.8135 67.2216 21.1722 67.0556 21.2257L55.6955 24.7751C55.6039 24.7909 55.51 24.7881 55.4195 24.7668C55.329 24.7455 55.2438 24.7061 55.1688 24.6511L51.8274 22.6435C51.5889 22.5004 51.4457 22.1741 51.6118 22.1264L62.8116 18.8594Z" fill="#7E57C2"/>
<path opacity="0.4" d="M62.8116 18.8594L66.8018 20.7009C67.048 20.8135 67.2216 21.1722 67.0556 21.2257L55.6955 24.7751C55.6039 24.7909 55.51 24.7881 55.4195 24.7668C55.329 24.7455 55.2438 24.7061 55.1688 24.6511L51.8274 22.6435C51.5889 22.5004 51.4457 22.1741 51.6118 22.1264L62.8116 18.8594Z" fill="black"/>
<path d="M66.2498 12.6695L65.3403 12.9453L65.4001 13.1425L66.3096 12.8668L66.2498 12.6695Z" fill="#7E57C2"/>
<path d="M64.3366 13.2468L60.9253 14.2812L60.9851 14.4785L64.3964 13.444L64.3366 13.2468Z" fill="#7E57C2"/>
<path d="M67.5804 13.0096L55.873 16.5667C55.798 16.5919 55.7318 16.638 55.6821 16.6995C55.6325 16.761 55.6013 16.8354 55.5924 16.914L55.1802 24.3869C55.1754 24.4187 55.1793 24.4512 55.1913 24.481C55.2034 24.5108 55.2232 24.5368 55.2488 24.5563C55.2743 24.5758 55.3046 24.5881 55.3366 24.5918C55.3685 24.5956 55.4008 24.5907 55.4302 24.5777L67.1395 21.0321C67.2145 21.0063 67.2806 20.9598 67.3303 20.898C67.3799 20.8362 67.411 20.7616 67.4201 20.6829L67.8323 13.2119C67.8398 13.179 67.838 13.1447 67.8269 13.1128C67.8159 13.0809 67.7961 13.0528 67.7698 13.0317C67.7435 13.0106 67.7118 12.9973 67.6782 12.9934C67.6447 12.9895 67.6108 12.9951 67.5804 13.0096Z" fill="#7E57C2"/>
<path opacity="0.4" d="M55.5924 16.9058L55.1802 24.3787C55.1754 24.4105 55.1793 24.443 55.1913 24.4728C55.2034 24.5026 55.2232 24.5286 55.2488 24.5481C55.2743 24.5676 55.3046 24.5799 55.3366 24.5837C55.3685 24.5874 55.4008 24.5826 55.4302 24.5695L55.873 16.5547C55.7975 16.5802 55.7309 16.6269 55.6812 16.6891C55.6315 16.7514 55.6007 16.8266 55.5924 16.9058Z" fill="black"/>
<path d="M50.2168 21.8911L51.8198 21.5781L51.7358 23.6773C51.7358 23.6773 49.9211 23.8337 49.6367 22.9998L49.7951 22.2976C49.818 22.196 49.8701 22.1034 49.9451 22.0311C50.02 21.9589 50.1145 21.9102 50.2168 21.8911Z" fill="#FFC3BD"/>
<path d="M53.0201 21.7117L53.6193 23.2689L51.7358 23.6773L51.8198 21.5781L53.0201 21.7117Z" fill="#FFC3BD"/>
<path d="M61.7371 36.8776C61.615 36.8778 61.4971 36.8337 61.4051 36.7535L27.882 8.12904C27.7872 8.038 27.7308 7.91418 27.7243 7.78291C27.7178 7.65165 27.7617 7.52286 27.847 7.4229C27.9323 7.32294 28.0526 7.25937 28.1833 7.2452C28.314 7.23102 28.4451 7.26731 28.5499 7.34664L62.071 35.973C62.1512 36.0411 62.2085 36.1323 62.2352 36.234C62.2619 36.3358 62.2567 36.4433 62.2202 36.542C62.1838 36.6407 62.1179 36.7258 62.0315 36.7859C61.9451 36.8459 61.8423 36.8779 61.7371 36.8776Z" fill="#7E57C2"/>
<path opacity="0.3" d="M61.7371 36.8776C61.615 36.8778 61.4971 36.8337 61.4051 36.7535L27.882 8.12904C27.7872 8.038 27.7308 7.91418 27.7243 7.78291C27.7178 7.65165 27.7617 7.52286 27.847 7.4229C27.9323 7.32294 28.0526 7.25937 28.1833 7.2452C28.314 7.23102 28.4451 7.26731 28.5499 7.34664L62.071 35.973C62.1512 36.0411 62.2085 36.1323 62.2352 36.234C62.2619 36.3358 62.2567 36.4433 62.2202 36.542C62.1838 36.6407 62.1179 36.7258 62.0315 36.7859C61.9451 36.8459 61.8423 36.8779 61.7371 36.8776Z" fill="white"/>
<path d="M39.7706 36.878C39.655 36.8774 39.5429 36.8385 39.4519 36.7673C39.3767 36.7091 39.319 36.6312 39.2854 36.5423C39.2517 36.4534 39.2433 36.3569 39.261 36.2635L42.4708 20.2338C42.484 20.1676 42.51 20.1047 42.5475 20.0486C42.585 19.9925 42.6331 19.9444 42.6892 19.9069C42.7453 19.8694 42.8082 19.8434 42.8744 19.8302C42.9405 19.817 43.0086 19.817 43.0748 19.8302C43.1409 19.8433 43.2038 19.8694 43.2599 19.9069C43.316 19.9443 43.3642 19.9925 43.4017 20.0486C43.4391 20.1047 43.4652 20.1676 43.4784 20.2337C43.4915 20.2999 43.4915 20.368 43.4784 20.4342L40.4671 35.4715L57.9585 27.4681C58.0201 27.4383 58.0869 27.421 58.1552 27.4173C58.2235 27.4136 58.2918 27.4236 58.3562 27.4467C58.4206 27.4698 58.4797 27.5056 58.53 27.5518C58.5804 27.5981 58.621 27.654 58.6495 27.7161C58.678 27.7783 58.6937 27.8455 58.6959 27.9139C58.698 27.9822 58.6865 28.0503 58.6619 28.1142C58.6374 28.178 58.6003 28.2363 58.5529 28.2856C58.5056 28.3349 58.4488 28.3742 58.386 28.4013L39.9786 36.8245C39.9136 36.8565 39.8428 36.8747 39.7706 36.878Z" fill="#7E57C2"/>
<path opacity="0.3" d="M39.7706 36.878C39.655 36.8774 39.5429 36.8385 39.4519 36.7673C39.3767 36.7091 39.319 36.6312 39.2854 36.5423C39.2517 36.4534 39.2433 36.3569 39.261 36.2635L42.4708 20.2338C42.484 20.1676 42.51 20.1047 42.5475 20.0486C42.585 19.9925 42.6331 19.9444 42.6892 19.9069C42.7453 19.8694 42.8082 19.8434 42.8744 19.8302C42.9405 19.817 43.0086 19.817 43.0748 19.8302C43.1409 19.8433 43.2038 19.8694 43.2599 19.9069C43.316 19.9443 43.3642 19.9925 43.4017 20.0486C43.4391 20.1047 43.4652 20.1676 43.4784 20.2337C43.4915 20.2999 43.4915 20.368 43.4784 20.4342L40.4671 35.4715L57.9585 27.4681C58.0201 27.4383 58.0869 27.421 58.1552 27.4173C58.2235 27.4136 58.2918 27.4236 58.3562 27.4467C58.4206 27.4698 58.4797 27.5056 58.53 27.5518C58.5804 27.5981 58.621 27.654 58.6495 27.7161C58.678 27.7783 58.6937 27.8455 58.6959 27.9139C58.698 27.9822 58.6865 28.0503 58.6619 28.1142C58.6374 28.178 58.6003 28.2363 58.5529 28.2856C58.5056 28.3349 58.4488 28.3742 58.386 28.4013L39.9786 36.8245C39.9136 36.8565 39.8428 36.8747 39.7706 36.878Z" fill="white"/>
</svg>
