<svg width="8" height="14" viewBox="0 0 8 14" fill="none" xmlns="http://www.w3.org/2000/svg">
<path d="M0 12.8788V1.70682C4.22242e-05 1.50907 0.0587138 1.31577 0.168598 1.15136C0.278482 0.98695 0.434645 0.85881 0.617345 0.78314C0.800044 0.70747 1.00108 0.687667 1.19503 0.726235C1.38898 0.764802 1.56715 0.860009 1.707 0.999818L7.29299 6.58582C7.48046 6.77335 7.58577 7.02765 7.58577 7.29282C7.58577 7.55798 7.48046 7.81229 7.29299 7.99982L1.707 13.5858C1.56715 13.7256 1.38898 13.8208 1.19503 13.8594C1.00108 13.898 0.800044 13.8782 0.617345 13.8025C0.434645 13.7268 0.278482 13.5987 0.168598 13.4343C0.0587138 13.2699 4.22242e-05 13.0766 0 12.8788Z" fill="#2A2076"/>
</svg>
