<svg width="12" height="12" viewBox="0 0 12 12" fill="none" xmlns="http://www.w3.org/2000/svg">
<g id="u:angle-down">
<path id="Vector" d="M9.75002 3.87825C9.6095 3.73856 9.41941 3.66016 9.22127 3.66016C9.02313 3.66016 8.83305 3.73856 8.69252 3.87825L6.00002 6.53325L3.34502 3.87825C3.2045 3.73856 3.01441 3.66016 2.81627 3.66016C2.61813 3.66016 2.42804 3.73856 2.28752 3.87825C2.21723 3.94797 2.16143 4.03092 2.12335 4.12232C2.08528 4.21371 2.06567 4.31174 2.06567 4.41075C2.06567 4.50976 2.08528 4.60779 2.12335 4.69918C2.16143 4.79058 2.21723 4.87353 2.28752 4.94325L5.46752 8.12325C5.53724 8.19355 5.6202 8.24934 5.71159 8.28742C5.80298 8.3255 5.90101 8.3451 6.00002 8.3451C6.09903 8.3451 6.19706 8.3255 6.28846 8.28742C6.37985 8.24934 6.4628 8.19355 6.53252 8.12325L9.75002 4.94325C9.82032 4.87353 9.87611 4.79058 9.91419 4.69918C9.95227 4.60779 9.97187 4.50976 9.97187 4.41075C9.97187 4.31174 9.95227 4.21371 9.91419 4.12232C9.87611 4.03092 9.82032 3.94797 9.75002 3.87825Z" fill="#797B86"/>
</g>
</svg>
