<svg width="32" height="32" viewBox="0 0 32 32" fill="none" xmlns="http://www.w3.org/2000/svg">
<g clip-path="url(#clip0_374_6026)">
<path d="M0.436 15.9987C0.474667 15.8747 0.492 15.7454 0.536 15.6227L4.13333 5.72003C4.60311 4.4351 5.45595 3.32531 6.57664 2.54058C7.69734 1.75586 9.03188 1.33401 10.4 1.33203H21.6C22.9683 1.33392 24.3031 1.75589 25.4238 2.54089C26.5446 3.32589 27.3973 4.43607 27.8667 5.72136L31.4667 15.6227C31.5107 15.7454 31.528 15.8747 31.5667 15.9987H0.436ZM26.6667 18.6654V21.332C26.6667 21.6857 26.5262 22.0248 26.2761 22.2748C26.0261 22.5249 25.687 22.6654 25.3333 22.6654C24.9797 22.6654 24.6406 22.5249 24.3905 22.2748C24.1405 22.0248 24 21.6857 24 21.332V18.6654H8V21.332C8 21.6857 7.85952 22.0248 7.60948 22.2748C7.35943 22.5249 7.02029 22.6654 6.66667 22.6654C6.31305 22.6654 5.97391 22.5249 5.72386 22.2748C5.47381 22.0248 5.33333 21.6857 5.33333 21.332V18.6654H0V21.332C0.0017045 22.6277 0.380941 23.8948 1.09133 24.9784C1.80172 26.062 2.81248 26.9151 4 27.4334V29.332C4 30.0393 4.28095 30.7176 4.78105 31.2176C5.28115 31.7177 5.95942 31.9987 6.66667 31.9987C7.37391 31.9987 8.05219 31.7177 8.55229 31.2176C9.05238 30.7176 9.33333 30.0393 9.33333 29.332V27.9987H22.6667V29.332C22.6667 30.0393 22.9476 30.7176 23.4477 31.2176C23.9478 31.7177 24.6261 31.9987 25.3333 31.9987C26.0406 31.9987 26.7189 31.7177 27.219 31.2176C27.719 30.7176 28 30.0393 28 29.332V27.4334C29.1875 26.9151 30.1983 26.062 30.9087 24.9784C31.6191 23.8948 31.9983 22.6277 32 21.332V18.6654H26.6667Z" fill="url(#paint0_linear_374_6026)"/>
</g>
<defs>
<linearGradient id="paint0_linear_374_6026" x1="32" y1="16.6654" x2="-8.57011e-07" y2="16.6654" gradientUnits="userSpaceOnUse">
<stop stop-color="#301F6C"/>
<stop offset="1" stop-color="#D60D47"/>
</linearGradient>
<clipPath id="clip0_374_6026">
<rect width="32" height="32" fill="white"/>
</clipPath>
</defs>
</svg>
