<svg width="32" height="32" viewBox="0 0 32 32" fill="none" xmlns="http://www.w3.org/2000/svg">
<g clip-path="url(#clip0_374_6038)">
<path d="M7.82423 20.7784C6.41802 19.4794 5.34541 17.8609 4.69719 16.0596C4.04897 14.2584 3.8442 12.3275 4.10023 10.4304C4.35339 8.50673 5.06921 6.67315 6.18635 5.08679C7.30349 3.50044 8.78862 2.20863 10.5145 1.32207C12.2403 0.435517 14.1554 -0.0193381 16.0956 -0.0035067C18.0357 0.0123246 19.9431 0.49837 21.6543 1.41297C23.3654 2.32757 24.8293 3.64345 25.9204 5.24782C27.0115 6.85219 27.6973 8.69721 27.919 10.6247C28.1408 12.5523 27.8918 14.5048 27.1935 16.315C26.4952 18.1252 25.3683 19.7391 23.9096 21.0184C22.9702 21.826 22.2409 22.8495 21.7842 24.001H17.3336V14.4224C18.1108 14.1476 18.7841 13.6394 19.2614 12.9673C19.7388 12.2952 19.9968 11.4921 20.0002 10.6677C20.0002 10.3141 19.8598 9.97495 19.6097 9.7249C19.3597 9.47485 19.0205 9.33438 18.6669 9.33438C18.3133 9.33438 17.9741 9.47485 17.7241 9.7249C17.474 9.97495 17.3336 10.3141 17.3336 10.6677C17.3336 11.0213 17.1931 11.3605 16.943 11.6105C16.693 11.8606 16.3539 12.001 16.0002 12.001C15.6466 12.001 15.3075 11.8606 15.0574 11.6105C14.8074 11.3605 14.6669 11.0213 14.6669 10.6677C14.6669 10.3141 14.5264 9.97495 14.2764 9.7249C14.0263 9.47485 13.6872 9.33438 13.3336 9.33438C12.9799 9.33438 12.6408 9.47485 12.3908 9.7249C12.1407 9.97495 12.0002 10.3141 12.0002 10.6677C12.0036 11.4921 12.2617 12.2952 12.739 12.9673C13.2164 13.6394 13.8897 14.1476 14.6669 14.4224V24.001H10.0842C9.57449 22.7751 8.80319 21.6753 7.82423 20.7784ZM10.6669 26.6677V27.081C10.6683 28.3855 11.1871 29.6361 12.1095 30.5585C13.0319 31.4808 14.2825 31.9996 15.5869 32.001H16.4136C17.718 31.9996 18.9686 31.4808 19.891 30.5585C20.8133 29.6361 21.3322 28.3855 21.3336 27.081V26.6677H10.6669Z" fill="url(#paint0_linear_374_6038)"/>
</g>
<defs>
<linearGradient id="paint0_linear_374_6038" x1="27.9976" y1="15.9986" x2="3.99316" y2="15.9986" gradientUnits="userSpaceOnUse">
<stop stop-color="#301F6C"/>
<stop offset="1" stop-color="#D60D47"/>
</linearGradient>
<clipPath id="clip0_374_6038">
<rect width="32" height="32" fill="white"/>
</clipPath>
</defs>
</svg>
