<svg width="32" height="32" viewBox="0 0 32 32" fill="none" xmlns="http://www.w3.org/2000/svg">
<g clip-path="url(#clip0_374_6002)">
<path d="M32 10.6647V26.6647H29.3333V12.3847L18.8267 19.1607C17.9852 19.7073 17.0034 19.9982 16 19.9982C14.9966 19.9982 14.0148 19.7073 13.1733 19.1607L0 10.6647L13.1733 2.16741C14.0153 1.62215 14.9969 1.33203 16 1.33203C17.0031 1.33203 17.9847 1.62215 18.8267 2.16741L32 10.6647ZM16 22.6647C14.4858 22.6637 13.0042 22.2252 11.7333 21.4021L5.33333 17.2781V27.2167L5.724 27.6074C5.84933 27.7314 8.86267 30.6647 16 30.6647C23.1373 30.6647 26.1507 27.7314 26.276 27.6074L26.6667 27.2167V17.2781L20.2667 21.4021C18.9958 22.2252 17.5142 22.6637 16 22.6647Z" fill="url(#paint0_linear_374_6002)"/>
</g>
<defs>
<linearGradient id="paint0_linear_374_6002" x1="32" y1="15.9984" x2="-8.57011e-07" y2="15.9984" gradientUnits="userSpaceOnUse">
<stop stop-color="#301F6C"/>
<stop offset="1" stop-color="#D60D47"/>
</linearGradient>
<clipPath id="clip0_374_6002">
<rect width="32" height="32" fill="white"/>
</clipPath>
</defs>
</svg>
