<svg width="34" height="34" viewBox="0 0 34 34" fill="none" xmlns="http://www.w3.org/2000/svg">
<g clip-path="url(#clip0_374_6032)">
<path d="M24.7917 2.71875C23.1965 2.74356 21.636 3.18888 20.2679 4.00972C18.8999 4.83056 17.7726 5.99786 17 7.39375C16.2274 5.99786 15.1002 4.83056 13.7321 4.00972C12.364 3.18888 10.8036 2.74356 9.20836 2.71875C6.66536 2.82924 4.26944 3.94169 2.54405 5.81308C0.818657 7.68446 -0.0959576 10.1627 2.22917e-05 12.7063C2.22917e-05 19.1478 6.78019 26.183 12.4667 30.9529C13.7363 32.0198 15.3416 32.6048 17 32.6048C18.6584 32.6048 20.2637 32.0198 21.5334 30.9529C27.2199 26.183 34 19.1478 34 12.7063C34.096 10.1627 33.1814 7.68446 31.456 5.81308C29.7306 3.94169 27.3347 2.82924 24.7917 2.71875Z" fill="url(#paint0_linear_374_6032)"/>
</g>
<defs>
<linearGradient id="paint0_linear_374_6032" x1="34.0069" y1="17.6618" x2="-0.00683685" y2="17.6618" gradientUnits="userSpaceOnUse">
<stop stop-color="#301F6C"/>
<stop offset="1" stop-color="#D60D47"/>
</linearGradient>
<clipPath id="clip0_374_6032">
<rect width="34" height="34" fill="white"/>
</clipPath>
</defs>
</svg>
