<svg width="32" height="32" viewBox="0 0 32 32" fill="none" xmlns="http://www.w3.org/2000/svg">
<g clip-path="url(#clip0_374_6014)">
<path d="M14.6667 0H4C2.93913 0 1.92172 0.421427 1.17157 1.17157C0.421427 1.92172 0 2.93913 0 4L0 32H18.6667V4C18.6667 2.93913 18.2452 1.92172 17.4951 1.17157C16.7449 0.421427 15.7275 0 14.6667 0V0ZM8 25.3333H4V22.6667H8V25.3333ZM8 20H4V17.3333H8V20ZM8 14.6667H4V12H8V14.6667ZM8 9.33333H4V6.66667H8V9.33333ZM14.6667 25.3333H10.6667V22.6667H14.6667V25.3333ZM14.6667 20H10.6667V17.3333H14.6667V20ZM14.6667 14.6667H10.6667V12H14.6667V14.6667ZM14.6667 9.33333H10.6667V6.66667H14.6667V9.33333ZM28 6.66667H21.3333V32H32V10.6667C32 9.6058 31.5786 8.58839 30.8284 7.83824C30.0783 7.08809 29.0609 6.66667 28 6.66667ZM28 25.3333H25.3333V22.6667H28V25.3333ZM28 20H25.3333V17.3333H28V20ZM28 14.6667H25.3333V12H28V14.6667Z" fill="url(#paint0_linear_374_6014)"/>
</g>
<defs>
<linearGradient id="paint0_linear_374_6014" x1="32" y1="16" x2="-8.57011e-07" y2="16" gradientUnits="userSpaceOnUse">
<stop stop-color="#301F6C"/>
<stop offset="1" stop-color="#D60D47"/>
</linearGradient>
<clipPath id="clip0_374_6014">
<rect width="32" height="32" fill="white"/>
</clipPath>
</defs>
</svg>
