<svg width="32" height="32" viewBox="0 0 32 32" fill="none" xmlns="http://www.w3.org/2000/svg">
<g clip-path="url(#clip0_374_6008)">
<path d="M21.3336 10.6667C19.8266 10.6679 18.3371 10.9896 16.9639 11.6102C15.5906 12.2309 14.365 13.1364 13.3683 14.2667C12.733 13.9578 12.0641 13.7234 11.375 13.568L13.623 9.06667L11.219 6.66667H7.44829L5.04829 9.06667L7.29629 13.5613C5.92425 13.8634 4.63811 14.4714 3.53379 15.3399C2.42946 16.2083 1.53544 17.3149 0.918385 18.577C0.301335 19.8392 -0.022821 21.2243 -0.0299104 22.6292C-0.0369999 24.0341 0.27316 25.4225 0.877441 26.6908C1.48172 27.9591 2.36453 29.0746 3.46004 29.9542C4.55555 30.8338 5.83548 31.4547 7.2044 31.7706C8.57333 32.0865 9.99591 32.0894 11.3661 31.7789C12.7362 31.4684 14.0186 30.8525 15.1176 29.9773C16.4821 30.9638 18.0606 31.6133 19.7242 31.8726C21.3878 32.132 23.0892 31.9939 24.6891 31.4695C26.2891 30.9452 27.7422 30.0495 28.9296 28.8559C30.117 27.6622 31.005 26.2044 31.5209 24.6017C32.0368 22.999 32.1659 21.2969 31.8978 19.6347C31.6297 17.9725 30.9719 16.3974 29.9783 15.0382C28.9846 13.679 27.6833 12.5743 26.1808 11.8145C24.6783 11.0547 23.0173 10.6614 21.3336 10.6667ZM14.979 26.1733C14.0936 25.0229 13.541 23.6515 13.3816 22.2085C13.2222 20.7656 13.462 19.3066 14.075 17.9907C15.1314 19.0498 15.7963 20.4367 15.9606 21.9236C16.1249 23.4105 15.7787 24.9091 14.979 26.1733ZM2.66696 22.6667C2.66415 21.5737 2.93078 20.497 3.44326 19.5316C3.95574 18.5663 4.69828 17.7422 5.60515 17.1322C6.51202 16.5222 7.55527 16.1452 8.64259 16.0344C9.7299 15.9237 10.8277 16.0827 11.839 16.4973C10.8876 18.3498 10.5024 20.4413 10.7314 22.5112C10.9604 24.581 11.7936 26.5377 13.127 28.1373C12.1285 28.8338 10.9582 29.2431 9.74327 29.3205C8.52837 29.3979 7.31552 29.1405 6.23679 28.5763C5.15806 28.0121 4.2548 27.1628 3.62535 26.1208C2.99591 25.0788 2.66441 23.884 2.66696 22.6667ZM21.3336 29.3333C19.7802 29.3338 18.2607 28.8791 16.963 28.0253C18.2757 26.1697 18.8621 23.8969 18.611 21.6377C18.3598 19.3786 17.2886 17.29 15.6003 15.768C16.5197 14.8186 17.66 14.1118 18.9193 13.7107C20.1785 13.3096 21.5176 13.2267 22.8167 13.4695C24.1158 13.7122 25.3346 14.2731 26.364 15.1019C27.3935 15.9306 28.2016 17.0016 28.7161 18.2189C29.2306 19.4363 29.4355 20.7621 29.3125 22.078C29.1894 23.3939 28.7423 24.6588 28.0111 25.7597C27.2799 26.8606 26.2873 27.7631 25.1221 28.3867C23.9568 29.0104 22.6552 29.3356 21.3336 29.3333ZM13.891 5.33333L12.0003 3.44133L15.0576 0.390667L16.943 2.276L13.891 5.33333ZM4.72429 5.276L1.72429 2.276L3.60963 0.390667L6.60963 3.39067L4.72429 5.276ZM10.667 4H8.00029V0H10.667V4Z" fill="url(#paint0_linear_374_6008)"/>
</g>
<defs>
<linearGradient id="paint0_linear_374_6008" x1="32.0339" y1="16.0048" x2="-0.0300302" y2="16.0048" gradientUnits="userSpaceOnUse">
<stop stop-color="#301F6C"/>
<stop offset="1" stop-color="#D60D47"/>
</linearGradient>
<clipPath id="clip0_374_6008">
<rect width="32" height="32" fill="white"/>
</clipPath>
</defs>
</svg>
