<svg width="32" height="32" viewBox="0 0 32 32" fill="none" xmlns="http://www.w3.org/2000/svg">
<g clip-path="url(#clip0_374_6020)">
<path d="M10.6666 4C10.6666 3.20888 10.9012 2.43552 11.3407 1.77772C11.7803 1.11992 12.405 0.607234 13.1359 0.304484C13.8668 0.00173314 14.6711 -0.0774802 15.447 0.0768607C16.2229 0.231202 16.9356 0.612165 17.4951 1.17157C18.0545 1.73098 18.4354 2.44372 18.5898 3.21964C18.7441 3.99556 18.6649 4.79983 18.3621 5.53074C18.0594 6.26164 17.5467 6.88635 16.8889 7.32588C16.2311 7.76541 15.4577 8 14.6666 8C13.6058 8 12.5883 7.57857 11.8382 6.82843C11.0881 6.07828 10.6666 5.06087 10.6666 4ZM30.6666 28H28.9613L27.2 22.7347C26.9348 21.9394 26.4264 21.2475 25.7467 20.7568C25.067 20.2661 24.2503 20.0014 23.412 20H18.6666C17.9594 20 17.2811 19.719 16.781 19.219C16.2809 18.7189 16 18.0406 16 17.3333H24C24.3536 17.3333 24.6927 17.1929 24.9428 16.9428C25.1928 16.6928 25.3333 16.3536 25.3333 16C25.3333 15.6464 25.1928 15.3072 24.9428 15.0572C24.6927 14.8071 24.3536 14.6667 24 14.6667H16V10.6667C16 10.313 15.8595 9.97391 15.6094 9.72386C15.3594 9.47381 15.0202 9.33334 14.6666 9.33334C14.313 9.33334 13.9739 9.47381 13.7238 9.72386C13.4738 9.97391 13.3333 10.313 13.3333 10.6667V17.3333C13.3333 18.7478 13.8952 20.1044 14.8954 21.1046C15.8956 22.1048 17.2521 22.6667 18.6666 22.6667H23.412C23.6919 22.6666 23.9648 22.7547 24.1919 22.9183C24.419 23.082 24.5888 23.3131 24.6773 23.5787L26.736 29.7547C26.8244 30.0201 26.994 30.2509 27.2208 30.4146C27.4477 30.5783 27.7202 30.6665 28 30.6667H30.6666C31.0202 30.6667 31.3594 30.5262 31.6094 30.2761C31.8595 30.0261 32 29.687 32 29.3333C32 28.9797 31.8595 28.6406 31.6094 28.3905C31.3594 28.1405 31.0202 28 30.6666 28ZM18.3813 25.3173C16.3092 25.2524 14.344 24.3821 12.9034 22.8912C11.4628 21.4003 10.6604 19.4065 10.6666 17.3333V12.0947C10.6666 11.9036 10.6256 11.7147 10.5462 11.5408C10.4669 11.367 10.3511 11.2122 10.2067 11.087C10.0623 10.9618 9.89264 10.8692 9.70928 10.8153C9.52593 10.7614 9.33313 10.7475 9.14396 10.7747C6.50123 11.1721 4.10374 12.5465 2.42536 14.6261C0.746975 16.7058 -0.0901719 19.3394 0.0793782 22.0065C0.248928 24.6735 1.41284 27.18 3.34106 29.0303C5.26928 30.8807 7.82151 31.9404 10.4933 32H10.6666C12.3896 32.0005 14.087 31.5832 15.6134 30.7839C17.1398 29.9846 18.4496 28.8271 19.4306 27.4107C19.5673 27.214 19.6485 26.9841 19.6656 26.7452C19.6827 26.5063 19.6352 26.2671 19.5279 26.053C19.4207 25.8388 19.2578 25.6574 19.0562 25.528C18.8547 25.3985 18.622 25.3258 18.3826 25.3173H18.3813Z" fill="url(#paint0_linear_374_6020)"/>
</g>
<defs>
<linearGradient id="paint0_linear_374_6020" x1="32" y1="16" x2="0.0578605" y2="16" gradientUnits="userSpaceOnUse">
<stop stop-color="#301F6C"/>
<stop offset="1" stop-color="#D60D47"/>
</linearGradient>
<clipPath id="clip0_374_6020">
<rect width="32" height="32" fill="white"/>
</clipPath>
</defs>
</svg>
