<svg width="24" height="25" viewBox="0 0 24 25" fill="none" xmlns="http://www.w3.org/2000/svg">
<g clip-path="url(#clip0_278_2091)">
<path d="M22.0568 5.729L14.6828 2.216C13.0596 1.24644 11.0393 1.22923 9.39979 2.171L1.94282 5.729C1.91483 5.74302 1.88582 5.75802 1.85882 5.774C0.0891931 6.78584 -0.525151 9.04067 0.486693 10.8103C0.829677 11.4102 1.33419 11.9017 1.94282 12.229L3.99983 13.209V18.109C4.00105 20.3001 5.42676 22.2358 7.51883 22.887C8.97472 23.3082 10.4843 23.5144 11.9998 23.499C13.5151 23.516 15.0247 23.3115 16.4809 22.892C18.5729 22.2409 19.9986 20.3051 19.9999 18.114V13.207L21.9999 12.251V20.499C21.9999 21.0513 22.4476 21.499 22.9999 21.499C23.5521 21.499 23.9998 21.0513 23.9998 20.499V8.49898C24.0065 7.32472 23.0793 6.23994 22.0568 5.729ZM17.9998 18.114C18.0003 19.4246 17.15 20.5839 15.8998 20.977C14.632 21.3393 13.3183 21.5151 11.9998 21.499C10.6813 21.5151 9.36758 21.3393 8.0998 20.977C6.8496 20.5838 5.99929 19.4246 5.9998 18.114V14.162L9.31682 15.7421C10.1353 16.2281 11.07 16.4834 12.0218 16.481C12.9278 16.4875 13.8186 16.2476 14.5988 15.7871L17.9998 14.162V18.114ZM21.1998 10.424L13.6578 14.024C12.6062 14.6363 11.3028 14.619 10.2678 13.979L2.8888 10.469C2.06629 10.0255 1.75907 8.99914 2.2026 8.17667C2.3526 7.89852 2.57751 7.66794 2.85182 7.511L10.3468 3.93102C11.3987 3.32005 12.7015 3.33734 13.7368 3.97602L21.1108 7.48902C21.6531 7.79014 21.9924 8.35878 21.9998 8.97903C22.0008 9.56656 21.6982 10.1129 21.1998 10.424Z" fill="#343434"/>
</g>
<defs>
<clipPath id="clip0_278_2091">
<rect width="24" height="24" fill="white" transform="translate(0 0.5)"/>
</clipPath>
</defs>
</svg>
