<svg width="24" height="25" viewBox="0 0 24 25" fill="none" xmlns="http://www.w3.org/2000/svg">
<g clip-path="url(#clip0_278_2080)">
<path d="M24 10.2245V19.5005C23.9984 20.8261 23.4711 22.097 22.5338 23.0343C21.5964 23.9717 20.3256 24.499 19 24.5006H18C17.7348 24.5006 17.4804 24.3952 17.2929 24.2077C17.1054 24.0201 17 23.7658 17 23.5005C17 23.2353 17.1054 22.981 17.2929 22.7934C17.4804 22.6059 17.7348 22.5005 18 22.5005H19C19.7957 22.5005 20.5587 22.1845 21.1213 21.6219C21.6839 21.0593 22 20.2962 22 19.5005V10.2245C22 9.73347 21.8795 9.24989 21.649 8.81626C21.4185 8.38264 21.0851 8.01223 20.678 7.73755L13.678 3.01455C13.1834 2.67735 12.5986 2.497 12 2.497C11.4014 2.497 10.8166 2.67735 10.322 3.01455L3.322 7.73755C2.91493 8.01223 2.5815 8.38264 2.351 8.81626C2.1205 9.24989 1.99998 9.73347 2 10.2245V19.5005C2 20.2962 2.31607 21.0593 2.87868 21.6219C3.44129 22.1845 4.20435 22.5005 5 22.5005H6C6.26522 22.5005 6.51957 22.6059 6.70711 22.7934C6.89465 22.981 7 23.2353 7 23.5005C7 23.7658 6.89465 24.0201 6.70711 24.2077C6.51957 24.3952 6.26522 24.5006 6 24.5006H5C3.67441 24.499 2.40356 23.9717 1.46622 23.0343C0.528886 22.097 0.00159177 20.8261 3.91707e-06 19.5005V10.2245C-0.00102096 9.40627 0.199083 8.60027 0.582708 7.87749C0.966334 7.1547 1.52172 6.53728 2.2 6.07955L9.2 1.35555C10.0253 0.7955 10.9997 0.496094 11.997 0.496094C12.9944 0.496094 13.9687 0.7955 14.794 1.35555L21.794 6.07955C22.473 6.53704 23.0292 7.15426 23.4138 7.87699C23.7985 8.59972 23.9998 9.40584 24 10.2245ZM19 15.5075C19.0026 16.427 18.8227 17.3379 18.4708 18.1874C18.1189 19.0369 17.602 19.8082 16.95 20.4565L13.435 23.8945C13.0502 24.2671 12.5356 24.4754 12 24.4754C11.4644 24.4754 10.9498 24.2671 10.565 23.8945L7.058 20.4646C6.2424 19.6515 5.63999 18.6498 5.30419 17.5482C4.96839 16.4466 4.90957 15.2791 5.13293 14.1494C5.3563 13.0196 5.85496 11.9624 6.58471 11.0715C7.31445 10.1805 8.25274 9.48342 9.31639 9.04191C10.38 8.6004 11.5362 8.42814 12.6823 8.5404C13.8285 8.65266 14.9293 9.04597 15.887 9.68546C16.8448 10.325 17.63 11.1909 18.173 12.2065C18.716 13.222 19.0001 14.3559 19 15.5075ZM17 15.5075C17 14.6853 16.7973 13.8758 16.4097 13.1506C16.0221 12.4255 15.4617 11.8071 14.778 11.3503C14.0944 10.8934 13.3086 10.6122 12.4904 10.5316C11.6721 10.4509 10.8466 10.5733 10.0869 10.8879C9.32726 11.2025 8.6569 11.6996 8.13523 12.3352C7.61356 12.9707 7.25667 13.7251 7.09618 14.5315C6.93569 15.3379 6.97654 16.1715 7.21513 16.9583C7.45372 17.7452 7.88268 18.4611 8.464 19.0425L11.964 22.4646L15.544 19.0345C16.0076 18.572 16.375 18.0221 16.6249 17.4167C16.8748 16.8114 17.0023 16.1625 17 15.5075ZM15 15.5005C15 16.0939 14.8241 16.6739 14.4944 17.1673C14.1648 17.6606 13.6962 18.0451 13.1481 18.2722C12.5999 18.4993 11.9967 18.5587 11.4147 18.4429C10.8328 18.3272 10.2982 18.0414 9.87868 17.6219C9.45913 17.2023 9.1734 16.6678 9.05765 16.0858C8.94189 15.5039 9.0013 14.9007 9.22837 14.3525C9.45543 13.8043 9.83995 13.3358 10.3333 13.0061C10.8266 12.6765 11.4067 12.5005 12 12.5005C12.7957 12.5005 13.5587 12.8166 14.1213 13.3792C14.6839 13.9418 15 14.7049 15 15.5005Z" fill="#343434"/>
</g>
<defs>
<clipPath id="clip0_278_2080">
<rect width="24" height="24" fill="white" transform="translate(0 0.5)"/>
</clipPath>
</defs>
</svg>
