<svg width="22" height="20" viewBox="0 0 22 20" fill="none" xmlns="http://www.w3.org/2000/svg">
<mask id="mask0_1740_4482" style="mask-type:alpha" maskUnits="userSpaceOnUse" x="0" y="0" width="22" height="20">
<rect x="0.25" width="21.5" height="20" fill="#D9D9D9"/>
</mask>
<g mask="url(#mask0_1740_4482)">
<path d="M7.25 16.25H8.5V10.625H11L12.25 12.5H17.25V6.875H14.125L12.875 5H7.25V16.25ZM12.9275 11.25L11.6775 9.375H8.5V6.25H12.1975L13.4475 8.125H16V11.25H12.9275ZM11 20C9.62833 20 8.335 19.7396 7.12 19.2188C5.905 18.6979 4.84167 17.9817 3.93 17.07C3.01833 16.1583 2.30208 15.095 1.78125 13.88C1.26042 12.665 1 11.3717 1 10C1 8.61083 1.26042 7.31292 1.78125 6.10625C2.30208 4.90042 3.01833 3.84167 3.93 2.93C4.84167 2.01833 5.905 1.30208 7.12 0.78125C8.335 0.260417 9.62833 0 11 0C12.3892 0 13.6871 0.260417 14.8937 0.78125C16.0996 1.30208 17.1583 2.01833 18.07 2.93C18.9817 3.84167 19.6979 4.90042 20.2188 6.10625C20.7396 7.31292 21 8.61083 21 10C21 11.3717 20.7396 12.665 20.2188 13.88C19.6979 15.095 18.9817 16.1583 18.07 17.07C17.1583 17.9817 16.0996 18.6979 14.8937 19.2188C13.6871 19.7396 12.3892 20 11 20ZM11 18.125C13.2567 18.125 15.175 17.335 16.755 15.755C18.335 14.175 19.125 12.2567 19.125 10C19.125 7.74333 18.335 5.825 16.755 4.245C15.175 2.665 13.2567 1.875 11 1.875C8.74333 1.875 6.825 2.665 5.245 4.245C3.665 5.825 2.875 7.74333 2.875 10C2.875 12.2567 3.665 14.175 5.245 15.755C6.825 17.335 8.74333 18.125 11 18.125Z" fill="#727272"/>
</g>
</svg>
