<svg width="39" height="39" viewBox="0 0 39 39" fill="none" xmlns="http://www.w3.org/2000/svg">
<mask id="mask0_426_6535" style="mask-type:alpha" maskUnits="userSpaceOnUse" x="0" y="0" width="39" height="39">
<rect width="39" height="39" fill="#D9D9D9"/>
</mask>
<g mask="url(#mask0_426_6535)">
<path d="M26 17.875C26.4604 17.875 26.8461 17.719 27.157 17.407C27.469 17.0961 27.625 16.7104 27.625 16.25C27.625 15.7896 27.469 15.4034 27.157 15.0914C26.8461 14.7805 26.4604 14.625 26 14.625C25.5396 14.625 25.1539 14.7805 24.843 15.0914C24.531 15.4034 24.375 15.7896 24.375 16.25C24.375 16.7104 24.531 17.0961 24.843 17.407C25.1539 17.719 25.5396 17.875 26 17.875ZM13 14.625H21.125V11.375H13V14.625ZM7.3125 34.125C6.39167 31.0375 5.48438 27.9565 4.59063 24.882C3.69688 21.8086 3.25 18.6604 3.25 15.4375C3.25 12.9458 4.11667 10.8333 5.85 9.1C7.58333 7.36667 9.69583 6.5 12.1875 6.5H20.3125C21.0979 5.47083 22.0529 4.67188 23.1774 4.10313C24.3008 3.53438 25.5125 3.25 26.8125 3.25C27.4896 3.25 28.0648 3.48725 28.5382 3.96175C29.0128 4.43517 29.25 5.01042 29.25 5.6875C29.25 5.82292 29.1823 6.13437 29.0469 6.62187C28.9385 6.91979 28.8372 7.22421 28.743 7.53513C28.6477 7.84713 28.5729 8.16562 28.5187 8.49062L32.2156 12.1875H35.75V23.5219L31.1594 25.025L28.4375 34.125H19.5V30.875H16.25V34.125H7.3125Z" fill="url(#paint0_linear_426_6535)"/>
</g>
<defs>
<linearGradient id="paint0_linear_426_6535" x1="35.75" y1="18.6875" x2="3.25" y2="18.6875" gradientUnits="userSpaceOnUse">
<stop stop-color="#301F6C"/>
<stop offset="1" stop-color="#D60D47"/>
</linearGradient>
</defs>
</svg>
