<svg width="39" height="39" viewBox="0 0 39 39" fill="none" xmlns="http://www.w3.org/2000/svg">
<mask id="mask0_425_6326" style="mask-type:alpha" maskUnits="userSpaceOnUse" x="0" y="0" width="39" height="39">
<rect width="39" height="39" fill="#D9D9D9"/>
</mask>
<g mask="url(#mask0_425_6326)">
<path d="M14.625 23.1562C14.0562 23.1562 13.5758 22.9596 13.1836 22.5664C12.7904 22.1742 12.5938 21.6938 12.5938 21.125C12.5938 20.5562 12.7904 20.0758 13.1836 19.6836C13.5758 19.2904 14.0562 19.0938 14.625 19.0938C15.1938 19.0938 15.6742 19.2904 16.0664 19.6836C16.4596 20.0758 16.6562 20.5562 16.6562 21.125C16.6562 21.6938 16.4596 22.1742 16.0664 22.5664C15.6742 22.9596 15.1938 23.1562 14.625 23.1562ZM24.375 23.1562C23.8062 23.1562 23.3258 22.9596 22.9336 22.5664C22.5404 22.1742 22.3438 21.6938 22.3438 21.125C22.3438 20.5562 22.5404 20.0758 22.9336 19.6836C23.3258 19.2904 23.8062 19.0938 24.375 19.0938C24.9438 19.0938 25.4242 19.2904 25.8164 19.6836C26.2096 20.0758 26.4062 20.5562 26.4062 21.125C26.4062 21.6938 26.2096 22.1742 25.8164 22.5664C25.4242 22.9596 24.9438 23.1562 24.375 23.1562ZM19.5 32.5C23.1292 32.5 26.2031 31.2406 28.7219 28.7219C31.2406 26.2031 32.5 23.1292 32.5 19.5C32.5 18.85 32.4594 18.22 32.3781 17.6101C32.2969 17.0013 32.1479 16.4125 31.9312 15.8438C31.3625 15.9792 30.7938 16.081 30.225 16.1493C29.6562 16.2164 29.0604 16.25 28.4375 16.25C25.9729 16.25 23.6437 15.7219 21.45 14.6656C19.2563 13.6094 17.3875 12.1333 15.8438 10.2375C14.9771 12.35 13.7383 14.1852 12.1274 15.743C10.5154 17.2997 8.63958 18.4708 6.5 19.2563V19.5C6.5 23.1292 7.75937 26.2031 10.2781 28.7219C12.7969 31.2406 15.8708 32.5 19.5 32.5ZM19.5 35.75C17.2521 35.75 15.1396 35.3232 13.1625 34.4695C11.1854 33.6169 9.46563 32.4594 8.00313 30.9969C6.54063 29.5344 5.38308 27.8146 4.5305 25.8375C3.67683 23.8604 3.25 21.7479 3.25 19.5C3.25 17.2521 3.67683 15.1396 4.5305 13.1625C5.38308 11.1854 6.54063 9.46563 8.00313 8.00313C9.46563 6.54063 11.1854 5.38254 13.1625 4.52887C15.1396 3.67629 17.2521 3.25 19.5 3.25C21.7479 3.25 23.8604 3.67629 25.8375 4.52887C27.8146 5.38254 29.5344 6.54063 30.9969 8.00313C32.4594 9.46563 33.6169 11.1854 34.4695 13.1625C35.3232 15.1396 35.75 17.2521 35.75 19.5C35.75 21.7479 35.3232 23.8604 34.4695 25.8375C33.6169 27.8146 32.4594 29.5344 30.9969 30.9969C29.5344 32.4594 27.8146 33.6169 25.8375 34.4695C23.8604 35.3232 21.7479 35.75 19.5 35.75Z" fill="url(#paint0_linear_425_6326)"/>
</g>
<defs>
<linearGradient id="paint0_linear_425_6326" x1="35.75" y1="19.5" x2="3.25" y2="19.5" gradientUnits="userSpaceOnUse">
<stop stop-color="#301F6C"/>
<stop offset="1" stop-color="#D60D47"/>
</linearGradient>
</defs>
</svg>
