<svg width="39" height="39" viewBox="0 0 39 39" fill="none" xmlns="http://www.w3.org/2000/svg">
<mask id="mask0_426_6410" style="mask-type:alpha" maskUnits="userSpaceOnUse" x="0" y="0" width="39" height="39">
<rect width="39" height="39" fill="#D9D9D9"/>
</mask>
<g mask="url(#mask0_426_6410)">
<path d="M7.3125 34.1234C6.63542 34.1234 6.06017 33.8862 5.58675 33.4117C5.11225 32.9383 4.875 32.363 4.875 31.6859V28.5984L11.375 22.8297V34.1234H7.3125ZM13 34.1234V27.6234H26V34.1234H13ZM27.625 34.1234V20.7984L20.6781 14.6234L25.5938 10.2766L33.3125 17.1422C33.5833 17.3859 33.7865 17.6633 33.9219 17.9742C34.0573 18.2862 34.125 18.6182 34.125 18.9703V31.6859C34.125 32.363 33.8878 32.9383 33.4132 33.4117C32.9398 33.8862 32.3646 34.1234 31.6875 34.1234H27.625ZM4.875 26.4047V18.9703C4.875 18.6182 4.94271 18.2797 5.07812 17.9547C5.21354 17.6297 5.41667 17.3589 5.6875 17.1422L17.875 6.33594C18.0917 6.11927 18.3425 5.96327 18.6274 5.86794C18.9112 5.77369 19.2021 5.72656 19.5 5.72656C19.7979 5.72656 20.0893 5.77369 20.3743 5.86794C20.6581 5.96327 20.9083 6.11927 21.125 6.33594L24.375 9.22031L4.875 26.4047Z" fill="url(#paint0_linear_426_6410)"/>
</g>
<defs>
<linearGradient id="paint0_linear_426_6410" x1="34.125" y1="19.925" x2="4.875" y2="19.925" gradientUnits="userSpaceOnUse">
<stop stop-color="#301F6C"/>
<stop offset="1" stop-color="#D60D47"/>
</linearGradient>
</defs>
</svg>
