<svg width="39" height="39" viewBox="0 0 39 39" fill="none" xmlns="http://www.w3.org/2000/svg">
<mask id="mask0_426_6515" style="mask-type:alpha" maskUnits="userSpaceOnUse" x="0" y="0" width="39" height="39">
<rect width="39" height="39" fill="#D9D9D9"/>
</mask>
<g mask="url(#mask0_426_6515)">
<path d="M13 37.375L10.4 35.425L14.625 29.7781V21.125C14.625 20.2854 14.6927 19.3711 14.8281 18.382C14.9635 17.394 15.1667 16.4802 15.4375 15.6406L13 16.9812V22.75H9.75V15.1125L16.9 11.05C17.5771 10.6708 18.1664 10.3794 18.668 10.1758C19.1685 9.97317 19.6354 9.87187 20.0688 9.87187C20.7458 9.87187 21.3622 10.1627 21.918 10.7445C22.4727 11.3273 23.1156 12.2417 23.8469 13.4875C24.7135 14.95 25.499 16.0469 26.2031 16.7781C26.9073 17.5094 27.6656 18.0646 28.4781 18.4438C28.776 18.2271 29.0333 18.0781 29.25 17.9969C29.4667 17.9156 29.724 17.875 30.0219 17.875C30.699 17.875 31.2812 18.1187 31.7687 18.6062C32.2562 19.0938 32.5 19.6625 32.5 20.3125V37.375H30.875V20.3125C30.875 20.0958 30.7938 19.9062 30.6313 19.7437C30.4688 19.5812 30.2792 19.5 30.0625 19.5C29.8458 19.5 29.6562 19.5812 29.4937 19.7437C29.3312 19.9062 29.25 20.0958 29.25 20.3125V22.3438H27.625V21.5719C26.1625 20.949 25.025 20.2513 24.2125 19.4789C23.4 18.7075 22.6823 17.6719 22.0594 16.3719C21.7615 17.1302 21.5247 18.0575 21.3492 19.1539C21.1727 20.2513 21.1115 21.2875 21.1656 22.2625L24.375 26.8125V37.375H21.125V29.25L18.2406 25.1062L17.875 30.875L13 37.375ZM21.9375 8.9375C21.0437 8.9375 20.2789 8.619 19.643 7.982C19.006 7.34608 18.6875 6.58125 18.6875 5.6875C18.6875 4.79375 19.006 4.02837 19.643 3.39137C20.2789 2.75546 21.0437 2.4375 21.9375 2.4375C22.8313 2.4375 23.5966 2.75546 24.2336 3.39137C24.8695 4.02837 25.1875 4.79375 25.1875 5.6875C25.1875 6.58125 24.8695 7.34608 24.2336 7.982C23.5966 8.619 22.8313 8.9375 21.9375 8.9375Z" fill="url(#paint0_linear_426_6515)"/>
</g>
<defs>
<linearGradient id="paint0_linear_426_6515" x1="32.5" y1="19.9063" x2="9.75" y2="19.9063" gradientUnits="userSpaceOnUse">
<stop stop-color="#301F6C"/>
<stop offset="1" stop-color="#D60D47"/>
</linearGradient>
</defs>
</svg>
