<svg width="39" height="39" viewBox="0 0 39 39" fill="none" xmlns="http://www.w3.org/2000/svg">
<mask id="mask0_426_6577" style="mask-type:alpha" maskUnits="userSpaceOnUse" x="0" y="0" width="39" height="39">
<rect width="39" height="39" fill="#D9D9D9"/>
</mask>
<g mask="url(#mask0_426_6577)">
<path d="M13 29.25H15.4375V26H18.6875V23.5625H15.4375V20.3125H13V23.5625H9.75V26H13V29.25ZM21.125 28.0312H29.25V25.5938H21.125V28.0312ZM21.125 23.9688H29.25V21.5312H21.125V23.9688ZM22.9125 17.7937L25.1875 15.5188L27.4625 17.7937L29.1688 16.0875L26.8937 13.7312L29.1688 11.4563L27.4625 9.75L25.1875 12.025L22.9125 9.75L21.2063 11.4563L23.4812 13.7312L21.2063 16.0875L22.9125 17.7937ZM10.1562 14.95H18.2812V12.5125H10.1562V14.95ZM8.125 34.125C7.23125 34.125 6.46587 33.807 5.82887 33.1711C5.19296 32.5341 4.875 31.7687 4.875 30.875V8.125C4.875 7.23125 5.19296 6.46587 5.82887 5.82887C6.46587 5.19296 7.23125 4.875 8.125 4.875H30.875C31.7687 4.875 32.5341 5.19296 33.1711 5.82887C33.807 6.46587 34.125 7.23125 34.125 8.125V30.875C34.125 31.7687 33.807 32.5341 33.1711 33.1711C32.5341 33.807 31.7687 34.125 30.875 34.125H8.125Z" fill="url(#paint0_linear_426_6577)"/>
</g>
<defs>
<linearGradient id="paint0_linear_426_6577" x1="34.125" y1="19.5" x2="4.875" y2="19.5" gradientUnits="userSpaceOnUse">
<stop stop-color="#301F6C"/>
<stop offset="1" stop-color="#D60D47"/>
</linearGradient>
</defs>
</svg>
