<svg width="39" height="39" viewBox="0 0 39 39" fill="none" xmlns="http://www.w3.org/2000/svg">
<mask id="mask0_426_6571" style="mask-type:alpha" maskUnits="userSpaceOnUse" x="0" y="0" width="39" height="39">
<rect width="39" height="39" fill="#D9D9D9"/>
</mask>
<g mask="url(#mask0_426_6571)">
<path d="M11.3749 30.875C10.3187 30.6042 9.24236 30.401 8.14603 30.2656C7.04861 30.1302 5.95824 30.0625 4.8749 30.0625H3.2499V26.8125H4.8749C5.95824 26.8125 7.04861 26.7448 8.14603 26.6094C9.24236 26.474 10.3187 26.2708 11.3749 26V30.875ZM32.1343 36.725L26.2843 30.875H12.9999V26H21.4093L2.2749 6.86563L4.5499 4.55L34.4093 34.45L32.1343 36.725ZM35.4655 30.875L30.5905 26H35.7499V30.875H35.4655ZM17.0624 29.25C17.2791 29.25 17.4687 29.1688 17.6312 29.0063C17.7937 28.8438 17.8749 28.6542 17.8749 28.4375C17.8749 28.2208 17.7937 28.0313 17.6312 27.8688C17.4687 27.7063 17.2791 27.625 17.0624 27.625C16.8457 27.625 16.6562 27.7063 16.4937 27.8688C16.3312 28.0313 16.2499 28.2208 16.2499 28.4375C16.2499 28.6542 16.3312 28.8438 16.4937 29.0063C16.6562 29.1688 16.8457 29.25 17.0624 29.25ZM33.3124 24.375V20.7594C33.3124 18.9177 32.6895 17.3534 31.4437 16.0664C30.1978 14.7805 28.6541 14.1375 26.8124 14.1375V11.7C27.652 11.7 28.3627 11.4086 28.9444 10.8258C29.5272 10.244 29.8187 9.53333 29.8187 8.69375C29.8187 7.85417 29.5272 7.14296 28.9444 6.56013C28.3627 5.97838 27.652 5.6875 26.8124 5.6875V3.25C28.3291 3.25 29.6155 3.77812 30.6718 4.83437C31.728 5.89062 32.2562 7.17708 32.2562 8.69375C32.2562 9.45208 32.1142 10.1628 31.8304 10.8258C31.5455 11.4898 31.1457 12.0656 30.6312 12.5531C32.1749 13.2844 33.4142 14.3742 34.3492 15.8226C35.283 17.2721 35.7499 18.9042 35.7499 20.7188V24.375H33.3124ZM29.2499 24.375V22.2625C29.2499 21.2063 28.9319 20.3873 28.296 19.8055C27.659 19.2227 26.9072 18.9313 26.0405 18.9313H23.5218L18.1187 13.5281V13.4875C18.1187 11.9708 18.6468 10.6844 19.703 9.62813C20.7593 8.57188 22.0457 8.04375 23.5624 8.04375V10.4813C22.7228 10.4813 22.0122 10.7456 21.4304 11.2743C20.8476 11.8018 20.5562 12.4854 20.5562 13.325C20.5562 14.1646 20.8476 14.9159 21.4304 15.5789C22.0122 16.243 22.7228 16.575 23.5624 16.575H26.0405C27.5843 16.575 28.9114 17.0625 30.0218 18.0375C31.1322 19.0125 31.6874 20.2313 31.6874 21.6938V24.375H29.2499Z" fill="url(#paint0_linear_426_6571)"/>
</g>
<defs>
<linearGradient id="paint0_linear_426_6571" x1="35.7499" y1="19.9875" x2="2.2749" y2="19.9875" gradientUnits="userSpaceOnUse">
<stop stop-color="#301F6C"/>
<stop offset="1" stop-color="#D60D47"/>
</linearGradient>
</defs>
</svg>
