<svg width="39" height="39" viewBox="0 0 39 39" fill="none" xmlns="http://www.w3.org/2000/svg">
<mask id="mask0_426_6541" style="mask-type:alpha" maskUnits="userSpaceOnUse" x="0" y="0" width="39" height="39">
<rect width="39" height="39" fill="#D9D9D9"/>
</mask>
<g mask="url(#mask0_426_6541)">
<path d="M17.875 24.375H21.125V14.625H17.875V24.375ZM22.75 24.375H25.1875V21.125H29.25C29.7104 21.125 30.0961 20.969 30.407 20.657C30.719 20.3461 30.875 19.9604 30.875 19.5V16.25C30.875 15.7896 30.719 15.4034 30.407 15.0914C30.0961 14.7805 29.7104 14.625 29.25 14.625H22.75V24.375ZM8.125 24.375H14.625C15.0854 24.375 15.4716 24.219 15.7836 23.907C16.0945 23.5961 16.25 23.2104 16.25 22.75V19.9062C16.25 19.4458 16.0945 19.0596 15.7836 18.7476C15.4716 18.4367 15.0854 18.2812 14.625 18.2812H10.5625V17.0625H16.25V14.625H9.75C9.28958 14.625 8.90338 14.7805 8.59138 15.0914C8.28046 15.4034 8.125 15.7896 8.125 16.25V19.0938C8.125 19.5542 8.28046 19.9398 8.59138 20.2507C8.90338 20.5627 9.28958 20.7188 9.75 20.7188H13.8125V21.9375H8.125V24.375ZM25.1875 18.6875V17.0625H28.4375V18.6875H25.1875ZM6.5 32.5C5.60625 32.5 4.84142 32.182 4.2055 31.5461C3.5685 30.9091 3.25 30.1437 3.25 29.25V9.75C3.25 8.85625 3.5685 8.09142 4.2055 7.4555C4.84142 6.8185 5.60625 6.5 6.5 6.5H32.5C33.3937 6.5 34.1591 6.8185 34.7961 7.4555C35.432 8.09142 35.75 8.85625 35.75 9.75V29.25C35.75 30.1437 35.432 30.9091 34.7961 31.5461C34.1591 32.182 33.3937 32.5 32.5 32.5H6.5Z" fill="url(#paint0_linear_426_6541)"/>
</g>
<defs>
<linearGradient id="paint0_linear_426_6541" x1="35.75" y1="19.5" x2="3.25" y2="19.5" gradientUnits="userSpaceOnUse">
<stop stop-color="#301F6C"/>
<stop offset="1" stop-color="#D60D47"/>
</linearGradient>
</defs>
</svg>
