<svg width="39" height="39" viewBox="0 0 39 39" fill="none" xmlns="http://www.w3.org/2000/svg">
<mask id="mask0_426_6529" style="mask-type:alpha" maskUnits="userSpaceOnUse" x="0" y="0" width="39" height="39">
<rect width="39" height="39" fill="#D9D9D9"/>
</mask>
<g mask="url(#mask0_426_6529)">
<path d="M19.5002 37.375C20.1231 37.375 20.746 37.3344 21.3689 37.2531C21.9918 37.1719 22.6148 37.0635 23.2377 36.9281C25.621 38.6885 28.2416 39.3185 31.0994 38.818C33.9562 38.3164 36.1429 36.7927 37.6596 34.2469C38.8783 32.2427 39.271 30.0896 38.8377 27.7875C38.4043 25.4854 37.3616 23.549 35.7096 21.9781V21.8562C37.3887 20.3125 38.4314 18.4096 38.8377 16.1476C39.2439 13.8867 38.8648 11.7542 37.7002 9.75C36.6981 8.04375 35.3168 6.75025 33.5564 5.8695C31.796 4.98983 29.9408 4.68542 27.9908 4.95625C27.1241 3.4125 25.9395 2.20025 24.4369 1.3195C22.9333 0.439833 21.2877 0 19.5002 0C17.7127 0 16.0676 0.439833 14.5651 1.3195C13.0614 2.20025 11.8762 3.4125 11.0096 4.95625C9.05955 4.68542 7.20435 4.98983 5.44393 5.8695C3.68351 6.75025 2.30226 8.04375 1.30018 9.75C0.135596 11.7542 -0.243571 13.8867 0.162679 16.1476C0.568929 18.4096 1.61164 20.3125 3.2908 21.8562V21.9781C1.63872 23.549 0.596013 25.4854 0.162679 27.7875C-0.270654 30.0896 0.122054 32.2427 1.3408 34.2469C2.85747 36.7927 5.04418 38.3164 7.90093 38.818C10.7588 39.3185 13.3793 38.6885 15.7627 36.9281C16.3856 37.0635 17.0085 37.1719 17.6314 37.2531C18.2543 37.3344 18.8773 37.375 19.5002 37.375ZM19.5002 34.125C15.871 34.125 12.7971 32.8656 10.2783 30.3469C7.75955 27.8281 6.50018 24.7542 6.50018 21.125C6.50018 18.0917 7.42101 15.4104 9.26268 13.0813C11.1043 10.7521 13.4335 9.23542 16.2502 8.53125C16.2502 11.2937 17.2187 13.6435 19.1557 15.5805C21.0916 17.5164 23.4408 18.4844 26.2033 18.4844C27.2325 18.4844 28.221 18.3354 29.1689 18.0375C30.1168 17.7396 30.9835 17.3198 31.7689 16.7781C32.0127 17.4552 32.1958 18.1523 32.3182 18.8695C32.4395 19.5878 32.5002 20.3396 32.5002 21.125C32.5002 24.7542 31.2408 27.8281 28.7221 30.3469C26.2033 32.8656 23.1293 34.125 19.5002 34.125ZM14.6252 24.7812C14.0564 24.7812 13.576 24.5846 13.1838 24.1914C12.7906 23.7992 12.5939 23.3188 12.5939 22.75C12.5939 22.1812 12.7906 21.7008 13.1838 21.3086C13.576 20.9154 14.0564 20.7188 14.6252 20.7188C15.1939 20.7188 15.6744 20.9154 16.0666 21.3086C16.4598 21.7008 16.6564 22.1812 16.6564 22.75C16.6564 23.3188 16.4598 23.7992 16.0666 24.1914C15.6744 24.5846 15.1939 24.7812 14.6252 24.7812ZM24.3752 24.7812C23.8064 24.7812 23.326 24.5846 22.9338 24.1914C22.5406 23.7992 22.3439 23.3188 22.3439 22.75C22.3439 22.1812 22.5406 21.7008 22.9338 21.3086C23.326 20.9154 23.8064 20.7188 24.3752 20.7188C24.9439 20.7188 25.4244 20.9154 25.8166 21.3086C26.2098 21.7008 26.4064 22.1812 26.4064 22.75C26.4064 23.3188 26.2098 23.7992 25.8166 24.1914C25.4244 24.5846 24.9439 24.7812 24.3752 24.7812Z" fill="url(#paint0_linear_426_6529)"/>
</g>
<defs>
<linearGradient id="paint0_linear_426_6529" x1="39.0082" y1="19.4921" x2="-0.00781354" y2="19.4921" gradientUnits="userSpaceOnUse">
<stop stop-color="#301F6C"/>
<stop offset="1" stop-color="#D60D47"/>
</linearGradient>
</defs>
</svg>
